<?xml version="1.0" encoding="utf-8"?>
<!-- Generator: Adobe Illustrator 20.0.0, SVG Export Plug-In . SVG Version: 6.00 Build 0)  -->
<svg version="1.1" id="Layer_1" xmlns="http://www.w3.org/2000/svg" xmlns:xlink="http://www.w3.org/1999/xlink" x="0px" y="0px"
	 viewBox="0 0 139.1 139.1" enable-background="new 0 0 139.1 139.1" xml:space="preserve">
<circle fill="#F8F7F2" cx="-833.5" cy="1752.8" r="70"/>
<g>
	<path fill="#333333" d="M-783.8,1786.3c0,1.4-1.1,2.5-2.5,2.5h-95c-1.4,0-2.5-1.1-2.5-2.5v-62c0-1.4,1.1-2.5,2.5-2.5h95
		c1.4,0,2.5,1.1,2.5,2.5V1786.3z"/>
	<rect x="-877.8" y="1726.8" fill="#F9F9FA" width="87" height="55"/>
</g>
<g>
	<line fill="none" stroke="#C9C9C9" stroke-miterlimit="10" x1="-801.3" y1="1771.8" x2="-801.3" y2="1732.8"/>
	<rect x="-804.1" y="1722.6" fill="#F68938" width="5.1" height="58.3"/>
	<rect x="-804.1" y="1719.2" fill="#F8F6F2" width="5.1" height="3.5"/>
	<path fill="#5C5C5C" d="M-798.9,1709.4h-4.1c-0.6,0-1.2,0.7-1.2,1.5v8.2h5.2V1709.4z"/>
	<rect x="-799" y="1722.6" fill="#A91E23" width="5.1" height="58.3"/>
	<rect x="-799" y="1719.2" fill="#C2C1BF" width="5.1" height="3.5"/>
	<path fill="#111111" d="M-798.9,1709.4h3.9c0.6,0,1.1,0.7,1.1,1.5v8.2h-5.1V1709.4z"/>
	<polyline fill="#F4B26D" points="-798.9,1780.9 -804.1,1780.9 -801.3,1790.6 -799.1,1790.6 	"/>
	<polyline fill="#F5A657" points="-799.1,1790.6 -796.9,1790.6 -793.9,1780.9 -799,1780.9 	"/>
	<g>
		
			<linearGradient id="SVGID_1_" gradientUnits="userSpaceOnUse" x1="-3708.6799" y1="1379.8541" x2="-3708.6799" y2="1375.4537" gradientTransform="matrix(0 -1 1 0 -2176.7236 -1916.0703)">
			<stop  offset="0.5" style="stop-color:#37474F"/>
			<stop  offset="0.5" style="stop-color:#445B65"/>
		</linearGradient>
		<path fill="url(#SVGID_1_)" d="M-801.3,1790.6c0,0,0.5,1.3,1.1,2.9c0.6,1.6,1.6,1.6,2.2,0c0.6-1.6,1.1-2.9,1.1-2.9"/>
	</g>
</g>
<rect x="-823.8" y="1756.8" fill="#090705" width="7" height="3"/>
<rect x="-815.8" y="1756.8" fill="#090705" width="8" height="3"/>
<rect x="-832.8" y="1756.8" fill="#090705" width="8" height="3"/>
<rect x="-840.8" y="1731.8" fill="#3A3B3A" width="11" height="1"/>
<rect x="-843.8" y="1735.8" fill="#3A3B3A" width="11" height="2"/>
<rect x="-830.8" y="1735.8" fill="#3A3B3A" width="11" height="2"/>
<rect x="-817.8" y="1735.8" fill="#3A3B3A" width="11" height="2"/>
<path fill="#3A3B3A" d="M-841.4,1733.7c0.1,0.1,0.2,0.1,0.2,0.3c0,0.1-0.1,0.3-0.3,0.3c-0.1,0-0.2,0-0.2-0.1l-2-1.3
	c-0.1-0.1-0.2-0.1-0.2-0.3c0-0.1,0.1-0.2,0.2-0.3l2-1.3c0.1,0,0.1-0.1,0.2-0.1c0.1,0,0.3,0.1,0.3,0.3c0,0.1-0.1,0.2-0.2,0.3
	l-1.7,1.2L-841.4,1733.7z"/>
<path fill="#3A3B3A" d="M-826.3,1732.7l-1.7-1.2c-0.1-0.1-0.2-0.1-0.2-0.3c0-0.1,0.1-0.3,0.3-0.3c0.1,0,0.1,0,0.2,0.1l2,1.3
	c0.1,0.1,0.2,0.1,0.2,0.3c0,0.1-0.1,0.2-0.2,0.3l-2,1.3c-0.1,0-0.1,0.1-0.2,0.1c-0.1,0-0.3-0.1-0.3-0.3c0-0.1,0.1-0.2,0.2-0.3
	L-826.3,1732.7z"/>
<rect x="-840.8" y="1739.8" fill="#3A3B3A" width="11" height="2"/>
<path fill="#3A3B3A" d="M-841.4,1742.4c0.1,0.1,0.2,0.1,0.2,0.3c0,0.1-0.1,0.3-0.3,0.3c-0.1,0-0.2,0-0.2-0.1l-2-1.3
	c-0.1-0.1-0.2-0.1-0.2-0.3c0-0.1,0.1-0.2,0.2-0.3l2-1.3c0.1,0,0.1-0.1,0.2-0.1c0.1,0,0.3,0.1,0.3,0.3c0,0.1-0.1,0.2-0.2,0.3
	l-1.7,1.2L-841.4,1742.4z"/>
<path fill="#3A3B3A" d="M-826.3,1741.4l-1.7-1.2c-0.1-0.1-0.2-0.1-0.2-0.3c0-0.1,0.1-0.3,0.3-0.3c0.1,0,0.1,0,0.2,0.1l2,1.3
	c0.1,0.1,0.2,0.1,0.2,0.3c0,0.1-0.1,0.2-0.2,0.3l-2,1.3c-0.1,0-0.1,0.1-0.2,0.1c-0.1,0-0.3-0.1-0.3-0.3c0-0.1,0.1-0.2,0.2-0.3
	L-826.3,1741.4z"/>
<line fill="none" stroke="#010101" stroke-miterlimit="10" x1="-833.8" y1="1764.3" x2="-807.8" y2="1764.3"/>
<line fill="none" stroke="#010101" stroke-miterlimit="10" x1="-833.8" y1="1767.3" x2="-807.8" y2="1767.3"/>
<line fill="none" stroke="#010101" stroke-miterlimit="10" x1="-833.8" y1="1770.3" x2="-807.8" y2="1770.3"/>
<line fill="none" stroke="#010101" stroke-miterlimit="10" x1="-840.8" y1="1773.3" x2="-807.8" y2="1773.3"/>
<g>
	<rect x="-876.5" y="1760" fill="#333333" width="38.4" height="2.3"/>
	<rect x="-876.5" y="1758.3" fill="#333333" width="4.4" height="5.1"/>
	<g>
		<rect x="-861.2" y="1707.8" fill="#676766" width="6.6" height="11.4"/>
		<rect x="-860" y="1719.2" fill="#333333" width="4.1" height="3.4"/>
		<path fill="#8F8F8F" d="M-857.9,1722c-6.1,0-11,4.9-11,11c0,6.1,4.9,11,11,11c6.1,0,11-4.9,11-11
			C-846.9,1726.9-851.9,1722-857.9,1722z M-857.9,1741.9c-4.9,0-8.9-4-8.9-8.9c0-4.9,4-8.9,8.9-8.9c4.9,0,8.9,4,8.9,8.9
			C-849,1737.9-853,1741.9-857.9,1741.9z"/>
		
			<rect x="-889.7" y="1761.1" transform="matrix(0.2938 -0.9559 0.9559 0.2938 -2298.5837 415.691)" fill="#8F8F8F" width="43.4" height="4.5"/>
		
			<rect x="-849.5" y="1741.5" transform="matrix(0.9608 -0.2772 0.2772 0.9608 -521.9999 -165.7743)" fill="#8F8F8F" width="4.5" height="43.4"/>
		<polygon fill="#FDFEFF" points="-876.6,1794.7 -876.6,1794.7 -875.7,1783.1 -873.2,1783.9 		"/>
		<polygon fill="#FDFEFF" points="-839.1,1795 -839.1,1795 -840,1783.4 -842.5,1784.2 		"/>
		<rect x="-842.2" y="1758.7" fill="#333333" width="4.4" height="5.1"/>
		<path fill="#333333" d="M-854.9,1767.1c0,1.1-0.9,2.1-2.1,2.1l0,0c-1.1,0-2.1-0.9-2.1-2.1v-12.2c0-1.1,0.9-2.1,2.1-2.1l0,0
			c1.1,0,2.1,0.9,2.1,2.1V1767.1z"/>
	</g>
</g>
<rect x="79.7" y="111.3" fill="#737374" stroke="#FFFFFF" stroke-miterlimit="10" width="2" height="3"/>
<rect x="98.5" y="111.5" fill="#737374" stroke="#FFFFFF" stroke-miterlimit="10" width="2" height="2"/>
<rect x="46.7" y="110.3" fill="#737374" stroke="#FFFFFF" stroke-miterlimit="10" width="3" height="3"/>
<rect x="65.7" y="110.3" fill="#737374" stroke="#FFFFFF" stroke-miterlimit="10" width="3" height="3"/>
<circle fill="#F8F7F2" cx="69.8" cy="69.8" r="70"/>
<path fill="#333333" d="M120.2,95.3c0,1.4-1.1,2.5-2.5,2.5h-95c-1.4,0-2.5-1.1-2.5-2.5v-62c0-1.4,1.1-2.5,2.5-2.5h95
	c1.4,0,2.5,1.1,2.5,2.5V95.3z"/>
<rect x="26.2" y="35.8" fill="#F9F9FA" width="87" height="55"/>
<rect x="35.2" y="56.3" fill="#FBD737" width="6.7" height="37.7"/>
<rect x="35.2" y="94" fill="#B7B7B8" width="6.7" height="5.5"/>
<path fill="#D64527" d="M35.1,112.4h5.3c0.9,0,1.5-0.9,1.5-2V99.5h-6.9V112.4z"/>
<rect x="28.4" y="56.3" fill="#F8BF2B" width="6.7" height="37.7"/>
<rect x="28.4" y="94" fill="#5A5A59" width="6.7" height="5.5"/>
<path fill="#BC3A26" d="M35.3,112.4H30c-0.9,0-1.5-0.9-1.5-2V99.5h6.9V112.4z"/>
<rect x="27.7" y="50.3" fill="#7C7B7B" width="14.6" height="4.6"/>
<rect x="29.3" y="54.9" fill="#3A3B3A" width="11.4" height="2.2"/>
<linearGradient id="SVGID_2_" gradientUnits="userSpaceOnUse" x1="972.0043" y1="2345.4124" x2="986.3503" y2="2333.3745" gradientTransform="matrix(0.7071 0.7071 -0.7071 0.7071 997.285 -2308.1509)">
	<stop  offset="0" style="stop-color:#E9E9E9"/>
	<stop  offset="0.463" style="stop-color:#BEBCC4"/>
	<stop  offset="1" style="stop-color:#BEBCC4"/>
</linearGradient>
<polyline fill="url(#SVGID_2_)" points="35.4,26.1 25.8,41.7 30.1,47.9 30.2,50.3 40.2,50.3 40.3,47.9 44.6,41.7 35,26.1 "/>
<line fill="none" stroke="#454546" stroke-width="0.5" stroke-miterlimit="10" x1="35.2" y1="27.7" x2="35.2" y2="40.9"/>
<ellipse transform="matrix(0.7071 -0.7072 0.7072 0.7071 -18.4993 36.8896)" fill="#3A3B3A" cx="35.3" cy="40.8" rx="1.8" ry="1.8"/>
<rect x="46.2" y="35.9" fill="#DAECF9" width="67.1" height="4.5"/>
<rect x="46.2" y="40.4" fill="#363032" width="67.1" height="50.5"/>
<line fill="none" stroke="#FFFFFF" stroke-miterlimit="10" x1="59.7" y1="40.8" x2="59.7" y2="88.8"/>
<rect x="47.2" y="40.8" fill="#FFFFFF" width="8" height="3"/>
<rect x="65.2" y="43.8" fill="#FFFFFF" width="14" height="2"/>
<rect x="61.2" y="48.8" fill="#FFFFFF" width="14" height="3"/>
<rect x="77.2" y="48.8" fill="#32B44A" width="14" height="3"/>
<rect x="94.2" y="48.8" fill="#FFDB7C" width="14" height="3"/>
<rect x="61.2" y="59.8" fill="#FFFFFF" width="7" height="3"/>
<rect x="69.2" y="59.8" fill="#32B44A" width="8" height="3"/>
<rect x="87.2" y="59.8" fill="#5D5BA8" width="7" height="3"/>
<rect x="95.2" y="59.8" fill="#BF202A" width="8" height="3"/>
<rect x="78.2" y="59.8" fill="#FFDB7C" width="8" height="3"/>
<rect x="47.2" y="55.8" fill="#FFFFFF" width="8" height="2"/>
<line fill="none" stroke="#FFFFFF" stroke-miterlimit="10" x1="48.2" y1="44.3" x2="54.2" y2="44.3"/>
<line fill="none" stroke="#FFFFFF" stroke-miterlimit="10" x1="48.2" y1="46.3" x2="54.2" y2="46.3"/>
<line fill="none" stroke="#FFFFFF" stroke-miterlimit="10" x1="48.2" y1="59.3" x2="54.2" y2="59.3"/>
<line fill="none" stroke="#FFFFFF" stroke-miterlimit="10" x1="48.2" y1="61.3" x2="54.2" y2="61.3"/>
<line fill="none" stroke="#FFFFFF" stroke-miterlimit="10" x1="48.2" y1="62.3" x2="54.2" y2="62.3"/>
<line fill="none" stroke="#FFFFFF" stroke-miterlimit="10" x1="48.2" y1="64.3" x2="54.2" y2="64.3"/>
<line fill="none" stroke="#FFFFFF" stroke-miterlimit="10" x1="50.2" y1="48.3" x2="56.2" y2="48.3"/>
<line fill="none" stroke="#FFFFFF" stroke-miterlimit="10" x1="50.2" y1="50.3" x2="56.2" y2="50.3"/>
<line fill="none" stroke="#FFFFFF" stroke-miterlimit="10" x1="50.2" y1="51.3" x2="56.2" y2="51.3"/>
<line fill="none" stroke="#FFFFFF" stroke-miterlimit="10" x1="50.2" y1="53.3" x2="56.2" y2="53.3"/>
<path fill="#FFFFFF" d="M64.5,46.5c0.1,0.1,0.2,0.2,0.2,0.3c0,0.2-0.1,0.3-0.3,0.3c-0.1,0-0.2-0.1-0.3-0.1l-2.6-1.7
	c-0.1-0.1-0.2-0.2-0.2-0.3c0-0.2,0.1-0.2,0.2-0.3l2.6-1.7c0.1,0,0.2-0.1,0.3-0.1c0.2,0,0.3,0.2,0.3,0.3c0,0.2-0.1,0.2-0.2,0.3
	L62.2,45L64.5,46.5z"/>
<path fill="#FFFFFF" d="M83.6,45.2l-2.2-1.5c-0.1-0.1-0.2-0.2-0.2-0.3c0-0.2,0.1-0.3,0.3-0.3c0.1,0,0.2,0,0.3,0.1l2.6,1.7
	c0.1,0.1,0.2,0.2,0.2,0.3c0,0.2-0.1,0.2-0.2,0.3l-2.6,1.7c-0.1,0-0.2,0.1-0.3,0.1c-0.2,0-0.3-0.2-0.3-0.3c0-0.2,0.1-0.2,0.2-0.3
	L83.6,45.2z"/>
<path fill="#FFFFFF" d="M67.1,82.8c0.1,0.1,0.2,0.2,0.2,0.3c0,0.2-0.1,0.3-0.3,0.3c-0.1,0-0.2-0.1-0.3-0.1l-2.6-1.7
	c-0.1-0.1-0.2-0.2-0.2-0.3c0-0.2,0.1-0.2,0.2-0.3l2.6-1.7c0.1,0,0.2-0.1,0.3-0.1c0.2,0,0.3,0.2,0.3,0.3c0,0.2-0.1,0.2-0.2,0.3
	l-2.2,1.5L67.1,82.8z"/>
<path fill="#FFFFFF" d="M75.8,81.5L73.6,80c-0.1-0.1-0.2-0.2-0.2-0.3c0-0.2,0.1-0.3,0.3-0.3c0.1,0,0.2,0,0.3,0.1l2.6,1.7
	c0.1,0.1,0.2,0.2,0.2,0.3c0,0.2-0.1,0.2-0.2,0.3L74,83.5c-0.1,0-0.2,0.1-0.3,0.1c-0.2,0-0.3-0.2-0.3-0.3c0-0.2,0.1-0.2,0.2-0.3
	L75.8,81.5z"/>
<rect x="65.2" y="54.8" fill="#FFFFFF" width="14" height="2"/>
<path fill="#FFFFFF" d="M64.5,57.5c0.1,0.1,0.2,0.2,0.2,0.3c0,0.2-0.1,0.3-0.3,0.3c-0.1,0-0.2-0.1-0.3-0.1l-2.6-1.7
	c-0.1-0.1-0.2-0.2-0.2-0.3c0-0.2,0.1-0.2,0.2-0.3l2.6-1.7c0.1,0,0.2-0.1,0.3-0.1c0.2,0,0.3,0.2,0.3,0.3c0,0.2-0.1,0.2-0.2,0.3
	L62.2,56L64.5,57.5z"/>
<path fill="#FFFFFF" d="M83.6,56.2l-2.2-1.5c-0.1-0.1-0.2-0.2-0.2-0.3c0-0.2,0.1-0.3,0.3-0.3c0.1,0,0.2,0,0.3,0.1l2.6,1.7
	c0.1,0.1,0.2,0.2,0.2,0.3c0,0.2-0.1,0.2-0.2,0.3l-2.6,1.7c-0.1,0-0.2,0.1-0.3,0.1c-0.2,0-0.3-0.2-0.3-0.3c0-0.2,0.1-0.2,0.2-0.3
	L83.6,56.2z"/>
<line fill="none" stroke="#FFFFFF" stroke-miterlimit="10" x1="68.2" y1="65.3" x2="94.2" y2="65.3"/>
<line fill="none" stroke="#FFFFFF" stroke-miterlimit="10" x1="68.2" y1="68.3" x2="94.2" y2="68.3"/>
<line fill="none" stroke="#FFFFFF" stroke-miterlimit="10" x1="68.2" y1="71.3" x2="94.2" y2="71.3"/>
<line fill="none" stroke="#FFFFFF" stroke-miterlimit="10" x1="61.2" y1="74.3" x2="94.2" y2="74.3"/>
<line fill="none" stroke="#FFFFFF" stroke-miterlimit="10" x1="70" y1="79.4" x2="68.8" y2="84.8"/>
<rect x="62.7" y="84.3" fill="#737374" stroke="#FFFFFF" stroke-miterlimit="10" width="3" height="2"/>
<rect x="81.7" y="84.3" fill="#737374" stroke="#FFFFFF" stroke-miterlimit="10" width="3" height="2"/>
<rect x="72.7" y="100.3" fill="#737374" stroke="#FFFFFF" stroke-miterlimit="10" width="2" height="3"/>
<polygon fill="none" stroke="#FFFFFF" stroke-miterlimit="10" points="48.4,113.3 64.6,85.2 80.8,113.3 "/>
<polygon fill="none" stroke="#FFFFFF" stroke-miterlimit="10" points="67.1,113.3 83.4,85.2 99.6,113.3 "/>
<polygon fill="#555554" stroke="#FFFFFF" stroke-miterlimit="10" points="67.1,113.3 73.9,101.6 80.7,113.3 "/>
<circle fill="#D32027" cx="49.3" cy="38.1" r="1.6"/>
<circle fill="#2FB44A" cx="53.8" cy="38.1" r="1.6"/>
<circle fill="#E7E622" cx="58.3" cy="38.1" r="1.6"/>
</svg>
