<?xml version="1.0" encoding="utf-8"?>
<!-- Generator: Adobe Illustrator 16.0.0, SVG Export Plug-In . SVG Version: 6.00 Build 0)  -->
<!DOCTYPE svg PUBLIC "-//W3C//DTD SVG 1.1//EN" "http://www.w3.org/Graphics/SVG/1.1/DTD/svg11.dtd">
<svg version="1.1" id="Layer_1" xmlns="http://www.w3.org/2000/svg" xmlns:xlink="http://www.w3.org/1999/xlink" x="0px" y="0px"
	 width="42px" height="42px" viewBox="0 0 42 42" style="enable-background:new 0 0 42 42;" xml:space="preserve">
<path style="fill:#FFFFFF;" d="M21,0C9.4,0,0,9.4,0,21c0,11.6,9.4,21,21,21c11.6,0,21-9.4,21-21C42,9.4,32.6,0,21,0z M21,40
	C10.5,40,2,31.5,2,21C2,10.5,10.5,2,21,2c10.5,0,19,8.5,19,19C40,31.5,31.5,40,21,40z"/>
<g>
	<g>
		
			<rect x="25.1" y="15.9" transform="matrix(0.7476 0.6642 -0.6642 0.7476 23.0127 -11.6792)" style="fill:#FFFFFF;" width="3.4" height="17"/>
		<polygon style="fill:#FFFFFF;" points="20.7,31.4 21.7,32.3 20.6,32.5 19.4,32.8 19.6,31.6 19.7,30.5 		"/>
	</g>
	<g>
		<path style="fill:#ACACAC;" d="M22.2,24.8l7.5-8.4v-1l-6.3-6.2h-10c-1,0-1.8,0.8-1.8,1.8v18.5c0,1,0.8,1.8,1.8,1.8h2.9l3.7-4.1"/>
		<line style="fill:#FFFFFF;" x1="20" y1="27.2" x2="22.2" y2="24.8"/>
		<path style="fill:#A2A2A2;" d="M24.7,31.4h3.2c1,0,1.8-0.8,1.8-1.8v-3.7L24.7,31.4z"/>
	</g>
	<rect x="13.8" y="16.5" style="fill:#FFFFFF;" width="11.8" height="2.5"/>
	<polyline style="fill:#FFFFFF;" points="23.7,23 13.8,23 13.8,20.6 25.6,20.6 25.6,21.1 	"/>
	<polyline style="fill:#FFFFFF;" points="20.1,27 13.8,27 13.8,24.6 22.4,24.6 	"/>
	<g>
		<path style="fill:#FFFFFF;" d="M14,11.4h2.2c0.8,0,1,0.3,1,0.9c0,0.5-0.3,0.9-1,0.9h-1.1v0.8H14V11.4z M15.1,12.6h0.7
			c0.3,0,0.4-0.1,0.4-0.3c0-0.2-0.1-0.3-0.4-0.3h-0.7V12.6z"/>
		<path style="fill:#FFFFFF;" d="M17.6,11.4h2.1c0.9,0,1.4,0.4,1.4,1.4c0,1-0.5,1.4-1.4,1.4h-2.1V11.4z M18.7,13.4h0.6
			c0.5,0,0.7-0.2,0.7-0.7c0-0.4-0.2-0.7-0.7-0.7h-0.6V13.4z"/>
		<path style="fill:#FFFFFF;" d="M21.5,11.4h2.7v0.7h-1.7v0.4h1.5v0.7h-1.5v1h-1.1V11.4z"/>
	</g>
</g>
</svg>
