<?xml version="1.0" encoding="utf-8"?>
<!-- Generator: Adobe Illustrator 16.0.0, SVG Export Plug-In . SVG Version: 6.00 Build 0)  -->
<!DOCTYPE svg PUBLIC "-//W3C//DTD SVG 1.1//EN" "http://www.w3.org/Graphics/SVG/1.1/DTD/svg11.dtd">
<svg version="1.1" id="Layer_1" xmlns="http://www.w3.org/2000/svg" xmlns:xlink="http://www.w3.org/1999/xlink" x="0px" y="0px"
	 width="42px" height="42px" viewBox="0 0 42 42" style="enable-background:new 0 0 42 42;" xml:space="preserve">
<path style="fill:#FFFFFF;" d="M21,0C9.4,0,0,9.4,0,21s9.4,21,21,21c11.6,0,21-9.4,21-21S32.6,0,21,0z M21,40C10.5,40,2,31.5,2,21
	C2,10.5,10.5,2,21,2c10.5,0,19,8.5,19,19C40,31.5,31.5,40,21,40z"/>
<g>
	<path style="fill:#FFFFFF;" d="M14.4,24.5l1.4-1.4l-0.2-0.3c-0.8-0.8-0.9-2.2-0.1-2.9l4.4-4.3c0.8-0.8,2.1-0.7,2.9,0.1l0.5,0.5
		l1.4-1.4l-1.2-1.2c-1.2-1.2-3-1.3-4.1-0.2l-6.1,5.9c-1.1,1.1-1.1,2.9,0.1,4.1L14.4,24.5z"/>
	<path style="fill:#FFFFFF;" d="M27.5,17.7l-1.4,1.4l0,0c0.8,0.8,0.9,2.2,0.1,2.9l-4.4,4.3c-0.8,0.8-2.1,0.7-2.9-0.1L18.7,26
		l-1.4,1.4l0.9,0.9c1.2,1.2,3,1.3,4.1,0.2l6.1-5.9c1.1-1.1,1.1-2.9-0.1-4.1L27.5,17.7z"/>
</g>
<path style="fill:#FFFFFF;" d="M29.2,13.4c0.7,0.7,0.7,1.7,0.1,2.3l-5,4.8c-0.6,0.6-1.6,0.4-2.3-0.2l0,0c-0.7-0.7-0.7-1.7-0.1-2.3
	l5-4.8C27.5,12.5,28.5,12.7,29.2,13.4L29.2,13.4z"/>
<path style="fill:#FFFFFF;" d="M19.9,22.1c0.7,0.7,0.7,1.7,0.1,2.3l-5,4.8c-0.6,0.6-1.6,0.4-2.3-0.2l0,0c-0.7-0.7-0.7-1.7-0.1-2.3
	l5-4.8C18.3,21.3,19.3,21.4,19.9,22.1L19.9,22.1z"/>
</svg>
