<?xml version="1.0" encoding="utf-8"?>
<!-- Generator: Adobe Illustrator 16.0.0, SVG Export Plug-In . SVG Version: 6.00 Build 0)  -->
<!DOCTYPE svg PUBLIC "-//W3C//DTD SVG 1.1//EN" "http://www.w3.org/Graphics/SVG/1.1/DTD/svg11.dtd">
<svg version="1.1" id="Layer_1" xmlns="http://www.w3.org/2000/svg" xmlns:xlink="http://www.w3.org/1999/xlink" x="0px" y="0px"
	 width="42px" height="42px" viewBox="0 0 42 42" style="enable-background:new 0 0 42 42;" xml:space="preserve">
<path style="fill:#FFFFFF;" d="M21,0C9.4,0,0,9.4,0,21c0,11.6,9.4,21,21,21c11.6,0,21-9.4,21-21C42,9.4,32.6,0,21,0z M21,40
	C10.5,40,2,31.5,2,21C2,10.5,10.5,2,21,2c10.5,0,19,8.5,19,19C40,31.5,31.5,40,21,40z"/>
<g>
	<path style="fill:#FFFFFF;" d="M31.9,11.5H10.1c-0.2,0-0.4,0.2-0.4,0.4v18.1c0,0.2,0.2,0.4,0.4,0.4h21.7c0.2,0,0.4-0.2,0.4-0.4
		V11.9C32.2,11.7,32.1,11.5,31.9,11.5z M30.7,28.8c0,0.2-0.1,0.3-0.3,0.3H11.6c-0.2,0-0.3-0.1-0.3-0.3V13.2c0-0.2,0.1-0.3,0.3-0.3
		h18.8c0.2,0,0.3,0.1,0.3,0.3V28.8z"/>
	<polygon style="fill:#FFFFFF;" points="12.1,27.3 15.1,23.3 19.1,24.6 22.7,19.3 25.6,23.4 27.2,21.4 29,27.4 	"/>
	<circle style="fill:#FFFFFF;" cx="15.9" cy="17.9" r="2.8"/>
</g>
</svg>
