<?xml version="1.0" encoding="utf-8"?>
<!-- Generator: Adobe Illustrator 20.0.0, SVG Export Plug-In . SVG Version: 6.00 Build 0)  -->
<svg version="1.1" id="Layer_1" xmlns="http://www.w3.org/2000/svg" xmlns:xlink="http://www.w3.org/1999/xlink" x="0px" y="0px"
	 viewBox="0 0 139.1 139.1" enable-background="new 0 0 139.1 139.1" xml:space="preserve">
<circle fill="#F8F7F2" cx="-833.5" cy="1752.8" r="70"/>
<g>
	<path fill="#333333" d="M-783.8,1786.3c0,1.4-1.1,2.5-2.5,2.5h-95c-1.4,0-2.5-1.1-2.5-2.5v-62c0-1.4,1.1-2.5,2.5-2.5h95
		c1.4,0,2.5,1.1,2.5,2.5V1786.3z"/>
	<rect x="-877.8" y="1726.8" fill="#F9F9FA" width="87" height="55"/>
</g>
<g>
	<line fill="none" stroke="#C9C9C9" stroke-miterlimit="10" x1="-801.3" y1="1771.8" x2="-801.3" y2="1732.8"/>
	<rect x="-804.1" y="1722.6" fill="#F68938" width="5.1" height="58.3"/>
	<rect x="-804.1" y="1719.2" fill="#F8F6F2" width="5.1" height="3.5"/>
	<path fill="#5C5C5C" d="M-798.9,1709.4h-4.1c-0.6,0-1.2,0.7-1.2,1.5v8.2h5.2V1709.4z"/>
	<rect x="-799" y="1722.6" fill="#A91E23" width="5.1" height="58.3"/>
	<rect x="-799" y="1719.2" fill="#C2C1BF" width="5.1" height="3.5"/>
	<path fill="#111111" d="M-798.9,1709.4h3.9c0.6,0,1.1,0.7,1.1,1.5v8.2h-5.1V1709.4z"/>
	<polyline fill="#F4B26D" points="-798.9,1780.9 -804.1,1780.9 -801.3,1790.6 -799.1,1790.6 	"/>
	<polyline fill="#F5A657" points="-799.1,1790.6 -796.9,1790.6 -793.9,1780.9 -799,1780.9 	"/>
	<g>
		
			<linearGradient id="SVGID_1_" gradientUnits="userSpaceOnUse" x1="-3708.6799" y1="1379.8541" x2="-3708.6799" y2="1375.4537" gradientTransform="matrix(0 -1 1 0 -2176.7236 -1916.0703)">
			<stop  offset="0.5" style="stop-color:#37474F"/>
			<stop  offset="0.5" style="stop-color:#445B65"/>
		</linearGradient>
		<path fill="url(#SVGID_1_)" d="M-801.3,1790.6c0,0,0.5,1.3,1.1,2.9c0.6,1.6,1.6,1.6,2.2,0c0.6-1.6,1.1-2.9,1.1-2.9"/>
	</g>
</g>
<rect x="-823.8" y="1756.8" fill="#090705" width="7" height="3"/>
<rect x="-815.8" y="1756.8" fill="#090705" width="8" height="3"/>
<rect x="-832.8" y="1756.8" fill="#090705" width="8" height="3"/>
<rect x="-840.8" y="1731.8" fill="#3A3B3A" width="11" height="1"/>
<rect x="-843.8" y="1735.8" fill="#3A3B3A" width="11" height="2"/>
<rect x="-830.8" y="1735.8" fill="#3A3B3A" width="11" height="2"/>
<rect x="-817.8" y="1735.8" fill="#3A3B3A" width="11" height="2"/>
<path fill="#3A3B3A" d="M-841.4,1733.7c0.1,0.1,0.2,0.1,0.2,0.3c0,0.1-0.1,0.3-0.3,0.3c-0.1,0-0.2,0-0.2-0.1l-2-1.3
	c-0.1-0.1-0.2-0.1-0.2-0.3c0-0.1,0.1-0.2,0.2-0.3l2-1.3c0.1,0,0.1-0.1,0.2-0.1c0.1,0,0.3,0.1,0.3,0.3c0,0.1-0.1,0.2-0.2,0.3
	l-1.7,1.2L-841.4,1733.7z"/>
<path fill="#3A3B3A" d="M-826.3,1732.7l-1.7-1.2c-0.1-0.1-0.2-0.1-0.2-0.3c0-0.1,0.1-0.3,0.3-0.3c0.1,0,0.1,0,0.2,0.1l2,1.3
	c0.1,0.1,0.2,0.1,0.2,0.3c0,0.1-0.1,0.2-0.2,0.3l-2,1.3c-0.1,0-0.1,0.1-0.2,0.1c-0.1,0-0.3-0.1-0.3-0.3c0-0.1,0.1-0.2,0.2-0.3
	L-826.3,1732.7z"/>
<rect x="-840.8" y="1739.8" fill="#3A3B3A" width="11" height="2"/>
<path fill="#3A3B3A" d="M-841.4,1742.4c0.1,0.1,0.2,0.1,0.2,0.3c0,0.1-0.1,0.3-0.3,0.3c-0.1,0-0.2,0-0.2-0.1l-2-1.3
	c-0.1-0.1-0.2-0.1-0.2-0.3c0-0.1,0.1-0.2,0.2-0.3l2-1.3c0.1,0,0.1-0.1,0.2-0.1c0.1,0,0.3,0.1,0.3,0.3c0,0.1-0.1,0.2-0.2,0.3
	l-1.7,1.2L-841.4,1742.4z"/>
<path fill="#3A3B3A" d="M-826.3,1741.4l-1.7-1.2c-0.1-0.1-0.2-0.1-0.2-0.3c0-0.1,0.1-0.3,0.3-0.3c0.1,0,0.1,0,0.2,0.1l2,1.3
	c0.1,0.1,0.2,0.1,0.2,0.3c0,0.1-0.1,0.2-0.2,0.3l-2,1.3c-0.1,0-0.1,0.1-0.2,0.1c-0.1,0-0.3-0.1-0.3-0.3c0-0.1,0.1-0.2,0.2-0.3
	L-826.3,1741.4z"/>
<line fill="none" stroke="#010101" stroke-miterlimit="10" x1="-833.8" y1="1764.3" x2="-807.8" y2="1764.3"/>
<line fill="none" stroke="#010101" stroke-miterlimit="10" x1="-833.8" y1="1767.3" x2="-807.8" y2="1767.3"/>
<line fill="none" stroke="#010101" stroke-miterlimit="10" x1="-833.8" y1="1770.3" x2="-807.8" y2="1770.3"/>
<line fill="none" stroke="#010101" stroke-miterlimit="10" x1="-840.8" y1="1773.3" x2="-807.8" y2="1773.3"/>
<g>
	<rect x="-876.5" y="1760" fill="#333333" width="38.4" height="2.3"/>
	<rect x="-876.5" y="1758.3" fill="#333333" width="4.4" height="5.1"/>
	<g>
		<rect x="-861.2" y="1707.8" fill="#676766" width="6.6" height="11.4"/>
		<rect x="-860" y="1719.2" fill="#333333" width="4.1" height="3.4"/>
		<path fill="#8F8F8F" d="M-857.9,1722c-6.1,0-11,4.9-11,11c0,6.1,4.9,11,11,11c6.1,0,11-4.9,11-11
			C-846.9,1726.9-851.9,1722-857.9,1722z M-857.9,1741.9c-4.9,0-8.9-4-8.9-8.9c0-4.9,4-8.9,8.9-8.9c4.9,0,8.9,4,8.9,8.9
			C-849,1737.9-853,1741.9-857.9,1741.9z"/>
		
			<rect x="-889.7" y="1761.1" transform="matrix(0.2938 -0.9559 0.9559 0.2938 -2298.5837 415.691)" fill="#8F8F8F" width="43.4" height="4.5"/>
		
			<rect x="-849.5" y="1741.5" transform="matrix(0.9608 -0.2772 0.2772 0.9608 -521.9999 -165.7743)" fill="#8F8F8F" width="4.5" height="43.4"/>
		<polygon fill="#FDFEFF" points="-876.6,1794.7 -876.6,1794.7 -875.7,1783.1 -873.2,1783.9 		"/>
		<polygon fill="#FDFEFF" points="-839.1,1795 -839.1,1795 -840,1783.4 -842.5,1784.2 		"/>
		<rect x="-842.2" y="1758.7" fill="#333333" width="4.4" height="5.1"/>
		<path fill="#333333" d="M-854.9,1767.1c0,1.1-0.9,2.1-2.1,2.1l0,0c-1.1,0-2.1-0.9-2.1-2.1v-12.2c0-1.1,0.9-2.1,2.1-2.1l0,0
			c1.1,0,2.1,0.9,2.1,2.1V1767.1z"/>
	</g>
</g>
<g>
	<circle fill="#F8F7F2" cx="69.9" cy="69.8" r="70"/>
	<path fill="#333333" d="M122.2,106.6c0,1.3-1.3,2.2-2.7,2.2H23.5c-1.4,0-2.3-0.9-2.3-2.2V42.4c0-1.3,0.9-2.6,2.3-2.6h95.9
		c1.4,0,2.7,1.3,2.7,2.6V106.6z"/>
	<rect x="27.2" y="44.8" fill="#F9F9FA" width="88" height="56"/>
	<rect x="32.7" y="69.3" fill="#FBD737" width="77.7" height="6.8"/>
	<rect x="110.4" y="69.3" fill="#E5E5E5" width="4.6" height="6.8"/>
	<path fill="#D64527" d="M128,76.2v-5.4c0-0.9-0.9-1.6-2-1.6h-11v7H128z"/>
	<rect x="32.7" y="76.1" fill="#F8BF2B" width="77.7" height="6.8"/>
	<rect x="110.4" y="76.1" fill="#D2D2D2" width="4.6" height="6.8"/>
	<path fill="#BC3A26" d="M128,76.2v5.4c0,0.9-0.9,1.6-2,1.6h-11v-7H128z"/>
	<polyline fill="#F4B26D" points="32.7,76.2 32.7,69.3 19.8,73.1 19.8,76 	"/>
	<polyline fill="#F5A657" points="19.8,76 19.8,78.9 32.7,82.9 32.7,76.1 	"/>
	<g>
		
			<linearGradient id="SVGID_2_" gradientUnits="userSpaceOnUse" x1="-131.1024" y1="905.6328" x2="-131.1024" y2="899.7622" gradientTransform="matrix(1 0 0 1 148.146 -826.7012)">
			<stop  offset="0.5" style="stop-color:#37474F"/>
			<stop  offset="0.5" style="stop-color:#445B65"/>
		</linearGradient>
		<path fill="url(#SVGID_2_)" d="M19.8,73.1c0,0-1.7,0.7-3.8,1.5c-2.1,0.8-2.1,2.1,0,2.9c2.1,0.8,3.8,1.5,3.8,1.5"/>
	</g>
	<path fill="#FBD737" d="M80.7,52.4l0.2,47.5l23.7-23.8L80.7,52.4z M86.8,65.4l9,9l-9,9L86.8,65.4z"/>
	<line fill="none" stroke="#2D2E2D" stroke-width="0.5" stroke-miterlimit="10" x1="88.5" y1="92.2" x2="83.9" y2="87.6"/>
	<line fill="none" stroke="#2D2E2D" stroke-width="0.5" stroke-miterlimit="10" x1="85.1" y1="95.7" x2="82.8" y2="93.4"/>
	<line fill="none" stroke="#2D2E2D" stroke-width="0.5" stroke-miterlimit="10" x1="92.3" y1="88.4" x2="89.9" y2="86.1"/>
	<line fill="none" stroke="#2D2E2D" stroke-width="0.5" stroke-miterlimit="10" x1="95.8" y1="85" x2="94.6" y2="83.8"/>
	<line fill="none" stroke="#2D2E2D" stroke-width="0.5" stroke-miterlimit="10" x1="98.5" y1="82.2" x2="97.3" y2="81.1"/>
	<line fill="none" stroke="#2D2E2D" stroke-width="0.5" stroke-miterlimit="10" x1="101.5" y1="79.1" x2="99.2" y2="76.8"/>
	
		<ellipse transform="matrix(0.7072 -0.707 0.707 0.7072 -22.1299 66.6718)" fill="none" stroke="#353635" stroke-miterlimit="10" cx="69.4" cy="60.1" rx="24.3" ry="24.3"/>
	
		<rect x="49.1" y="40.1" transform="matrix(0.7073 -0.7069 0.7069 0.7073 -15.1114 49.2131)" fill="#FFFFFF" stroke="#353635" stroke-miterlimit="10" width="5.6" height="5.6"/>
	
		<rect x="84.2" y="74.5" transform="matrix(0.7072 -0.707 0.707 0.7072 -29.1504 84.1074)" fill="#FFFFFF" stroke="#353635" stroke-miterlimit="10" width="5.6" height="5.6"/>
	
		<rect x="49.1" y="74.5" transform="matrix(0.7073 -0.7069 0.7069 0.7073 -39.4275 59.2815)" fill="#FFFFFF" stroke="#353635" stroke-miterlimit="10" width="5.6" height="5.6"/>
	
		<rect x="39.1" y="32.5" transform="matrix(0.7072 -0.707 0.707 0.7072 -12.7058 39.9759)" fill="none" stroke="#353635" stroke-miterlimit="10" width="5.6" height="5.6"/>
	
		<rect x="89.6" y="32.5" transform="matrix(0.7072 -0.7071 0.7071 0.7072 2.0651 75.6447)" fill="none" stroke="#353635" stroke-miterlimit="10" width="5.6" height="5.6"/>
	<line fill="none" stroke="#353635" stroke-miterlimit="10" x1="45.2" y1="35.3" x2="89.2" y2="35.3"/>
	<rect x="62.8" y="61.5" fill="#7C7B7B" width="14.8" height="4.7"/>
	<rect x="64.4" y="66.2" fill="#3A3B3A" width="11.6" height="2.2"/>
	
		<linearGradient id="SVGID_3_" gradientUnits="userSpaceOnUse" x1="1004.6429" y1="2328.4248" x2="1019.1783" y2="2316.228" gradientTransform="matrix(0.7071 0.7071 -0.7071 0.7071 997.285 -2308.1509)">
		<stop  offset="0" style="stop-color:#E9E9E9"/>
		<stop  offset="0.463" style="stop-color:#BEBCC4"/>
		<stop  offset="1" style="stop-color:#BEBCC4"/>
	</linearGradient>
	<polyline fill="url(#SVGID_3_)" points="70.6,37 60.9,52.8 65.2,59.1 65.3,61.5 75.5,61.5 75.6,59.1 79.9,52.8 70.2,37 	"/>
	<line fill="none" stroke="#454546" stroke-width="0.5" stroke-miterlimit="10" x1="70.4" y1="38.7" x2="70.4" y2="52"/>
	
		<rect x="83.5" y="40.8" transform="matrix(0.7072 -0.707 0.707 0.7072 -5.5491 73.7406)" fill="#FFFFFF" stroke="#353635" stroke-miterlimit="10" width="5.6" height="5.6"/>
	
		<rect x="67.4" y="32.5" transform="matrix(0.7072 -0.707 0.707 0.7072 -4.4422 59.9313)" fill="#FFFFFF" stroke="#353635" stroke-miterlimit="10" width="5.6" height="5.6"/>
	<ellipse transform="matrix(0.7072 -0.707 0.707 0.7072 -16.1445 64.777)" fill="#3A3B3A" cx="70.1" cy="51.9" rx="1.8" ry="1.8"/>
	<path fill="#F26625" d="M33.9,88c0,0-6,0.2-5.7,9.7c0,0,2.4,8.2,15.7,6c-0.2,0.1,5.8-1,6.2-3.1l0.1-4.3c0,0-0.1-3.4-1.6-4.3l-5-3.4
		l-0.1-1c0,0-1-1.1-1.8-1.2l-0.1-0.8c0,0-0.5,1.1-1.7,1.8C39.8,87.4,36.8,89.9,33.9,88z"/>
	<path fill="#E3AF63" d="M41.5,85.5l0.2,0.4v2.2c0,0-3.3,3.7-5,3.7c0,0-1,0.8-1.8-3.5c0,0,3.3,0.3,4.3-1.2L41.5,85.5z"/>
	
		<radialGradient id="SVGID_4_" cx="39.7732" cy="79.9498" r="12.7008" gradientTransform="matrix(0.9998 0 0 1 -1.2284 0)" gradientUnits="userSpaceOnUse">
		<stop  offset="0" style="stop-color:#FFE6BF"/>
		<stop  offset="1" style="stop-color:#9E5E26"/>
	</radialGradient>
	<path fill="url(#SVGID_4_)" d="M32.5,79.2c0,0-0.8,8.9,2.5,9.5c0,0,3.6,1,6.5-3.2c0,0,1.4-2.2,1.4-2.9c0,0-0.1-1.1-1.4,0.4L41,82.8
		l0.2-1.2l0-0.7c0,0-1.6-1-1.5-1.4c0,0-1-1.6-2.5,0.3c0,0-1.2,0-0.9-0.6c0,0,0.3-0.9-1.4-0.4c0,0-1,1.4-1.2,0
		C33.6,78.8,33.1,77.8,32.5,79.2z"/>
	<path fill="#5A4B43" d="M33.4,79.6c0,0,0.6-1.6-1.1-0.4c0,0-1,1-0.6-0.6c0,0,2.2-2.4-0.1-2.1c0,0-1-0.5,1.2-0.8
		c0-0.2,3.5,0.2,3.6-2.2c0,0,0.3-1.2,1.3-0.1c0.2,0.1,1.2,1.3,3.1,0.2c0,0,1.1-0.7,0.9,0.8c0,0,0.2,0.4,0.8,0.3c0,0,3.4,3.1,0.7,8.4
		c0,0-1,2.5-1.5,2.5c0,0,1.9-3.4,0.6-2.9l-1,0.9l-0.5-0.2c0,0,0.5-1.8-0.2-2.3c0,0-1-0.1-1-1.2c-0.1,0.2-1.6-1.3-2.5,0.3
		c0,0-1.3,0.5-0.9-0.6c-0.1-0.2-0.9-1.2-1.9,0.1C34.2,79.5,33.9,80.4,33.4,79.6z"/>
	<path fill="none" stroke="#010101" d="M43.6,88.5c0,0-5.3,5.6-8.7,5.6c-0.1,0-3.8,0.2-0.6-6"/>
	<circle fill="#FFFFFF" cx="33.9" cy="94" r="0.5"/>
	<polygon fill="#FFFFFF" points="31.9,92.9 36.1,95.1 34.4,101.8 29.8,99.7 	"/>
	<g opacity="0.65">
		
			<image overflow="visible" width="310" height="344" xlink:href="702575D429732190.png"  transform="matrix(0.24 0 0 0.24 10.1032 56.1798)">
		</image>
	</g>
	<line fill="none" stroke="#544842" stroke-width="0.25" x1="32.2" y1="94.2" x2="34.9" y2="95.6"/>
	<line fill="none" stroke="#544842" stroke-width="0.25" x1="31.8" y1="95" x2="34.4" y2="96.4"/>
	<line fill="none" stroke="#544842" stroke-width="0.25" x1="31.4" y1="96.2" x2="34.1" y2="97.6"/>
	<line fill="none" stroke="#544842" stroke-width="0.25" x1="31.3" y1="98.1" x2="34" y2="99.5"/>
	<line fill="none" stroke="#544842" stroke-width="0.25" x1="30.8" y1="99.2" x2="33.5" y2="100.6"/>
</g>
</svg>
