<?xml version="1.0" encoding="utf-8"?>
<!-- Generator: Adobe Illustrator 20.0.0, SVG Export Plug-In . SVG Version: 6.00 Build 0)  -->
<svg version="1.1" id="Layer_1" xmlns="http://www.w3.org/2000/svg" xmlns:xlink="http://www.w3.org/1999/xlink" x="0px" y="0px"
	 viewBox="0 0 139.1 139.1" enable-background="new 0 0 139.1 139.1" xml:space="preserve">
<circle fill="#F8F7F2" cx="-833.5" cy="1752.8" r="70"/>
<g>
	<path fill="#333333" d="M-783.8,1786.3c0,1.4-1.1,2.5-2.5,2.5h-95c-1.4,0-2.5-1.1-2.5-2.5v-62c0-1.4,1.1-2.5,2.5-2.5h95
		c1.4,0,2.5,1.1,2.5,2.5V1786.3z"/>
	<rect x="-877.8" y="1726.8" fill="#F9F9FA" width="87" height="55"/>
</g>
<g>
	<line fill="none" stroke="#C9C9C9" stroke-miterlimit="10" x1="-801.3" y1="1771.8" x2="-801.3" y2="1732.8"/>
	<rect x="-804.1" y="1722.6" fill="#F68938" width="5.1" height="58.3"/>
	<rect x="-804.1" y="1719.2" fill="#F8F6F2" width="5.1" height="3.5"/>
	<path fill="#5C5C5C" d="M-798.9,1709.4h-4.1c-0.6,0-1.2,0.7-1.2,1.5v8.2h5.2V1709.4z"/>
	<rect x="-799" y="1722.6" fill="#A91E23" width="5.1" height="58.3"/>
	<rect x="-799" y="1719.2" fill="#C2C1BF" width="5.1" height="3.5"/>
	<path fill="#111111" d="M-798.9,1709.4h3.9c0.6,0,1.1,0.7,1.1,1.5v8.2h-5.1V1709.4z"/>
	<polyline fill="#F4B26D" points="-798.9,1780.9 -804.1,1780.9 -801.3,1790.6 -799.1,1790.6 	"/>
	<polyline fill="#F5A657" points="-799.1,1790.6 -796.9,1790.6 -793.9,1780.9 -799,1780.9 	"/>
	<g>
		
			<linearGradient id="SVGID_1_" gradientUnits="userSpaceOnUse" x1="-3708.6799" y1="1379.8541" x2="-3708.6799" y2="1375.4537" gradientTransform="matrix(0 -1 1 0 -2176.7236 -1916.0703)">
			<stop  offset="0.5" style="stop-color:#37474F"/>
			<stop  offset="0.5" style="stop-color:#445B65"/>
		</linearGradient>
		<path fill="url(#SVGID_1_)" d="M-801.3,1790.6c0,0,0.5,1.3,1.1,2.9c0.6,1.6,1.6,1.6,2.2,0c0.6-1.6,1.1-2.9,1.1-2.9"/>
	</g>
</g>
<rect x="-823.8" y="1756.8" fill="#090705" width="7" height="3"/>
<rect x="-815.8" y="1756.8" fill="#090705" width="8" height="3"/>
<rect x="-832.8" y="1756.8" fill="#090705" width="8" height="3"/>
<rect x="-840.8" y="1731.8" fill="#3A3B3A" width="11" height="1"/>
<rect x="-843.8" y="1735.8" fill="#3A3B3A" width="11" height="2"/>
<rect x="-830.8" y="1735.8" fill="#3A3B3A" width="11" height="2"/>
<rect x="-817.8" y="1735.8" fill="#3A3B3A" width="11" height="2"/>
<path fill="#3A3B3A" d="M-841.4,1733.7c0.1,0.1,0.2,0.1,0.2,0.3c0,0.1-0.1,0.3-0.3,0.3c-0.1,0-0.2,0-0.2-0.1l-2-1.3
	c-0.1-0.1-0.2-0.1-0.2-0.3c0-0.1,0.1-0.2,0.2-0.3l2-1.3c0.1,0,0.1-0.1,0.2-0.1c0.1,0,0.3,0.1,0.3,0.3c0,0.1-0.1,0.2-0.2,0.3
	l-1.7,1.2L-841.4,1733.7z"/>
<path fill="#3A3B3A" d="M-826.3,1732.7l-1.7-1.2c-0.1-0.1-0.2-0.1-0.2-0.3c0-0.1,0.1-0.3,0.3-0.3c0.1,0,0.1,0,0.2,0.1l2,1.3
	c0.1,0.1,0.2,0.1,0.2,0.3c0,0.1-0.1,0.2-0.2,0.3l-2,1.3c-0.1,0-0.1,0.1-0.2,0.1c-0.1,0-0.3-0.1-0.3-0.3c0-0.1,0.1-0.2,0.2-0.3
	L-826.3,1732.7z"/>
<rect x="-840.8" y="1739.8" fill="#3A3B3A" width="11" height="2"/>
<path fill="#3A3B3A" d="M-841.4,1742.4c0.1,0.1,0.2,0.1,0.2,0.3c0,0.1-0.1,0.3-0.3,0.3c-0.1,0-0.2,0-0.2-0.1l-2-1.3
	c-0.1-0.1-0.2-0.1-0.2-0.3c0-0.1,0.1-0.2,0.2-0.3l2-1.3c0.1,0,0.1-0.1,0.2-0.1c0.1,0,0.3,0.1,0.3,0.3c0,0.1-0.1,0.2-0.2,0.3
	l-1.7,1.2L-841.4,1742.4z"/>
<path fill="#3A3B3A" d="M-826.3,1741.4l-1.7-1.2c-0.1-0.1-0.2-0.1-0.2-0.3c0-0.1,0.1-0.3,0.3-0.3c0.1,0,0.1,0,0.2,0.1l2,1.3
	c0.1,0.1,0.2,0.1,0.2,0.3c0,0.1-0.1,0.2-0.2,0.3l-2,1.3c-0.1,0-0.1,0.1-0.2,0.1c-0.1,0-0.3-0.1-0.3-0.3c0-0.1,0.1-0.2,0.2-0.3
	L-826.3,1741.4z"/>
<line fill="none" stroke="#010101" stroke-miterlimit="10" x1="-833.8" y1="1764.3" x2="-807.8" y2="1764.3"/>
<line fill="none" stroke="#010101" stroke-miterlimit="10" x1="-833.8" y1="1767.3" x2="-807.8" y2="1767.3"/>
<line fill="none" stroke="#010101" stroke-miterlimit="10" x1="-833.8" y1="1770.3" x2="-807.8" y2="1770.3"/>
<line fill="none" stroke="#010101" stroke-miterlimit="10" x1="-840.8" y1="1773.3" x2="-807.8" y2="1773.3"/>
<g>
	<rect x="-876.5" y="1760" fill="#333333" width="38.4" height="2.3"/>
	<rect x="-876.5" y="1758.3" fill="#333333" width="4.4" height="5.1"/>
	<g>
		<rect x="-861.2" y="1707.8" fill="#676766" width="6.6" height="11.4"/>
		<rect x="-860" y="1719.2" fill="#333333" width="4.1" height="3.4"/>
		<path fill="#8F8F8F" d="M-857.9,1722c-6.1,0-11,4.9-11,11c0,6.1,4.9,11,11,11c6.1,0,11-4.9,11-11
			C-846.9,1726.9-851.9,1722-857.9,1722z M-857.9,1741.9c-4.9,0-8.9-4-8.9-8.9c0-4.9,4-8.9,8.9-8.9c4.9,0,8.9,4,8.9,8.9
			C-849,1737.9-853,1741.9-857.9,1741.9z"/>
		
			<rect x="-889.7" y="1761.1" transform="matrix(0.2938 -0.9559 0.9559 0.2938 -2298.5837 415.691)" fill="#8F8F8F" width="43.4" height="4.5"/>
		
			<rect x="-849.5" y="1741.5" transform="matrix(0.9608 -0.2772 0.2772 0.9608 -521.9999 -165.7743)" fill="#8F8F8F" width="4.5" height="43.4"/>
		<polygon fill="#FDFEFF" points="-876.6,1794.7 -876.6,1794.7 -875.7,1783.1 -873.2,1783.9 		"/>
		<polygon fill="#FDFEFF" points="-839.1,1795 -839.1,1795 -840,1783.4 -842.5,1784.2 		"/>
		<rect x="-842.2" y="1758.7" fill="#333333" width="4.4" height="5.1"/>
		<path fill="#333333" d="M-854.9,1767.1c0,1.1-0.9,2.1-2.1,2.1l0,0c-1.1,0-2.1-0.9-2.1-2.1v-12.2c0-1.1,0.9-2.1,2.1-2.1l0,0
			c1.1,0,2.1,0.9,2.1,2.1V1767.1z"/>
	</g>
</g>
<circle fill="#F8F7F2" cx="70" cy="69.8" r="69.6"/>
<path fill="#333333" d="M124.2,104.1c0,1.5-1.2,2.7-2.7,2.7H16.9c-1.5,0-2.7-1.2-2.7-2.7V35.6c0-1.5,1.2-2.7,2.7-2.7h104.5
	c1.5,0,2.7,1.2,2.7,2.7V104.1z"/>
<rect x="21.2" y="36.8" fill="#F9F9FA" width="95" height="61"/>
<rect x="83.2" y="60.8" transform="matrix(0.7073 -0.7069 0.7069 0.7073 -19.789 79.3464)" fill="#FFFFFF" stroke="#353635" stroke-width="2" stroke-miterlimit="10" width="5.5" height="5.5"/>
<rect x="38.7" y="19.5" transform="matrix(0.7071 -0.7071 0.7071 0.7071 -3.5651 35.7992)" fill="none" stroke="#353635" stroke-miterlimit="10" width="5.5" height="5.5"/>
<rect x="88.5" y="19.5" transform="matrix(0.707 -0.7072 0.7072 0.707 11.0244 71.0168)" fill="none" stroke="#353635" stroke-miterlimit="10" width="5.5" height="5.5"/>
<line fill="none" stroke="#353635" stroke-miterlimit="10" x1="45.2" y1="22.3" x2="88.2" y2="22.3"/>
<rect x="61.4" y="48" fill="#7C7B7B" width="14.6" height="4.6"/>
<rect x="63" y="52.6" fill="#3A3B3A" width="11.4" height="2.2"/>
<linearGradient id="SVGID_2_" gradientUnits="userSpaceOnUse" x1="994.2363" y1="2320.0176" x2="1008.5831" y2="2307.9792" gradientTransform="matrix(0.7071 0.7071 -0.7071 0.7071 997.285 -2308.1509)">
	<stop  offset="0" style="stop-color:#E9E9E9"/>
	<stop  offset="0.463" style="stop-color:#BEBCC4"/>
	<stop  offset="1" style="stop-color:#BEBCC4"/>
</linearGradient>
<polyline fill="url(#SVGID_2_)" points="69.1,23.8 59.5,39.4 63.8,45.7 63.8,48 73.9,48 74,45.7 78.3,39.4 68.7,23.8 "/>
<rect x="68.3" y="23.5" fill="none" stroke="#454546" stroke-width="0.5" stroke-miterlimit="10" width="1.9" height="2"/>
<line fill="none" stroke="#454546" stroke-width="0.5" stroke-miterlimit="10" x1="68.9" y1="25.5" x2="68.9" y2="38.7"/>
<rect x="66.6" y="19.5" transform="matrix(0.7071 -0.7071 0.7071 0.7071 4.5978 55.5064)" fill="#FFFFFF" stroke="#353635" stroke-miterlimit="10" width="5.5" height="5.5"/>
<ellipse transform="matrix(0.7072 -0.707 0.707 0.7072 -7.1022 59.9239)" fill="#3A3B3A" cx="68.8" cy="38.5" rx="1.8" ry="1.8"/>
<circle fill="none" stroke="#010101" stroke-miterlimit="10" cx="68.3" cy="68.5" r="44.4"/>
<linearGradient id="SVGID_3_" gradientUnits="userSpaceOnUse" x1="44.4482" y1="80.8721" x2="60.0654" y2="80.8721">
	<stop  offset="0" style="stop-color:#878787"/>
	<stop  offset="0.2485" style="stop-color:#E4E4E4"/>
	<stop  offset="0.5576" style="stop-color:#DADADA"/>
	<stop  offset="0.7818" style="stop-color:#7F7F7F"/>
	<stop  offset="1" style="stop-color:#ACACAC"/>
</linearGradient>
<path fill="url(#SVGID_3_)" d="M60.1,75.2v7.2c0,2.4-1.7,4.3-3.7,4.3h-8.2c-2,0-3.7-1.9-3.7-4.3v-7.2"/>
<linearGradient id="SVGID_4_" gradientUnits="userSpaceOnUse" x1="44.4092" y1="74.7226" x2="60.1045" y2="74.7226">
	<stop  offset="0" style="stop-color:#7F7F7F"/>
	<stop  offset="0.497" style="stop-color:#ADADAD"/>
	<stop  offset="1" style="stop-color:#ACACAC"/>
</linearGradient>
<ellipse fill="url(#SVGID_4_)" cx="52.3" cy="74.7" rx="7.8" ry="5.5"/>
<ellipse fill="#DB1685" cx="52.3" cy="74.7" rx="7.8" ry="5.5"/>
<linearGradient id="SVGID_5_" gradientUnits="userSpaceOnUse" x1="58.1412" y1="73.1221" x2="47.1105" y2="73.1221">
	<stop  offset="0" style="stop-color:#7F7F7F"/>
	<stop  offset="0.5394" style="stop-color:#C9C9C9"/>
	<stop  offset="1" style="stop-color:#ACACAC"/>
</linearGradient>
<path fill="url(#SVGID_5_)" d="M52.3,73.3c3.4,0,6.2,1.5,7.3,3.5c0.3-0.6,0.5-1.3,0.5-1.9c0-3-3.5-5.5-7.8-5.5
	c-4.3,0-7.8,2.5-7.8,5.5c0,0.7,0.2,1.3,0.5,1.9C46,74.8,48.9,73.3,52.3,73.3z"/>
<linearGradient id="SVGID_6_" gradientUnits="userSpaceOnUse" x1="52.2505" y1="80.1041" x2="52.1971" y2="89.3989">
	<stop  offset="0" style="stop-color:#878787"/>
	<stop  offset="0.5576" style="stop-color:#DADADA"/>
	<stop  offset="0.7818" style="stop-color:#7F7F7F"/>
	<stop  offset="1" style="stop-color:#ACACAC"/>
</linearGradient>
<path fill="url(#SVGID_6_)" d="M56.4,86.9h-8.2c-2.1,0-3.9-2-3.9-4.5v-7.2l0.4,0c0.4,2.7,3.7,4.8,7.6,4.8c4,0,7.2-2.1,7.6-4.8l0.4,0
	v7.2C60.2,84.9,58.5,86.9,56.4,86.9L56.4,86.9z M44.6,76.5l0,5.9c0,2.3,1.6,4.1,3.5,4.1h8.2c1.9,0,3.5-1.8,3.5-4.1v-5.9
	c-1.1,2.3-4.1,3.9-7.6,3.9C48.7,80.4,45.7,78.8,44.6,76.5L44.6,76.5z"/>
<linearGradient id="SVGID_7_" gradientUnits="userSpaceOnUse" x1="44.2275" y1="74.7217" x2="60.2871" y2="74.7217">
	<stop  offset="0" style="stop-color:#7F7F7F"/>
	<stop  offset="0.2485" style="stop-color:#262626"/>
	<stop  offset="0.4848" style="stop-color:#0B0B0B"/>
	<stop  offset="1" style="stop-color:#ACACAC"/>
</linearGradient>
<path fill="url(#SVGID_7_)" d="M52.3,80.4c-4.4,0-8-2.5-8-5.7c0-3.1,3.6-5.7,8-5.7s8,2.5,8,5.7C60.3,77.8,56.7,80.4,52.3,80.4
	L52.3,80.4z M52.3,69.4c-4.2,0-7.7,2.4-7.7,5.3c0,2.9,3.4,5.3,7.7,5.3c4.2,0,7.7-2.4,7.7-5.3C59.9,71.8,56.5,69.4,52.3,69.4
	L52.3,69.4z"/>
<linearGradient id="SVGID_8_" gradientUnits="userSpaceOnUse" x1="52.2568" y1="80.4277" x2="52.2568" y2="73.4573">
	<stop  offset="0" style="stop-color:#A7A7A7"/>
	<stop  offset="0.2485" style="stop-color:#676767"/>
	<stop  offset="0.4848" style="stop-color:#909090"/>
	<stop  offset="1" style="stop-color:#ACACAC"/>
</linearGradient>
<path fill="url(#SVGID_8_)" d="M59.5,76.5c-1,2.1-3.9,3.6-7.2,3.6c-3.4,0-6.2-1.5-7.2-3.6c-0.1,0.1-0.1,0.3-0.2,0.4
	c1.2,2.1,4.1,3.5,7.5,3.5c3.4,0,6.3-1.4,7.4-3.5C59.6,76.8,59.6,76.6,59.5,76.5z"/>
<path fill="#DB1685" d="M48,79.2c0,0,1.7,0.9,4.3,0.9l0.2,3.5c0,0-0.4,0.6-0.9,0c0.1,0.2-0.1-3.1-0.1-3.1s-0.5,0.3-1.3,0
	c0,0,0.2,1.7,0,1.7c0,0-0.6,0.6-0.7-0.3l-0.1-1.6l-1-0.5l-0.3,3.6c0,0-0.5,0.8-0.9-0.2l0.4-4.1L48,79.2z"/>
<path fill="#DB1685" d="M54.9,79.7c0,0-0.3,0-0.1,0.4l0.3,1.1c0,0,0.5,0.2,0.4-0.2L55.3,80c0,0,0,0.2,0.5-0.1l0.7,2
	c0,0,0.6,0.4,0.5-0.2l-0.8-2c0,0,0.1-0.4-0.2-0.4L54.9,79.7"/>
<path fill="#DB1685" d="M49.9,69.3l0.2,2.9c0,0,0.5,0.6,0.8-0.1l-0.4-2.8C50.6,69.2,50.5,69.1,49.9,69.3z"/>
<path fill="#149F49" d="M50.6,69.2c0,0,0.5-0.1,0.8-0.1c0.2,0,0.2,0,0.3,0c0,0,0,0.3,0,0.3s-0.7,0-0.9,0.1L50.6,69.2z"/>
<path fill="#DB1685" d="M51.1,69.5c0,0-0.2,1.6,0.5,1.5c0,0,0.3,0.3,0-1.6C51.6,69.4,51.1,69.2,51.1,69.5z"/>
<path fill="#DB1685" d="M55.5,69.5c0,0,0.5,0.1,0.7,0.2l-0.7,3.7c0,0-1,0.3-0.6-0.8L55.5,69.5z"/>
<path fill="#DB1685" d="M54.7,69.3c0,0-0.6,1.5,0,1.6c0.6,0.2,0.4-1.1,0.4-1.1l0.4-0.3L54.7,69.3z"/>
<path opacity="0.13" fill="#010101" d="M45.1,76.6c0,0,2-3.4,7.1-3.3c0,0,4.8-0.1,7.4,3.2l-0.7,1c0,0-6.2-5.8-13,0L45.1,76.6z"/>
<path fill="#149F49" d="M36.9,86.1L36,85.9c0,0-0.2,0.4-0.2,0.5c-0.1,0.1-0.4,0.5-0.6,0.5s-0.5,0.1-1.1,0c-0.6-0.1-0.5,0.7-0.5,0.7
	L33,88.3c0,0-0.5-0.3-0.7,0c-0.2,0.3-0.4-0.1-0.2,0.3c0.2,0.4,0.6,0.6,0.6,0.6s-1.1,0.2-0.7,0.5c0.5,0.3,0.8,0.2,1,0.5
	c0.3,0.3,0.8,0.2,0.8,0.2l0.2,1.1c0,0,0,0.1-0.2,0.4c-0.3,0.3-0.5-0.2-0.6,0.5c0,0.7-0.1,0.8,0.5,0.8c0.7,0,1.4,0,1.4,0
	s0.4-0.5,0.4,0c0,0.5-1.2,0.9-1.1,1.1c0.1,0.1,1.6,0.1,1.7,0c0.2-0.1,0.1-0.5,0.4-0.9c0.3-0.3,1-0.5,1.2-0.5c0.2,0,0.5-0.1,0.3,0.5
	c-0.2,0.7-0.4,0.7-0.5,1.1c-0.1,0.4-1,0.2-0.1,0.4c0.9,0.2,1,0.6,1.2-0.3c0.3-0.9,0.4-0.9,0.7-0.9c0.2,0,0.7-0.1,0.9,0
	c0.2,0.1,1-0.3,1-0.4c0-0.1,0.4-0.6,0-0.7C40.9,92.8,36.9,86.1,36.9,86.1z"/>
<linearGradient id="SVGID_9_" gradientUnits="userSpaceOnUse" x1="37.2061" y1="87.3486" x2="52.8232" y2="87.3486">
	<stop  offset="0" style="stop-color:#878787"/>
	<stop  offset="0.2485" style="stop-color:#E4E4E4"/>
	<stop  offset="0.5576" style="stop-color:#DADADA"/>
	<stop  offset="0.7818" style="stop-color:#7F7F7F"/>
	<stop  offset="1" style="stop-color:#ACACAC"/>
</linearGradient>
<path fill="url(#SVGID_9_)" d="M52.8,81.6v7.2c0,2.4-1.7,4.3-3.7,4.3h-8.2c-2,0-3.7-1.9-3.7-4.3v-7.2"/>
<linearGradient id="SVGID_10_" gradientUnits="userSpaceOnUse" x1="37.167" y1="81.1982" x2="52.8623" y2="81.1982">
	<stop  offset="0" style="stop-color:#7F7F7F"/>
	<stop  offset="0.497" style="stop-color:#ADADAD"/>
	<stop  offset="1" style="stop-color:#ACACAC"/>
</linearGradient>
<ellipse fill="url(#SVGID_10_)" cx="45" cy="81.2" rx="7.8" ry="5.5"/>
<ellipse fill="#149F49" cx="45" cy="81.2" rx="7.8" ry="5.5"/>
<linearGradient id="SVGID_11_" gradientUnits="userSpaceOnUse" x1="50.899" y1="79.5986" x2="39.8683" y2="79.5986">
	<stop  offset="0" style="stop-color:#7F7F7F"/>
	<stop  offset="0.5394" style="stop-color:#C9C9C9"/>
	<stop  offset="1" style="stop-color:#ACACAC"/>
</linearGradient>
<path fill="url(#SVGID_11_)" d="M45,79.8c3.4,0,6.2,1.5,7.3,3.5c0.3-0.6,0.5-1.3,0.5-1.9c0-3-3.5-5.5-7.8-5.5
	c-4.3,0-7.8,2.5-7.8,5.5c0,0.7,0.2,1.3,0.5,1.9C38.8,81.2,41.7,79.8,45,79.8z"/>
<linearGradient id="SVGID_12_" gradientUnits="userSpaceOnUse" x1="45.0073" y1="86.5807" x2="44.9539" y2="95.8755">
	<stop  offset="0" style="stop-color:#878787"/>
	<stop  offset="0.5576" style="stop-color:#DADADA"/>
	<stop  offset="0.7818" style="stop-color:#7F7F7F"/>
	<stop  offset="1" style="stop-color:#ACACAC"/>
</linearGradient>
<path fill="url(#SVGID_12_)" d="M49.1,93.4h-8.2c-2.1,0-3.9-2-3.9-4.5v-7.2l0.4,0c0.4,2.7,3.7,4.8,7.6,4.8c4,0,7.2-2.1,7.6-4.8
	l0.4,0V89C53,91.4,51.3,93.4,49.1,93.4L49.1,93.4z M37.4,83V89c0,2.3,1.6,4.1,3.5,4.1h8.2c1.9,0,3.5-1.8,3.5-4.1V83
	c-1.1,2.3-4.1,3.9-7.6,3.9C41.5,86.9,38.4,85.3,37.4,83L37.4,83z"/>
<linearGradient id="SVGID_13_" gradientUnits="userSpaceOnUse" x1="36.9854" y1="81.1992" x2="53.0439" y2="81.1992">
	<stop  offset="0" style="stop-color:#7F7F7F"/>
	<stop  offset="0.2485" style="stop-color:#262626"/>
	<stop  offset="0.4848" style="stop-color:#0B0B0B"/>
	<stop  offset="1" style="stop-color:#ACACAC"/>
</linearGradient>
<path fill="url(#SVGID_13_)" d="M45,86.9c-4.4,0-8-2.5-8-5.7c0-3.1,3.6-5.7,8-5.7c4.4,0,8,2.5,8,5.7C53,84.3,49.4,86.9,45,86.9
	L45,86.9z M45,75.9c-4.2,0-7.7,2.4-7.7,5.3c0,2.9,3.4,5.3,7.7,5.3c4.2,0,7.7-2.4,7.7-5.3C52.7,78.3,49.2,75.9,45,75.9L45,75.9z"/>
<linearGradient id="SVGID_14_" gradientUnits="userSpaceOnUse" x1="45.0137" y1="86.9043" x2="45.0137" y2="79.9339">
	<stop  offset="0" style="stop-color:#A7A7A7"/>
	<stop  offset="0.2485" style="stop-color:#676767"/>
	<stop  offset="0.4848" style="stop-color:#909090"/>
	<stop  offset="1" style="stop-color:#ACACAC"/>
</linearGradient>
<path fill="url(#SVGID_14_)" d="M52.3,83c-1,2.1-3.9,3.6-7.2,3.6c-3.4,0-6.2-1.5-7.2-3.6c-0.1,0.1-0.1,0.3-0.2,0.4
	c1.2,2.1,4.1,3.5,7.5,3.5c3.4,0,6.3-1.4,7.4-3.5C52.4,83.2,52.3,83.1,52.3,83z"/>
<path fill="#149F49" d="M40.8,85.6c0,0,1.7,0.9,4.3,0.9l0.2,3.5c0,0-0.4,0.6-0.9,0c0.1,0.2-0.1-3.1-0.1-3.1s-0.5,0.3-1.3,0
	c0,0,0.2,1.7,0,1.7c0,0-0.6,0.6-0.7-0.3l-0.1-1.6l-1-0.5l-0.3,3.6c0,0-0.5,0.8-0.9-0.2l0.4-4.1L40.8,85.6z"/>
<path fill="#149F49" d="M47.7,86.2c0,0-0.3,0-0.1,0.4l0.3,1.1c0,0,0.5,0.2,0.4-0.2l-0.2-1.1c0,0,0,0.2,0.5-0.1l0.7,2
	c0,0,0.6,0.4,0.5-0.2l-0.8-2c0,0,0.1-0.4-0.2-0.4L47.7,86.2"/>
<path fill="#149F49" d="M42.7,75.8l0.2,2.9c0,0,0.5,0.6,0.8-0.1l-0.4-2.8C43.4,75.7,43.3,75.6,42.7,75.8z"/>
<path fill="#149F49" d="M43.3,75.6c0,0,0.5-0.1,0.8-0.1c0.2,0,0.3,0,0.3,0c0,0,0,0.3,0,0.3s-0.7,0-0.9,0.1L43.3,75.6z"/>
<path fill="#149F49" d="M43.8,76c0,0-0.2,1.6,0.5,1.5c0,0,0.3,0.3,0-1.6C44.3,75.9,43.8,75.6,43.8,76z"/>
<path fill="#149F49" d="M48.3,76c0,0,0.5,0.1,0.7,0.2l-0.7,3.7c0,0-1,0.3-0.6-0.8L48.3,76z"/>
<path fill="#149F49" d="M47.4,75.8c0,0-0.6,1.5,0,1.6c0.6,0.2,0.4-1.1,0.4-1.1l0.4-0.3L47.4,75.8z"/>
<path opacity="0.13" fill="#010101" d="M37.8,83.1c0,0,2-3.4,7.1-3.3c0,0,4.8-0.1,7.4,3.2l-0.7,1c0,0-6.2-5.8-13,0L37.8,83.1z"/>
<path fill="none" stroke="#55B948" d="M34.6,86.2c0-0.2,0.5-0.3,0.7-0.4c0.1,0.4-0.2,0.6-0.6,0.5c0-0.2,0-0.3,0.1-0.4"/>
<path fill="none" stroke="#55B948" d="M37,93.6c-0.1,0.1-0.1,0.2-0.1,0.4c0.2,0,0.4-0.1,0.3-0.4c-0.1,0-0.1,0-0.1,0"/>
<linearGradient id="SVGID_15_" gradientUnits="userSpaceOnUse" x1="44.4482" y1="80.8721" x2="60.0654" y2="80.8721">
	<stop  offset="0" style="stop-color:#878787"/>
	<stop  offset="0.2485" style="stop-color:#E4E4E4"/>
	<stop  offset="0.5576" style="stop-color:#DADADA"/>
	<stop  offset="0.7818" style="stop-color:#7F7F7F"/>
	<stop  offset="1" style="stop-color:#ACACAC"/>
</linearGradient>
<path fill="url(#SVGID_15_)" d="M60.1,75.2v7.2c0,2.4-1.7,4.3-3.7,4.3h-8.2c-2,0-3.7-1.9-3.7-4.3v-7.2"/>
<linearGradient id="SVGID_16_" gradientUnits="userSpaceOnUse" x1="44.4092" y1="74.7226" x2="60.1045" y2="74.7226">
	<stop  offset="0" style="stop-color:#7F7F7F"/>
	<stop  offset="0.497" style="stop-color:#ADADAD"/>
	<stop  offset="1" style="stop-color:#ACACAC"/>
</linearGradient>
<ellipse fill="url(#SVGID_16_)" cx="52.3" cy="74.7" rx="7.8" ry="5.5"/>
<ellipse fill="#DB1685" cx="52.3" cy="74.7" rx="7.8" ry="5.5"/>
<linearGradient id="SVGID_17_" gradientUnits="userSpaceOnUse" x1="58.1412" y1="73.1221" x2="47.1105" y2="73.1221">
	<stop  offset="0" style="stop-color:#7F7F7F"/>
	<stop  offset="0.5394" style="stop-color:#C9C9C9"/>
	<stop  offset="1" style="stop-color:#ACACAC"/>
</linearGradient>
<path fill="url(#SVGID_17_)" d="M52.3,73.3c3.4,0,6.2,1.5,7.3,3.5c0.3-0.6,0.5-1.3,0.5-1.9c0-3-3.5-5.5-7.8-5.5
	c-4.3,0-7.8,2.5-7.8,5.5c0,0.7,0.2,1.3,0.5,1.9C46,74.8,48.9,73.3,52.3,73.3z"/>
<linearGradient id="SVGID_18_" gradientUnits="userSpaceOnUse" x1="52.2505" y1="80.1041" x2="52.1971" y2="89.3989">
	<stop  offset="0" style="stop-color:#878787"/>
	<stop  offset="0.5576" style="stop-color:#DADADA"/>
	<stop  offset="0.7818" style="stop-color:#7F7F7F"/>
	<stop  offset="1" style="stop-color:#ACACAC"/>
</linearGradient>
<path fill="url(#SVGID_18_)" d="M56.4,86.9h-8.2c-2.1,0-3.9-2-3.9-4.5v-7.2l0.4,0c0.4,2.7,3.7,4.8,7.6,4.8c4,0,7.2-2.1,7.6-4.8
	l0.4,0v7.2C60.2,84.9,58.5,86.9,56.4,86.9L56.4,86.9z M44.6,76.5l0,5.9c0,2.3,1.6,4.1,3.5,4.1h8.2c1.9,0,3.5-1.8,3.5-4.1v-5.9
	c-1.1,2.3-4.1,3.9-7.6,3.9C48.7,80.4,45.7,78.8,44.6,76.5L44.6,76.5z"/>
<linearGradient id="SVGID_19_" gradientUnits="userSpaceOnUse" x1="44.2275" y1="74.7217" x2="60.2871" y2="74.7217">
	<stop  offset="0" style="stop-color:#7F7F7F"/>
	<stop  offset="0.2485" style="stop-color:#262626"/>
	<stop  offset="0.4848" style="stop-color:#0B0B0B"/>
	<stop  offset="1" style="stop-color:#ACACAC"/>
</linearGradient>
<path fill="url(#SVGID_19_)" d="M52.3,80.4c-4.4,0-8-2.5-8-5.7c0-3.1,3.6-5.7,8-5.7s8,2.5,8,5.7C60.3,77.8,56.7,80.4,52.3,80.4
	L52.3,80.4z M52.3,69.4c-4.2,0-7.7,2.4-7.7,5.3c0,2.9,3.4,5.3,7.7,5.3c4.2,0,7.7-2.4,7.7-5.3C59.9,71.8,56.5,69.4,52.3,69.4
	L52.3,69.4z"/>
<linearGradient id="SVGID_20_" gradientUnits="userSpaceOnUse" x1="52.2568" y1="80.4277" x2="52.2568" y2="73.4573">
	<stop  offset="0" style="stop-color:#A7A7A7"/>
	<stop  offset="0.2485" style="stop-color:#676767"/>
	<stop  offset="0.4848" style="stop-color:#909090"/>
	<stop  offset="1" style="stop-color:#ACACAC"/>
</linearGradient>
<path fill="url(#SVGID_20_)" d="M59.5,76.5c-1,2.1-3.9,3.6-7.2,3.6c-3.4,0-6.2-1.5-7.2-3.6c-0.1,0.1-0.1,0.3-0.2,0.4
	c1.2,2.1,4.1,3.5,7.5,3.5c3.4,0,6.3-1.4,7.4-3.5C59.6,76.8,59.6,76.6,59.5,76.5z"/>
<path fill="#DB1685" d="M48,79.2c0,0,1.7,0.9,4.3,0.9l0.2,3.5c0,0-0.4,0.6-0.9,0c0.1,0.2-0.1-3.1-0.1-3.1s-0.5,0.3-1.3,0
	c0,0,0.2,1.7,0,1.7c0,0-0.6,0.6-0.7-0.3l-0.1-1.6l-1-0.5l-0.3,3.6c0,0-0.5,0.8-0.9-0.2l0.4-4.1L48,79.2z"/>
<path fill="#DB1685" d="M54.9,79.7c0,0-0.3,0-0.1,0.4l0.3,1.1c0,0,0.5,0.2,0.4-0.2L55.3,80c0,0,0,0.2,0.5-0.1l0.7,2
	c0,0,0.6,0.4,0.5-0.2l-0.8-2c0,0,0.1-0.4-0.2-0.4L54.9,79.7"/>
<path fill="#DB1685" d="M49.9,69.3l0.2,2.9c0,0,0.5,0.6,0.8-0.1l-0.4-2.8C50.6,69.2,50.5,69.1,49.9,69.3z"/>
<path fill="#149F49" d="M50.6,69.2c0,0,0.5-0.1,0.8-0.1c0.2,0,0.2,0,0.3,0c0,0,0,0.3,0,0.3s-0.7,0-0.9,0.1L50.6,69.2z"/>
<path fill="#DB1685" d="M51.1,69.5c0,0-0.2,1.6,0.5,1.5c0,0,0.3,0.3,0-1.6C51.6,69.4,51.1,69.2,51.1,69.5z"/>
<path fill="#DB1685" d="M55.5,69.5c0,0,0.5,0.1,0.7,0.2l-0.7,3.7c0,0-1,0.3-0.6-0.8L55.5,69.5z"/>
<path fill="#DB1685" d="M54.7,69.3c0,0-0.6,1.5,0,1.6c0.6,0.2,0.4-1.1,0.4-1.1l0.4-0.3L54.7,69.3z"/>
<path opacity="0.13" fill="#010101" d="M45.1,76.6c0,0,2-3.4,7.1-3.3c0,0,4.8-0.1,7.4,3.2l-0.7,1c0,0-6.2-5.8-13,0L45.1,76.6z"/>
<path fill="#149F49" d="M36.9,86.1L36,85.9c0,0-0.2,0.4-0.2,0.5c-0.1,0.1-0.4,0.5-0.6,0.5s-0.5,0.1-1.1,0c-0.6-0.1-0.5,0.7-0.5,0.7
	L33,88.3c0,0-0.5-0.3-0.7,0c-0.2,0.3-0.4-0.1-0.2,0.3c0.2,0.4,0.6,0.6,0.6,0.6s-1.1,0.2-0.7,0.5c0.5,0.3,0.8,0.2,1,0.5
	c0.3,0.3,0.8,0.2,0.8,0.2l0.2,1.1c0,0,0,0.1-0.2,0.4c-0.3,0.3-0.5-0.2-0.6,0.5c0,0.7-0.1,0.8,0.5,0.8c0.7,0,1.4,0,1.4,0
	s0.4-0.5,0.4,0c0,0.5-1.2,0.9-1.1,1.1c0.1,0.1,1.6,0.1,1.7,0c0.2-0.1,0.1-0.5,0.4-0.9c0.3-0.3,1-0.5,1.2-0.5c0.2,0,0.5-0.1,0.3,0.5
	c-0.2,0.7-0.4,0.7-0.5,1.1c-0.1,0.4-1,0.2-0.1,0.4c0.9,0.2,1,0.6,1.2-0.3c0.3-0.9,0.4-0.9,0.7-0.9c0.2,0,0.7-0.1,0.9,0
	c0.2,0.1,1-0.3,1-0.4c0-0.1,0.4-0.6,0-0.7C40.9,92.8,36.9,86.1,36.9,86.1z"/>
<linearGradient id="SVGID_21_" gradientUnits="userSpaceOnUse" x1="37.2061" y1="87.3486" x2="52.8232" y2="87.3486">
	<stop  offset="0" style="stop-color:#878787"/>
	<stop  offset="0.2485" style="stop-color:#E4E4E4"/>
	<stop  offset="0.5576" style="stop-color:#DADADA"/>
	<stop  offset="0.7818" style="stop-color:#7F7F7F"/>
	<stop  offset="1" style="stop-color:#ACACAC"/>
</linearGradient>
<path fill="url(#SVGID_21_)" d="M52.8,81.6v7.2c0,2.4-1.7,4.3-3.7,4.3h-8.2c-2,0-3.7-1.9-3.7-4.3v-7.2"/>
<linearGradient id="SVGID_22_" gradientUnits="userSpaceOnUse" x1="37.167" y1="81.1982" x2="52.8623" y2="81.1982">
	<stop  offset="0" style="stop-color:#7F7F7F"/>
	<stop  offset="0.497" style="stop-color:#ADADAD"/>
	<stop  offset="1" style="stop-color:#ACACAC"/>
</linearGradient>
<ellipse fill="url(#SVGID_22_)" cx="45" cy="81.2" rx="7.8" ry="5.5"/>
<ellipse fill="#149F49" cx="45" cy="81.2" rx="7.8" ry="5.5"/>
<linearGradient id="SVGID_23_" gradientUnits="userSpaceOnUse" x1="50.899" y1="79.5986" x2="39.8683" y2="79.5986">
	<stop  offset="0" style="stop-color:#7F7F7F"/>
	<stop  offset="0.5394" style="stop-color:#C9C9C9"/>
	<stop  offset="1" style="stop-color:#ACACAC"/>
</linearGradient>
<path fill="url(#SVGID_23_)" d="M45,79.8c3.4,0,6.2,1.5,7.3,3.5c0.3-0.6,0.5-1.3,0.5-1.9c0-3-3.5-5.5-7.8-5.5
	c-4.3,0-7.8,2.5-7.8,5.5c0,0.7,0.2,1.3,0.5,1.9C38.8,81.2,41.7,79.8,45,79.8z"/>
<linearGradient id="SVGID_24_" gradientUnits="userSpaceOnUse" x1="45.0073" y1="86.5807" x2="44.9539" y2="95.8755">
	<stop  offset="0" style="stop-color:#878787"/>
	<stop  offset="0.5576" style="stop-color:#DADADA"/>
	<stop  offset="0.7818" style="stop-color:#7F7F7F"/>
	<stop  offset="1" style="stop-color:#ACACAC"/>
</linearGradient>
<path fill="url(#SVGID_24_)" d="M49.1,93.4h-8.2c-2.1,0-3.9-2-3.9-4.5v-7.2l0.4,0c0.4,2.7,3.7,4.8,7.6,4.8c4,0,7.2-2.1,7.6-4.8
	l0.4,0V89C53,91.4,51.3,93.4,49.1,93.4L49.1,93.4z M37.4,83V89c0,2.3,1.6,4.1,3.5,4.1h8.2c1.9,0,3.5-1.8,3.5-4.1V83
	c-1.1,2.3-4.1,3.9-7.6,3.9C41.5,86.9,38.4,85.3,37.4,83L37.4,83z"/>
<linearGradient id="SVGID_25_" gradientUnits="userSpaceOnUse" x1="36.9854" y1="81.1992" x2="53.0439" y2="81.1992">
	<stop  offset="0" style="stop-color:#7F7F7F"/>
	<stop  offset="0.2485" style="stop-color:#262626"/>
	<stop  offset="0.4848" style="stop-color:#0B0B0B"/>
	<stop  offset="1" style="stop-color:#ACACAC"/>
</linearGradient>
<path fill="url(#SVGID_25_)" d="M45,86.9c-4.4,0-8-2.5-8-5.7c0-3.1,3.6-5.7,8-5.7c4.4,0,8,2.5,8,5.7C53,84.3,49.4,86.9,45,86.9
	L45,86.9z M45,75.9c-4.2,0-7.7,2.4-7.7,5.3c0,2.9,3.4,5.3,7.7,5.3c4.2,0,7.7-2.4,7.7-5.3C52.7,78.3,49.2,75.9,45,75.9L45,75.9z"/>
<linearGradient id="SVGID_26_" gradientUnits="userSpaceOnUse" x1="45.0137" y1="86.9043" x2="45.0137" y2="79.9339">
	<stop  offset="0" style="stop-color:#A7A7A7"/>
	<stop  offset="0.2485" style="stop-color:#676767"/>
	<stop  offset="0.4848" style="stop-color:#909090"/>
	<stop  offset="1" style="stop-color:#ACACAC"/>
</linearGradient>
<path fill="url(#SVGID_26_)" d="M52.3,83c-1,2.1-3.9,3.6-7.2,3.6c-3.4,0-6.2-1.5-7.2-3.6c-0.1,0.1-0.1,0.3-0.2,0.4
	c1.2,2.1,4.1,3.5,7.5,3.5c3.4,0,6.3-1.4,7.4-3.5C52.4,83.2,52.3,83.1,52.3,83z"/>
<path fill="#149F49" d="M40.8,85.6c0,0,1.7,0.9,4.3,0.9l0.2,3.5c0,0-0.4,0.6-0.9,0c0.1,0.2-0.1-3.1-0.1-3.1s-0.5,0.3-1.3,0
	c0,0,0.2,1.7,0,1.7c0,0-0.6,0.6-0.7-0.3l-0.1-1.6l-1-0.5l-0.3,3.6c0,0-0.5,0.8-0.9-0.2l0.4-4.1L40.8,85.6z"/>
<path fill="#149F49" d="M47.7,86.2c0,0-0.3,0-0.1,0.4l0.3,1.1c0,0,0.5,0.2,0.4-0.2l-0.2-1.1c0,0,0,0.2,0.5-0.1l0.7,2
	c0,0,0.6,0.4,0.5-0.2l-0.8-2c0,0,0.1-0.4-0.2-0.4L47.7,86.2"/>
<path fill="#149F49" d="M42.7,75.8l0.2,2.9c0,0,0.5,0.6,0.8-0.1l-0.4-2.8C43.4,75.7,43.3,75.6,42.7,75.8z"/>
<path fill="#149F49" d="M43.3,75.6c0,0,0.5-0.1,0.8-0.1c0.2,0,0.3,0,0.3,0c0,0,0,0.3,0,0.3s-0.7,0-0.9,0.1L43.3,75.6z"/>
<path fill="#149F49" d="M43.8,76c0,0-0.2,1.6,0.5,1.5c0,0,0.3,0.3,0-1.6C44.3,75.9,43.8,75.6,43.8,76z"/>
<path fill="#149F49" d="M48.3,76c0,0,0.5,0.1,0.7,0.2l-0.7,3.7c0,0-1,0.3-0.6-0.8L48.3,76z"/>
<path fill="#149F49" d="M47.4,75.8c0,0-0.6,1.5,0,1.6c0.6,0.2,0.4-1.1,0.4-1.1l0.4-0.3L47.4,75.8z"/>
<path opacity="0.13" fill="#010101" d="M37.8,83.1c0,0,2-3.4,7.1-3.3c0,0,4.8-0.1,7.4,3.2l-0.7,1c0,0-6.2-5.8-13,0L37.8,83.1z"/>
<path fill="none" stroke="#55B948" d="M34.6,86.2c0-0.2,0.5-0.3,0.7-0.4c0.1,0.4-0.2,0.6-0.6,0.5c0-0.2,0-0.3,0.1-0.4"/>
<path fill="none" stroke="#55B948" d="M37,93.6c-0.1,0.1-0.1,0.2-0.1,0.4c0.2,0,0.4-0.1,0.3-0.4c-0.1,0-0.1,0-0.1,0"/>
<path fill="#149F49" d="M44.6,48.2c0,0-1.6-0.4-1-5.9c0.1-1.7-1.6-4.2-2.2-4.8C40.8,37,43.9,39,43.9,39l-0.8-2.2
	c0,0,6.6,5.6,8.3,6.7c0,0-1,0.3-2.2-0.8c0,0-1.2,0.6,1.3,3.3c0,0,0,0.4-0.4,0c0,0-2.6-2.4-3.1-1.7c0,0-0.7,0.5,0.2,2.7
	c0,0,0,0.4-0.4,0c0,0-1-1.7-1.6-1.7C45.3,45.6,44.2,45.5,44.6,48.2z"/>
<path fill="#010101" d="M44.6,48.2c0,0,0.3,4.3,6.7,5.9c0,0,1.9,0.7,3-1.9c0,0,1.3-5.2-3-8.6c0,0-0.6,0.4-2.2-0.8
	c0,0-1.2,0.7,1.3,3.3c0,0,0,0.4-0.3,0.1c0,0-2.6-2.5-3.2-1.7c-0.1,0.1-0.7,0.7,0.2,2.7c0,0,0.1,0.3-0.4,0c0,0-1.8-3.2-2.3-0.8
	C44.6,46.5,44.3,47,44.6,48.2z"/>
<linearGradient id="SVGID_27_" gradientUnits="userSpaceOnUse" x1="54.6797" y1="63.2013" x2="61.9645" y2="58.9954">
	<stop  offset="0" style="stop-color:#929292"/>
	<stop  offset="0.1394" style="stop-color:#F0F0F0"/>
	<stop  offset="0.297" style="stop-color:#767676"/>
	<stop  offset="0.5636" style="stop-color:#E6E6E6"/>
	<stop  offset="0.9818" style="stop-color:#9F9F9F"/>
</linearGradient>
<path fill="url(#SVGID_27_)" d="M51.4,54.5l7.6,16.1c0,0,6.1,0.5,7.1-4.6L54.6,51.7C54.6,51.7,54.6,53.6,51.4,54.5z"/>
<linearGradient id="SVGID_28_" gradientUnits="userSpaceOnUse" x1="68.8593" y1="87.7612" x2="76.1441" y2="83.5552">
	<stop  offset="0" style="stop-color:#BC7E2B"/>
	<stop  offset="0.5636" style="stop-color:#FBC13E"/>
	<stop  offset="0.7758" style="stop-color:#DB8827"/>
</linearGradient>
<path fill="url(#SVGID_28_)" d="M58.9,70.6l22.4,32.2c0,0,2.3,1.3,2.8-1.6L66,66C66,66,65.4,70.7,58.9,70.6z"/>
<path fill="#919395" d="M54.5,59.9c-0.4,0-0.7,0-0.7,0l0.1-0.3c0.1,0,3.4,0.6,4.7-2.8l0.3,0.1C57.9,59.6,55.6,59.9,54.5,59.9
	L54.5,59.9z"/>
<path fill="#FFFFFF" d="M54.6,60.1c-0.4,0-0.7,0-0.7,0l0.1-0.3c0.1,0,3.4,0.6,4.7-2.8l0.3,0.1C58,59.8,55.8,60.1,54.6,60.1
	L54.6,60.1z"/>
<path fill="#919395" d="M56.2,63c-0.5,0-0.7-0.1-0.8-0.1l0.1-0.4c0.2,0,3.8,0.7,5.1-3l0.3,0.1C59.9,62.6,57.4,63,56.2,63L56.2,63z"
	/>
<path fill="#FFFFFF" d="M56.3,63.2c-0.5,0-0.7-0.1-0.8-0.1l0.1-0.3c0.2,0,3.8,0.7,5.1-3l0.3,0.1C60,62.8,57.6,63.2,56.3,63.2
	L56.3,63.2z"/>
<path fill="#919395" d="M58.4,67.5c-0.5,0-0.9-0.1-0.9-0.1l0.1-0.4c0.2,0,4.6,0.8,6.2-3.5l0.4,0.1C62.9,67.1,59.9,67.5,58.4,67.5
	L58.4,67.5z"/>
<path fill="#FFFFFF" d="M58.5,67.7c-0.5,0-0.9-0.1-0.9-0.1l0.1-0.4c0.2,0,4.6,0.8,6.2-3.5l0.4,0.1C63.1,67.3,60.1,67.7,58.5,67.7
	L58.5,67.7z"/>
<path opacity="0.76" fill="#FFFFFF" d="M51.4,53.5c0,0-5.5-2-5.8-6c0,0,1.2,3.5,5.8,5.7"/>
<path opacity="0.76" fill="#FFFFFF" d="M48,46.5c0,0-2.2,5,4.7,6.4C52.7,52.9,47.8,49.9,48,46.5z"/>
<path fill="#FFFFFF" d="M51.4,43.9c0,0,2.2,2.6,3.2,7.5C54.6,51.7,52,44.3,51.4,43.9z"/>
<path opacity="0.76" fill="#FFFFFF" d="M50.2,44.5c0,0,3.1,4.3,2.8,7.7C53,51.8,50.2,44.5,50.2,44.5z"/>
<linearGradient id="SVGID_29_" gradientUnits="userSpaceOnUse" x1="-1579.955" y1="1473.171" x2="-1568.2271" y2="1468.4326" gradientTransform="matrix(0.5049 0.8632 -0.8632 0.5049 2146.0781 683.5155)">
	<stop  offset="0" style="stop-color:#929292"/>
	<stop  offset="0.1394" style="stop-color:#F0F0F0"/>
	<stop  offset="0.297" style="stop-color:#767676"/>
	<stop  offset="0.5636" style="stop-color:#E6E6E6"/>
	<stop  offset="0.9818" style="stop-color:#9F9F9F"/>
</linearGradient>
<path fill="url(#SVGID_29_)" d="M82.4,56.2c0,0-4.7,6.4-5,7.6c0,0-0.9-0.8-1.6,2.2c0,0-1.4-0.4-1.4,2.4c0,0-1-1.1-1.9,1.4
	c0,0,1.7,5.8,7.8,6.7c0,0,2.6-2.1,1.3-2.1c0,0,2.9-1.3,2.1-1.9c0,0,2.4-1.5,1.6-1.7l6.8-6.5C92.1,64.3,83.9,58.5,82.4,56.2z"/>
<linearGradient id="SVGID_30_" gradientUnits="userSpaceOnUse" x1="-1557.863" y1="1427.4698" x2="-1548.0851" y2="1424.2927" gradientTransform="matrix(0.5359 0.8443 -0.8443 0.5359 2100.1736 635.4681)">
	<stop  offset="0" style="stop-color:#BC7E2B"/>
	<stop  offset="0.5636" style="stop-color:#FBC13E"/>
	<stop  offset="0.7758" style="stop-color:#DB8827"/>
</linearGradient>
<path fill="url(#SVGID_30_)" d="M72.6,70l-22.8,31c0,0,0.9,4.2,4.8,3.3l26-27.9C80.6,76.4,75.2,76.2,72.6,70z"/>
<path fill="#030303" d="M92.2,45.1c0,0-8.6,7-9.4,11.3c0,0,7.7,6.9,9.6,7.5c0,0,7.8-7.9,8.3-11.3l-1-0.6l0.2-0.7l-0.8,0l-0.4-0.4
	l-0.2-0.2l-0.4-0.5c0,0-0.8,0.4-1,0.2c-0.2-0.2-0.4-0.4-0.4-0.6c0-0.2,0-0.2,0-0.2s-0.1-0.6-0.3-0.7c-0.2-0.1,0.4,0-0.2-0.1
	c-0.6-0.1-1-0.6-1-0.6s0.2-0.1-0.1-0.2c-0.2-0.1-0.4,0.4-0.6-0.2c-0.3-0.6-0.2-0.3-0.3-0.6C94.2,47,94.2,47,94.2,47l-0.4-0.3
	l-0.2-0.8l-0.3-0.2c0,0,0,0.2-0.3-0.1c-0.3-0.3-0.3-0.3-0.3-0.3L92.2,45.1z"/>
<path fill="none" stroke="#010101" d="M92.7,63.7c0.1,0.5-0.5,0.3-0.5,0.3c-12.6-8.8-9.2-8-9.2-8"/>
<path fill="#ACACAC" d="M78.1,65.3c-0.5-0.9-0.8-1.5-0.8-1.5l0.2-0.1c0,0.1,2.4,6.1,7.9,6.9l0,0.2C81.5,70.2,79.2,67.2,78.1,65.3
	L78.1,65.3z"/>
<linearGradient id="SVGID_31_" gradientUnits="userSpaceOnUse" x1="-1574.0988" y1="1472.0306" x2="-1572.8281" y2="1476.014" gradientTransform="matrix(0.5049 0.8632 -0.8632 0.5049 2146.0781 683.5155)">
	<stop  offset="0" style="stop-color:#FFFFFF"/>
	<stop  offset="0.5879" style="stop-color:#000000"/>
	<stop  offset="1" style="stop-color:#FFFFFF"/>
</linearGradient>
<path fill="url(#SVGID_31_)" d="M77.9,65.4c-0.5-0.9-0.8-1.5-0.8-1.5l0.2-0.1c0,0.1,2.4,6.1,7.9,6.9l0,0.2
	C81.4,70.3,79,67.3,77.9,65.4L77.9,65.4z"/>
<path fill="#ACACAC" d="M76.6,67.2c-0.5-0.9-0.8-1.5-0.8-1.5l0.2-0.1c0,0.1,2.4,6.1,7.9,6.9l0,0.2C80.1,72.2,77.7,69.1,76.6,67.2
	L76.6,67.2z"/>
<linearGradient id="SVGID_32_" gradientUnits="userSpaceOnUse" x1="-1573.1843" y1="1474.287" x2="-1571.9159" y2="1478.2637" gradientTransform="matrix(0.5049 0.8632 -0.8632 0.5049 2146.0781 683.5155)">
	<stop  offset="0" style="stop-color:#FFFFFF"/>
	<stop  offset="0.5879" style="stop-color:#000000"/>
	<stop  offset="1" style="stop-color:#FFFFFF"/>
</linearGradient>
<path fill="url(#SVGID_32_)" d="M76.5,67.3c-0.5-0.9-0.8-1.5-0.8-1.5l0.2-0.1c0,0.1,2.4,6.1,7.9,6.9l0,0.2
	C79.9,72.2,77.6,69.2,76.5,67.3L76.5,67.3z"/>
<path fill="#ACACAC" d="M75.2,69.4c-0.5-0.8-0.7-1.4-0.7-1.4l0.2-0.1c0,0.1,2.2,5.7,7.5,6.3l0,0.2C78.4,74,76.2,71.2,75.2,69.4
	L75.2,69.4z"/>
<linearGradient id="SVGID_33_" gradientUnits="userSpaceOnUse" x1="-1572.2811" y1="1476.6075" x2="-1570.939" y2="1480.8153" gradientTransform="matrix(0.5049 0.8632 -0.8632 0.5049 2146.0781 683.5155)">
	<stop  offset="0" style="stop-color:#FFFFFF"/>
	<stop  offset="0.5879" style="stop-color:#000000"/>
	<stop  offset="1" style="stop-color:#FFFFFF"/>
</linearGradient>
<path fill="url(#SVGID_33_)" d="M75,69.5c-0.5-0.8-0.7-1.4-0.7-1.4l0.2-0.1c0,0.1,2.2,5.7,7.5,6.3l0,0.2C78.2,74.1,76,71.2,75,69.5
	L75,69.5z"/>
<rect x="19.7" y="65.3" fill="#B3529F" stroke="#010101" stroke-miterlimit="10" width="8" height="8"/>
<rect x="65.2" y="18.6" transform="matrix(0.6868 -0.7268 0.7268 0.6868 5.4561 56.8631)" fill="#FCEE23" stroke="#010101" stroke-miterlimit="10" width="7" height="7"/>
<rect x="108.7" y="65.3" fill="#3E4DA1" stroke="#010101" stroke-miterlimit="10" width="8" height="8"/>
<rect x="65.7" y="107.3" fill="#0B0606" stroke="#010101" stroke-miterlimit="10" width="8" height="9"/>
</svg>
