<?xml version="1.0" encoding="utf-8"?>
<!-- Generator: Adobe Illustrator 20.0.0, SVG Export Plug-In . SVG Version: 6.00 Build 0)  -->
<svg version="1.1" id="Layer_1" xmlns="http://www.w3.org/2000/svg" xmlns:xlink="http://www.w3.org/1999/xlink" x="0px" y="0px"
	 viewBox="0 0 1920 900" enable-background="new 0 0 1920 900" xml:space="preserve">
<path fill="none" stroke="#3A3B3A" stroke-width="4" stroke-miterlimit="10" d="M931.2,462.4c0-0.2,3.3-12.9,3.4-13l12.9-53.1
	c0.9-3.7,4.7-6,8.4-5.1l2.9,0.7c3.7,0.9,6,4.7,5.1,8.4"/>
<path fill="none" stroke="#3A3B3A" stroke-width="4" stroke-miterlimit="10" d="M951.9,450.9l14.3-59.1c0.9-3.7,4.7-6,8.4-5.1
	l2.9,0.7c3.7,0.9,6,4.7,5.1,8.4l-14.3,59.1"/>
<path fill="none" stroke="#3A3B3A" stroke-width="4" stroke-miterlimit="10" d="M967.4,459.3l14.3-59.1c0.9-3.7,4.7-6,8.4-5.1
	l2.9,0.7c3.7,0.9,6,4.7,5.1,8.4l-14.3,59.1"/>
<path fill="none" stroke="#3A3B3A" stroke-width="4" stroke-miterlimit="10" d="M994.1,422.1c0.9-3.7,4.7-6,8.4-5.1l2.9,0.7
	c3.7,0.9,6,4.7,5.1,8.4l-14.3,59.1c0,0-9.4,25.7-38.4,25.6c0,0-48.8,3.3-45.3-81.6c0,0,21.4-13.2,18.7,34.6c0,0,12.1-4.5,26.3,17"/>
</svg>
