<?xml version="1.0" encoding="utf-8"?>
<!-- Generator: Adobe Illustrator 20.0.0, SVG Export Plug-In . SVG Version: 6.00 Build 0)  -->
<svg version="1.1" id="Layer_1" xmlns="http://www.w3.org/2000/svg" xmlns:xlink="http://www.w3.org/1999/xlink" x="0px" y="0px"
	 viewBox="0 0 96.2 95" enable-background="new 0 0 96.2 95" xml:space="preserve">
<polyline fill="none" stroke="#3A3A3A" stroke-width="4" stroke-miterlimit="10" points="50.3,19.1 2,19.1 2,79.9 94.2,79.9 
	94.2,19.1 81.4,19.1 "/>
<line fill="none" stroke="#3A3A3A" stroke-width="4" stroke-miterlimit="10" x1="94.2" y1="72.2" x2="14.2" y2="72.2"/>
<polyline fill="none" stroke="#3A3A3A" stroke-width="4" stroke-miterlimit="10" points="62.2,93 53.6,93 53.6,80.5 "/>
<polyline fill="none" stroke="#3A3A3A" stroke-width="4" stroke-miterlimit="10" points="34.6,93 43.2,93 43.2,80.5 "/>
<path fill="none" stroke="#3A3A3A" stroke-width="4" stroke-miterlimit="10" d="M21.5,62.5c0,0-2.1-12,12.4-18.6l6.1,5.5
	C39.9,49.5,36.1,62.4,21.5,62.5z"/>
<line fill="none" stroke="#3A3A3A" stroke-width="4" stroke-miterlimit="10" x1="21.5" y1="62.5" x2="29.1" y2="54.6"/>
<line fill="none" stroke="#3A3A3A" stroke-width="4" stroke-miterlimit="10" x1="37.9" y1="40.1" x2="45" y2="47"/>
<path fill="none" stroke="#3A3A3A" stroke-width="4" stroke-miterlimit="10" d="M48.1,44.9c4.4-3.4,9.2-7.7,14.2-12.5
	c14.5-14,24.2-27.5,21.8-30S67.8,9.2,53.4,23.3c-5,4.8-9.3,9.5-12.9,13.8L48.1,44.9z"/>
</svg>
