<?xml version="1.0" encoding="utf-8"?>
<!-- Generator: Adobe Illustrator 20.0.0, SVG Export Plug-In . SVG Version: 6.00 Build 0)  -->
<svg version="1.1" id="Layer_1" xmlns="http://www.w3.org/2000/svg" xmlns:xlink="http://www.w3.org/1999/xlink" x="0px" y="0px"
	 viewBox="0 0 90.2 89.5" enable-background="new 0 0 90.2 89.5" xml:space="preserve">
<polyline fill="none" stroke="#3A3A3A" stroke-width="4" stroke-miterlimit="10" points="65.5,26.5 65.5,2 2,2 2,87.5 65.5,87.5 
	65.5,84.5 "/>
<rect x="43" y="32.8" fill="none" stroke="#3A3A3A" stroke-width="4" stroke-miterlimit="10" width="29.5" height="16.2"/>
<rect x="43" y="56" fill="none" stroke="#3A3A3A" stroke-width="4" stroke-miterlimit="10" width="45.2" height="24.2"/>
<polyline fill="none" stroke="#3A3A3A" stroke-width="4" stroke-miterlimit="10" points="43,56 64,68.1 88.2,56 "/>
<g>
	<path fill="none" stroke="#3A3A3A" stroke-miterlimit="10" d="M50,10.5h2.8l1,1.7l1.2-1.7h2.6l-2.1,3l2.3,3.3H55l-1.2-2l-1.4,2
		h-2.6l2.3-3.3L50,10.5z"/>
</g>
<g>
	<path fill="none" stroke="#3A3A3A" stroke-miterlimit="10" d="M53.9,36.5h2.8l1,1.7l1.2-1.7h2.6l-2.1,3l2.3,3.3h-2.8l-1.2-2l-1.4,2
		h-2.6l2.3-3.3L53.9,36.5z"/>
</g>
</svg>
