<?xml version="1.0" encoding="utf-8"?>
<!-- Generator: Adobe Illustrator 20.0.0, SVG Export Plug-In . SVG Version: 6.00 Build 0)  -->
<svg version="1.1" id="Layer_1" xmlns="http://www.w3.org/2000/svg" xmlns:xlink="http://www.w3.org/1999/xlink" x="0px" y="0px"
	 viewBox="0 0 139.1 139.1" enable-background="new 0 0 139.1 139.1" xml:space="preserve">
<circle fill="#F8F7F2" cx="-833.5" cy="1752.8" r="70"/>
<g>
	<path fill="#333333" d="M-783.8,1786.3c0,1.4-1.1,2.5-2.5,2.5h-95c-1.4,0-2.5-1.1-2.5-2.5v-62c0-1.4,1.1-2.5,2.5-2.5h95
		c1.4,0,2.5,1.1,2.5,2.5V1786.3z"/>
	<rect x="-877.8" y="1726.8" fill="#F9F9FA" width="87" height="55"/>
</g>
<g>
	<line fill="none" stroke="#C9C9C9" stroke-miterlimit="10" x1="-801.3" y1="1771.8" x2="-801.3" y2="1732.8"/>
	<rect x="-804.1" y="1722.6" fill="#F68938" width="5.1" height="58.3"/>
	<rect x="-804.1" y="1719.2" fill="#F8F6F2" width="5.1" height="3.5"/>
	<path fill="#5C5C5C" d="M-798.9,1709.4h-4.1c-0.6,0-1.2,0.7-1.2,1.5v8.2h5.2V1709.4z"/>
	<rect x="-799" y="1722.6" fill="#A91E23" width="5.1" height="58.3"/>
	<rect x="-799" y="1719.2" fill="#C2C1BF" width="5.1" height="3.5"/>
	<path fill="#111111" d="M-798.9,1709.4h3.9c0.6,0,1.1,0.7,1.1,1.5v8.2h-5.1V1709.4z"/>
	<polyline fill="#F4B26D" points="-798.9,1780.9 -804.1,1780.9 -801.3,1790.6 -799.1,1790.6 	"/>
	<polyline fill="#F5A657" points="-799.1,1790.6 -796.9,1790.6 -793.9,1780.9 -799,1780.9 	"/>
	<g>
		
			<linearGradient id="SVGID_1_" gradientUnits="userSpaceOnUse" x1="-3708.6799" y1="1379.8541" x2="-3708.6799" y2="1375.4537" gradientTransform="matrix(0 -1 1 0 -2176.7236 -1916.0703)">
			<stop  offset="0.5" style="stop-color:#37474F"/>
			<stop  offset="0.5" style="stop-color:#445B65"/>
		</linearGradient>
		<path fill="url(#SVGID_1_)" d="M-801.3,1790.6c0,0,0.5,1.3,1.1,2.9c0.6,1.6,1.6,1.6,2.2,0c0.6-1.6,1.1-2.9,1.1-2.9"/>
	</g>
</g>
<rect x="-823.8" y="1756.8" fill="#090705" width="7" height="3"/>
<rect x="-815.8" y="1756.8" fill="#090705" width="8" height="3"/>
<rect x="-832.8" y="1756.8" fill="#090705" width="8" height="3"/>
<rect x="-840.8" y="1731.8" fill="#3A3B3A" width="11" height="1"/>
<rect x="-843.8" y="1735.8" fill="#3A3B3A" width="11" height="2"/>
<rect x="-830.8" y="1735.8" fill="#3A3B3A" width="11" height="2"/>
<rect x="-817.8" y="1735.8" fill="#3A3B3A" width="11" height="2"/>
<path fill="#3A3B3A" d="M-841.4,1733.7c0.1,0.1,0.2,0.1,0.2,0.3c0,0.1-0.1,0.3-0.3,0.3c-0.1,0-0.2,0-0.2-0.1l-2-1.3
	c-0.1-0.1-0.2-0.1-0.2-0.3c0-0.1,0.1-0.2,0.2-0.3l2-1.3c0.1,0,0.1-0.1,0.2-0.1c0.1,0,0.3,0.1,0.3,0.3c0,0.1-0.1,0.2-0.2,0.3
	l-1.7,1.2L-841.4,1733.7z"/>
<path fill="#3A3B3A" d="M-826.3,1732.7l-1.7-1.2c-0.1-0.1-0.2-0.1-0.2-0.3c0-0.1,0.1-0.3,0.3-0.3c0.1,0,0.1,0,0.2,0.1l2,1.3
	c0.1,0.1,0.2,0.1,0.2,0.3c0,0.1-0.1,0.2-0.2,0.3l-2,1.3c-0.1,0-0.1,0.1-0.2,0.1c-0.1,0-0.3-0.1-0.3-0.3c0-0.1,0.1-0.2,0.2-0.3
	L-826.3,1732.7z"/>
<rect x="-840.8" y="1739.8" fill="#3A3B3A" width="11" height="2"/>
<path fill="#3A3B3A" d="M-841.4,1742.4c0.1,0.1,0.2,0.1,0.2,0.3c0,0.1-0.1,0.3-0.3,0.3c-0.1,0-0.2,0-0.2-0.1l-2-1.3
	c-0.1-0.1-0.2-0.1-0.2-0.3c0-0.1,0.1-0.2,0.2-0.3l2-1.3c0.1,0,0.1-0.1,0.2-0.1c0.1,0,0.3,0.1,0.3,0.3c0,0.1-0.1,0.2-0.2,0.3
	l-1.7,1.2L-841.4,1742.4z"/>
<path fill="#3A3B3A" d="M-826.3,1741.4l-1.7-1.2c-0.1-0.1-0.2-0.1-0.2-0.3c0-0.1,0.1-0.3,0.3-0.3c0.1,0,0.1,0,0.2,0.1l2,1.3
	c0.1,0.1,0.2,0.1,0.2,0.3c0,0.1-0.1,0.2-0.2,0.3l-2,1.3c-0.1,0-0.1,0.1-0.2,0.1c-0.1,0-0.3-0.1-0.3-0.3c0-0.1,0.1-0.2,0.2-0.3
	L-826.3,1741.4z"/>
<line fill="none" stroke="#010101" stroke-miterlimit="10" x1="-833.8" y1="1764.3" x2="-807.8" y2="1764.3"/>
<line fill="none" stroke="#010101" stroke-miterlimit="10" x1="-833.8" y1="1767.3" x2="-807.8" y2="1767.3"/>
<line fill="none" stroke="#010101" stroke-miterlimit="10" x1="-833.8" y1="1770.3" x2="-807.8" y2="1770.3"/>
<line fill="none" stroke="#010101" stroke-miterlimit="10" x1="-840.8" y1="1773.3" x2="-807.8" y2="1773.3"/>
<g>
	<rect x="-876.5" y="1760" fill="#333333" width="38.4" height="2.3"/>
	<rect x="-876.5" y="1758.3" fill="#333333" width="4.4" height="5.1"/>
	<g>
		<rect x="-861.2" y="1707.8" fill="#676766" width="6.6" height="11.4"/>
		<rect x="-860" y="1719.2" fill="#333333" width="4.1" height="3.4"/>
		<path fill="#8F8F8F" d="M-857.9,1722c-6.1,0-11,4.9-11,11c0,6.1,4.9,11,11,11c6.1,0,11-4.9,11-11
			C-846.9,1726.9-851.9,1722-857.9,1722z M-857.9,1741.9c-4.9,0-8.9-4-8.9-8.9c0-4.9,4-8.9,8.9-8.9c4.9,0,8.9,4,8.9,8.9
			C-849,1737.9-853,1741.9-857.9,1741.9z"/>
		
			<rect x="-889.7" y="1761.1" transform="matrix(0.2938 -0.9559 0.9559 0.2938 -2298.5837 415.691)" fill="#8F8F8F" width="43.4" height="4.5"/>
		
			<rect x="-849.5" y="1741.5" transform="matrix(0.9608 -0.2772 0.2772 0.9608 -521.9999 -165.7743)" fill="#8F8F8F" width="4.5" height="43.4"/>
		<polygon fill="#FDFEFF" points="-876.6,1794.7 -876.6,1794.7 -875.7,1783.1 -873.2,1783.9 		"/>
		<polygon fill="#FDFEFF" points="-839.1,1795 -839.1,1795 -840,1783.4 -842.5,1784.2 		"/>
		<rect x="-842.2" y="1758.7" fill="#333333" width="4.4" height="5.1"/>
		<path fill="#333333" d="M-854.9,1767.1c0,1.1-0.9,2.1-2.1,2.1l0,0c-1.1,0-2.1-0.9-2.1-2.1v-12.2c0-1.1,0.9-2.1,2.1-2.1l0,0
			c1.1,0,2.1,0.9,2.1,2.1V1767.1z"/>
	</g>
</g>
<g>
	<circle fill="#F8F7F2" cx="70.4" cy="69.8" r="69.6"/>
	<rect x="27.2" y="25.8" fill="#B4DBE6" width="87" height="70"/>
	<path fill="#42160C" d="M33.2,85.4V19.9c-3,0-6,2.8-6,6.2v62.5c0,0.3-0.1,0.6,0,0.9C28.7,87.3,30.2,85.9,33.2,85.4z"/>
	<path fill="#42160C" d="M108.2,85.4V19.9c3,0,6,2.8,6,6.2v62.5c0,0.3,0.1,0.6,0,0.9C112.7,87.3,110.2,85.9,108.2,85.4z"/>
	<line fill="none" stroke="#939393" stroke-width="0.25" stroke-miterlimit="10" x1="34.4" y1="33.3" x2="106.2" y2="33.3"/>
	<line fill="none" stroke="#939393" stroke-width="0.25" stroke-miterlimit="10" x1="34.4" y1="38.5" x2="106.2" y2="38.5"/>
	<line fill="none" stroke="#939393" stroke-width="0.25" stroke-miterlimit="10" x1="34.4" y1="43.7" x2="106.2" y2="43.7"/>
	<line fill="none" stroke="#939393" stroke-width="0.25" stroke-miterlimit="10" x1="34.4" y1="48.9" x2="106.2" y2="48.9"/>
	<line fill="none" stroke="#939393" stroke-width="0.25" stroke-miterlimit="10" x1="34.4" y1="54.1" x2="106.2" y2="54.1"/>
	<line fill="none" stroke="#939393" stroke-width="0.25" stroke-miterlimit="10" x1="34.4" y1="59.3" x2="106.2" y2="59.3"/>
	<line fill="none" stroke="#939393" stroke-width="0.25" stroke-miterlimit="10" x1="34.4" y1="64.5" x2="106.2" y2="64.5"/>
	<line fill="none" stroke="#939393" stroke-width="0.25" stroke-miterlimit="10" x1="34.4" y1="69.6" x2="106.2" y2="69.6"/>
	<line fill="none" stroke="#939393" stroke-width="0.25" stroke-miterlimit="10" x1="34.4" y1="74.8" x2="106.2" y2="74.8"/>
	<line fill="none" stroke="#939393" stroke-width="0.25" stroke-miterlimit="10" x1="34.4" y1="80" x2="106.2" y2="80"/>
	<line fill="none" stroke="#939393" stroke-width="0.25" stroke-miterlimit="10" x1="34.4" y1="85.2" x2="106.2" y2="85.2"/>
	<line fill="none" stroke="#939393" stroke-width="0.25" stroke-miterlimit="10" x1="88.2" y1="31.1" x2="88.2" y2="88.1"/>
	<line fill="none" stroke="#939393" stroke-width="0.25" stroke-miterlimit="10" x1="83" y1="31.1" x2="83" y2="88.1"/>
	<line fill="none" stroke="#939393" stroke-width="0.25" stroke-miterlimit="10" x1="77.8" y1="31.1" x2="77.8" y2="88.1"/>
	<line fill="none" stroke="#939393" stroke-width="0.25" stroke-miterlimit="10" x1="72.6" y1="31.1" x2="72.6" y2="88.1"/>
	<line fill="none" stroke="#939393" stroke-width="0.25" stroke-miterlimit="10" x1="67.4" y1="31.1" x2="67.4" y2="88.1"/>
	<line fill="none" stroke="#939393" stroke-width="0.25" stroke-miterlimit="10" x1="62.3" y1="31.1" x2="62.3" y2="88.1"/>
	<line fill="none" stroke="#939393" stroke-width="0.25" stroke-miterlimit="10" x1="57.1" y1="31.1" x2="57.1" y2="88.1"/>
	<line fill="none" stroke="#939393" stroke-width="0.25" stroke-miterlimit="10" x1="51.9" y1="31.1" x2="51.9" y2="88.1"/>
	<line fill="none" stroke="#939393" stroke-width="0.25" stroke-miterlimit="10" x1="46.7" y1="31.1" x2="46.7" y2="88.1"/>
	<line fill="none" stroke="#939393" stroke-width="0.25" stroke-miterlimit="10" x1="41.5" y1="31.1" x2="41.5" y2="88.1"/>
	<line fill="none" stroke="#939393" stroke-width="0.25" stroke-miterlimit="10" x1="36.3" y1="31.1" x2="36.3" y2="88.1"/>
	<line fill="none" stroke="#939393" stroke-width="0.25" stroke-miterlimit="10" x1="103.5" y1="31.1" x2="103.5" y2="88.1"/>
	<line fill="none" stroke="#939393" stroke-width="0.25" stroke-miterlimit="10" x1="98.3" y1="31.1" x2="98.3" y2="88.1"/>
	<line fill="none" stroke="#939393" stroke-width="0.25" stroke-miterlimit="10" x1="93.2" y1="31.1" x2="93.2" y2="88.1"/>
	<g>
		<path fill="#FFFFFF" d="M86.1,57.8l-2.8,0.1c-0.1-2-0.3-3.6-0.6-4.9c-0.3-1.3-0.7-2.3-1.2-3.1c-0.5-0.8-1.1-1.3-1.9-1.6
			c-0.7-0.3-1.6-0.5-2.6-0.5h-4v24.7c0,1.4,1.3,2,4,2V77H62.4v-2.5c2.6,0,3.9-0.7,3.9-2V47.8h-4c-1,0-1.9,0.2-2.6,0.5
			c-0.7,0.3-1.4,0.9-1.9,1.6c-0.5,0.8-0.9,1.8-1.2,3.1c-0.3,1.3-0.5,2.9-0.6,4.9l-2.8-0.1V44.3h33V57.8z"/>
		<g>
			<g>
				<path fill="none" stroke="#181616" stroke-miterlimit="10" d="M86.1,53.8v4l-2.8,0.1c-0.1-1.5-0.2-2.8-0.4-4"/>
				<path fill="none" stroke="#181616" stroke-miterlimit="10" d="M77,47.8C77,47.8,77,47.8,77,47.8l-4,0v4"/>
				
					<line fill="none" stroke="#181616" stroke-miterlimit="10" stroke-dasharray="7.2124,7.2124" x1="73" y1="59" x2="73" y2="69.8"/>
				<path fill="none" stroke="#181616" stroke-miterlimit="10" d="M73.3,73.4c0.5,0.8,1.7,1.1,3.7,1.1V77h-4"/>
				<path fill="none" stroke="#181616" stroke-miterlimit="10" d="M66.4,77h-4v-2.5c2,0,3.2-0.4,3.7-1.2"/>
				
					<line fill="none" stroke="#181616" stroke-miterlimit="10" stroke-dasharray="7.1992,7.1992" x1="66.3" y1="66.2" x2="66.3" y2="55.4"/>
				<polyline fill="none" stroke="#181616" stroke-miterlimit="10" points="66.3,51.8 66.3,47.8 62.3,47.8 				"/>
				<path fill="none" stroke="#181616" stroke-miterlimit="10" d="M56.4,53.9c-0.2,1.1-0.4,2.5-0.4,4l-2.8-0.1v-4"/>
				<polyline fill="none" stroke="#181616" stroke-miterlimit="10" points="53.2,48.3 53.2,44.3 57.2,44.3 				"/>
				
					<line fill="none" stroke="#181616" stroke-miterlimit="10" stroke-dasharray="8.321,8.321" x1="65.5" y1="44.3" x2="78" y2="44.3"/>
				<polyline fill="none" stroke="#181616" stroke-miterlimit="10" points="82.1,44.3 86.1,44.3 86.1,48.3 				"/>
			</g>
		</g>
	</g>
	<path fill="none" stroke="#181616" stroke-miterlimit="10" d="M42,66.6c0-17.1,12.8-30.9,28.6-30.9s28.6,13.8,28.6,30.9"/>
	<rect x="38.7" y="32.3" fill="#FFFFFF" stroke="#181616" stroke-miterlimit="10" width="5" height="5"/>
	<rect x="39.7" y="61.3" fill="#FFFFFF" stroke="#181616" stroke-miterlimit="10" width="5" height="5"/>
	<rect x="96.7" y="61.3" fill="#FFFFFF" stroke="#181616" stroke-miterlimit="10" width="5" height="5"/>
	<rect x="98.7" y="32.3" fill="#FFFFFF" stroke="#181616" stroke-miterlimit="10" width="5" height="5"/>
	<line fill="none" stroke="#181616" stroke-miterlimit="10" x1="43.2" y1="35.3" x2="98.2" y2="35.3"/>
	<rect x="68.7" y="32.3" fill="#FFFFFF" stroke="#181616" stroke-miterlimit="10" width="4" height="5"/>
	<rect x="90.3" y="106.7" fill="#7C7B7B" width="14.6" height="4.6"/>
	<rect x="91.9" y="111.3" fill="#3A3B3A" width="11.4" height="2.2"/>
	
		<linearGradient id="SVGID_2_" gradientUnits="userSpaceOnUse" x1="1056.139" y1="2341.0681" x2="1070.4851" y2="2329.0303" gradientTransform="matrix(0.7071 0.7071 -0.7071 0.7071 997.285 -2308.1509)">
		<stop  offset="0" style="stop-color:#E9E9E9"/>
		<stop  offset="0.463" style="stop-color:#BEBCC4"/>
		<stop  offset="1" style="stop-color:#BEBCC4"/>
	</linearGradient>
	<polyline fill="url(#SVGID_2_)" points="98,82.5 88.4,98.1 92.6,104.4 92.7,106.7 102.8,106.7 102.9,104.4 107.2,98.1 97.5,82.5 	
		"/>
	<line fill="none" stroke="#454546" stroke-width="0.5" stroke-miterlimit="10" x1="97.8" y1="83.2" x2="97.8" y2="97.3"/>
	<ellipse transform="matrix(0.7072 -0.707 0.707 0.7072 -40.1174 97.5081)" fill="#3A3B3A" cx="97.7" cy="97.2" rx="1.8" ry="1.8"/>
	<rect x="97.2" y="81.8" fill="#F9F9FA" stroke="#454546" stroke-width="0.5" stroke-miterlimit="10" width="1.3" height="1.3"/>
	<rect x="92" y="80.5" fill="#F9F9FA" stroke="#454546" stroke-width="0.5" stroke-miterlimit="10" width="1.3" height="1.3"/>
	<rect x="102.4" y="80.5" fill="#F9F9FA" stroke="#454546" stroke-width="0.5" stroke-miterlimit="10" width="1.3" height="1.3"/>
	<line fill="none" stroke="#454546" stroke-width="0.5" stroke-miterlimit="10" x1="92" y1="81.8" x2="103.5" y2="81.8"/>
</g>
</svg>
