<?xml version="1.0" encoding="utf-8"?>
<!-- Generator: Adobe Illustrator 20.0.0, SVG Export Plug-In . SVG Version: 6.00 Build 0)  -->
<svg version="1.1" id="Layer_1" xmlns="http://www.w3.org/2000/svg" xmlns:xlink="http://www.w3.org/1999/xlink" x="0px" y="0px"
	 viewBox="0 0 1920 1080" style="enable-background:new 0 0 1920 1080;" xml:space="preserve">
<radialGradient id="SVGID_1_" cx="639.8024" cy="225.1111" r="527.2119" gradientTransform="matrix(1.5012 0 0 1.4087 -0.454 222.8872)" gradientUnits="userSpaceOnUse">
	<stop  offset="0" style="stop-color:#0671B3"/>
	<stop  offset="1" style="stop-color:#093547"/>
</radialGradient>
<rect style="fill:url(#SVGID_1_);" width="1920" height="1080"/>
<path style="fill:#05AFDA;" d="M1089.6,1043.9c-0.6,0-1.2-0.2-1.6-0.5c-0.5-0.3-0.7-0.8-0.7-1.4c0-0.5,0.2-1,0.7-1.3
	c0.4-0.4,1-0.6,1.6-0.6c0.6,0,1.2,0.2,1.6,0.5c0.4,0.4,0.7,0.8,0.7,1.3c0,0.6-0.2,1.1-0.7,1.4
	C1090.8,1043.7,1090.2,1043.9,1089.6,1043.9"/>
<path style="fill:#05AFDA;" d="M951.4,1036C951.4,1036,951.4,1036,951.4,1036C951.4,1036,951.4,1036,951.4,1036"/>
<path style="fill:#05AFDA;" d="M951.7,1037.1L951.7,1037.1c-0.1-0.3-0.1-0.6-0.2-0.9C951.5,1036.5,951.6,1036.8,951.7,1037.1"/>
<path style="fill:#05AFDA;" d="M953,1040.3C953,1040.3,953,1040.3,953,1040.3C953,1040.3,953,1040.3,953,1040.3"/>
<path style="fill:#05AFDA;" d="M952.9,1040.1c0-0.1-0.1-0.1-0.1-0.2C952.8,1040,952.9,1040.1,952.9,1040.1"/>
<path style="fill:#05AFDA;" d="M952,1038.4c0.2,0.5,0.4,1,0.7,1.5C952.5,1039.4,952.2,1038.9,952,1038.4L952,1038.4z"/>
<g>
	<polygon style="fill:#FFFFFF;" points="392.5,254.6 391.4,258.6 395.4,260.2 391.1,260.4 391,264.5 389.3,260.5 385.4,261.6 
		388.8,259 386.3,255.5 389.8,257.9 	"/>
	<polygon style="fill:#FFFFFF;" points="62.6,126.7 60.9,132.8 66.9,135.2 60.5,135.5 60.3,141.6 57.7,135.6 51.9,137.2 57,133.4 
		53.2,128.2 58.5,131.7 	"/>
	<polygon style="fill:#FFFFFF;" points="63.7,851.4 61.4,859.6 69.4,862.7 60.9,863.1 60.6,871.3 57.2,863.2 49.4,865.4 56.2,860.4 
		51.2,853.3 58.3,858.1 	"/>
	<polygon style="fill:#FFFFFF;" points="151.7,283.6 149.3,292.1 157.6,295.3 148.8,295.7 148.5,304.2 144.9,295.8 136.8,298.1 
		143.9,292.9 138.7,285.6 146,290.5 	"/>
	<polygon style="fill:#FFFFFF;" points="330.5,432.7 328.4,440.4 335.8,443.3 327.8,443.7 327.6,451.4 324.4,443.8 317,445.9 
		323.5,441.2 318.7,434.5 325.4,439 	"/>
	<polygon style="fill:#FFFFFF;" points="679,292.3 676.9,300 684.4,302.9 676.4,303.3 676.1,311 672.9,303.4 665.6,305.5 672,300.7 
		667.3,294.1 673.9,298.6 	"/>
	<polygon style="fill:#FFFFFF;" points="533.6,410.1 531.5,417.8 539,420.7 530.9,421.1 530.7,428.8 527.5,421.3 520.1,423.3 
		526.6,418.6 521.8,412 528.5,416.5 	"/>
	<polygon style="fill:#FFFFFF;" points="264.4,584.7 263,589.7 267.8,591.6 262.7,591.8 262.5,596.8 260.4,591.9 255.7,593.3 
		259.8,590.2 256.8,585.9 261.1,588.8 	"/>
	<polygon style="fill:#FFFFFF;" points="238.5,810.2 237.5,813.8 240.9,815.1 237.2,815.3 237.1,818.8 235.6,815.4 232.3,816.3 
		235.2,814.1 233,811.1 236.1,813.1 	"/>
	<polygon style="fill:#FFFFFF;" points="52.9,704.9 51.9,708.5 55.4,709.8 51.7,710 51.6,713.5 50.1,710 46.7,711 49.7,708.8 
		47.5,705.7 50.6,707.8 	"/>
	<polygon style="fill:#FFFFFF;" points="519.2,672.3 518.6,674.4 520.6,675.1 518.5,675.2 518.4,677.3 517.6,675.3 515.6,675.8 
		517.3,674.6 516.1,672.8 517.8,674 	"/>
	<polygon style="fill:#FFFFFF;" points="531.7,1063.5 531.2,1065.5 533.2,1066.3 531,1066.4 531,1068.5 530.1,1066.4 528.1,1067 
		529.9,1065.7 528.6,1064 530.4,1065.2 	"/>
	<polygon style="fill:#FFFFFF;" points="160.6,534.4 160.1,536.4 162,537.2 159.9,537.3 159.8,539.4 159,537.4 157,537.9 
		158.7,536.6 157.5,534.9 159.3,536.1 	"/>
	<polygon style="fill:#FFFFFF;" points="1040.7,271.1 1040.2,273.2 1042.2,273.9 1040,274 1040,276.1 1039.1,274.1 1037.2,274.6 
		1038.9,273.4 1037.6,271.6 1039.4,272.8 	"/>
	<polygon style="fill:#FFFFFF;" points="95.4,221 94.9,223 96.8,223.8 94.7,223.9 94.6,225.9 93.8,223.9 91.8,224.5 93.5,223.2 
		92.3,221.4 94.1,222.6 	"/>
	<polygon style="fill:#F3F3F3;" points="15.2,223.5 14.6,225.5 16.6,226.3 14.5,226.4 14.4,228.4 13.6,226.4 11.6,227 13.3,225.7 
		12,223.9 13.8,225.1 	"/>
	<polygon style="fill:#FFFFFF;" points="677.2,730 676.6,732 678.6,732.8 676.5,732.9 676.4,735 675.5,732.9 673.6,733.5 
		675.3,732.2 674,730.5 675.8,731.7 	"/>
	<polygon style="fill:#FFFFFF;" points="451.5,825.3 450.9,827.3 452.9,828.1 450.8,828.2 450.7,830.2 449.9,828.2 447.9,828.8 
		449.6,827.5 448.4,825.8 450.1,827 	"/>
	<polygon style="fill:#FFFFFF;" points="857.7,353.9 857.1,355.9 859.1,356.7 857,356.8 856.9,358.8 856.1,356.8 854.1,357.4 
		855.8,356.1 854.6,354.3 856.3,355.5 	"/>
	<polygon style="fill:#FFFFFF;" points="667.1,358.9 666.6,360.9 668.6,361.7 666.4,361.8 666.4,363.8 665.5,361.8 663.5,362.4 
		665.3,361.1 664,359.4 665.8,360.6 	"/>
	<polygon style="fill:#FFFFFF;" points="336.1,130.7 335.6,132.7 337.6,133.5 335.4,133.6 335.4,135.7 334.5,133.6 332.6,134.2 
		334.3,132.9 333,131.2 334.8,132.4 	"/>
	<polygon style="fill:#FFFFFF;" points="978.1,649.7 977.5,651.8 979.5,652.6 977.4,652.7 977.3,654.7 976.4,652.7 974.5,653.2 
		976.2,652 974.9,650.2 976.7,651.4 	"/>
	<polygon style="fill:#FFFFFF;" points="243.4,712.4 242.8,714.5 244.8,715.3 242.7,715.4 242.6,717.4 241.7,715.4 239.8,715.9 
		241.5,714.7 240.2,712.9 242,714.1 	"/>
	<polygon style="fill:#FFFFFF;" points="57.8,574.5 57.2,576.6 59.2,577.3 57.1,577.4 57,579.5 56.2,577.5 54.2,578 55.9,576.8 
		54.7,575 56.4,576.2 	"/>
	<polygon style="fill:#FFFFFF;" points="366.2,582 365.7,584.1 367.7,584.9 365.5,585 365.5,587 364.6,585 362.6,585.5 364.4,584.3 
		363.1,582.5 364.9,583.7 	"/>
	<polygon style="fill:#FFFFFF;" points="55.3,391.5 54.7,393.5 56.7,394.3 54.6,394.4 54.5,396.4 53.7,394.4 51.7,395 53.4,393.7 
		52.2,392 53.9,393.2 	"/>
	<polygon style="fill:#FFFFFF;" points="612,509.3 611.4,511.4 613.4,512.1 611.3,512.2 611.2,514.3 610.3,512.3 608.4,512.8 
		610.1,511.6 608.8,509.8 610.6,511 	"/>
	<polygon style="fill:#FFFFFF;" points="521.7,163.3 521.1,165.3 523.1,166.1 521,166.2 520.9,168.3 520.1,166.2 518.1,166.8 
		519.8,165.5 518.6,163.8 520.3,165 	"/>
	<polygon style="fill:#FFFFFF;" points="777.5,288.7 776.9,290.7 778.9,291.5 776.8,291.6 776.7,293.6 775.8,291.6 773.9,292.2 
		775.6,290.9 774.3,289.1 776.1,290.3 	"/>
	<polygon style="fill:#FFFFFF;" points="444,980.7 443.4,982.8 445.4,983.6 443.3,983.7 443.2,985.7 442.3,983.7 440.4,984.2 
		442.1,983 440.8,981.2 442.6,982.4 	"/>
	<polygon style="fill:#FFFFFF;" points="411.4,175.8 410.8,177.9 412.8,178.6 410.7,178.7 410.6,180.8 409.7,178.8 407.8,179.3 
		409.5,178.1 408.2,176.3 410,177.5 	"/>
	<polygon style="fill:#FFFFFF;" points="120.5,807.7 119.9,809.8 121.9,810.5 119.8,810.6 119.7,812.7 118.9,810.7 116.9,811.2 
		118.6,810 117.4,808.2 119.1,809.4 	"/>
	<polygon style="fill:#FFFFFF;" points="428.9,394 428.4,396 430.3,396.8 428.2,396.9 428.1,399 427.3,396.9 425.3,397.5 427,396.2 
		425.8,394.5 427.6,395.7 	"/>
	<polygon style="fill:#FFFFFF;" points="908,624.7 907,628.2 910.4,629.6 906.7,629.7 906.6,633.3 905.2,629.8 901.8,630.8 
		904.7,628.6 902.5,625.5 905.6,627.6 	"/>
	<polygon style="fill:#FFFFFF;" points="318.7,973.2 317.7,976.8 321.2,978.1 317.5,978.3 317.4,981.8 315.9,978.3 312.5,979.3 
		315.5,977.1 313.3,974.1 316.3,976.1 	"/>
	<polygon style="fill:#FFFFFF;" points="998.2,446.6 997.3,450.2 1000.7,451.5 997,451.7 996.9,455.3 995.4,451.8 992,452.7 
		995,450.5 992.8,447.5 995.9,449.6 	"/>
	<polygon style="fill:#FFFFFF;" points="897.9,414 897,417.6 900.4,418.9 896.7,419.1 896.6,422.7 895.1,419.2 891.7,420.1 
		894.7,417.9 892.5,414.9 895.6,417 	"/>
	<polygon style="fill:#FFFFFF;" points="745,391.5 744,395 747.5,396.4 743.8,396.5 743.6,400.1 742.2,396.6 738.8,397.6 
		741.7,395.4 739.6,392.3 742.6,394.4 	"/>
	<polygon style="fill:#FFFFFF;" points="106.4,459.4 105,464.3 109.9,466.2 104.7,466.5 104.5,471.5 102.5,466.6 97.7,467.9 
		101.9,464.8 98.8,460.5 103.1,463.5 	"/>
	<polygon style="fill:#FFFFFF;" points="160,655.9 157.9,663.6 165.3,666.5 157.3,666.9 157.1,674.6 153.9,667 146.5,669.1 
		153,664.3 148.2,657.7 154.9,662.2 	"/>
	<polygon style="fill:#FFFFFF;" points="257.7,342.4 255.6,350.1 263.1,353 255.1,353.4 254.9,361.1 251.7,353.6 244.3,355.6 
		250.7,350.9 246,344.3 252.7,348.8 	"/>
	<polygon style="fill:#FFFFFF;" points="371.5,708.1 370.2,712.8 374.7,714.5 369.9,714.7 369.7,719.4 367.8,714.8 363.3,716.1 
		367.2,713.2 364.4,709.2 368.4,711.9 	"/>
	<polygon style="fill:#FFFFFF;" points="366.5,861.1 365.2,865.7 369.7,867.5 364.9,867.7 364.7,872.4 362.8,867.8 358.3,869 
		362.2,866.2 359.4,862.2 363.4,864.9 	"/>
	<polygon style="fill:#FFFFFF;" points="474.3,530.1 473,534.7 477.5,536.5 472.7,536.7 472.5,541.4 470.6,536.8 466.2,538 
		470,535.2 467.2,531.2 471.2,533.9 	"/>
	<polygon style="fill:#FFFFFF;" points="740.1,459.9 738.8,464.5 743.3,466.3 738.5,466.5 738.3,471.2 736.4,466.6 732,467.8 
		735.8,465 733,461 737,463.7 	"/>
	<polygon style="fill:#FFFFFF;" points="532,299.4 530.7,304 535.2,305.8 530.4,306 530.2,310.7 528.3,306.1 523.8,307.3 
		527.7,304.5 524.9,300.5 528.9,303.2 	"/>
	<polygon style="fill:#FFFFFF;" points="621.3,613.2 619.2,621 626.7,623.9 618.7,624.2 618.4,631.9 615.2,624.4 607.9,626.4 
		614.3,621.7 609.6,615.1 616.2,619.6 	"/>
	<polygon style="fill:#FFFFFF;" points="794.4,708.5 792.3,716.2 799.7,719.1 791.7,719.5 791.5,727.2 788.3,719.7 780.9,721.7 
		787.4,717 782.6,710.4 789.3,714.9 	"/>
	<polygon style="fill:#FFFFFF;" points="217.6,929.2 215.5,936.9 223,939.8 215,940.2 214.7,947.9 211.5,940.3 204.2,942.4 
		210.6,937.6 205.9,931 212.5,935.5 	"/>
	<polygon style="fill:#FFFFFF;" points="533.6,866.5 531.5,874.2 539,877.1 530.9,877.5 530.7,885.2 527.5,877.6 520.1,879.7 
		526.6,875 521.8,868.3 528.5,872.8 	"/>
	<polygon style="fill:#FFFFFF;" points="1213.3,443.6 1214.2,446.8 1211.1,448 1214.4,448.1 1214.5,451.3 1215.9,448.2 1218.9,449 
		1216.2,447.1 1218.2,444.3 1215.4,446.2 	"/>
	<polygon style="fill:#FFFFFF;" points="1810.2,899 1811.3,903.1 1807.4,904.6 1811.6,904.8 1811.7,908.9 1813.4,904.9 1817.4,906 
		1813.9,903.5 1816.5,900 1812.9,902.4 	"/>
	<polygon style="fill:#FFFFFF;" points="1619,432.7 1621.1,440.4 1613.6,443.3 1621.6,443.7 1621.9,451.4 1625.1,443.8 
		1632.4,445.9 1626,441.2 1630.8,434.5 1624.1,439 	"/>
	<polygon style="fill:#FFFFFF;" points="1270.4,277.2 1272.6,284.9 1265.1,287.9 1273.1,288.2 1273.3,295.9 1276.5,288.4 
		1283.9,290.4 1277.5,285.7 1282.2,279.1 1275.5,283.6 	"/>
	<polygon style="fill:#FFFFFF;" points="1415.9,410.1 1418,417.8 1410.5,420.7 1418.5,421.1 1418.8,428.8 1422,421.3 1429.3,423.3 
		1422.9,418.6 1427.6,412 1421,416.5 	"/>
	<polygon style="fill:#FFFFFF;" points="1685.1,584.7 1686.5,589.7 1681.6,591.6 1686.8,591.8 1687,596.8 1689,591.9 1693.8,593.3 
		1689.6,590.2 1692.7,585.9 1688.4,588.8 	"/>
	<polygon style="fill:#FFFFFF;" points="1711,810.2 1712,813.8 1708.5,815.1 1712.2,815.3 1712.3,818.8 1713.8,815.4 1717.2,816.3 
		1714.2,814.1 1716.4,811.1 1713.4,813.1 	"/>
	<polygon style="fill:#FFFFFF;" points="1826.3,672.3 1827.3,675.9 1823.9,677.2 1827.6,677.4 1827.7,680.9 1829.2,677.4 
		1832.6,678.4 1829.6,676.2 1831.8,673.2 1828.7,675.2 	"/>
	<polygon style="fill:#FFFFFF;" points="1793.7,614.6 1794.7,618.2 1791.3,619.5 1795,619.7 1795.1,623.3 1796.6,619.8 1800,620.7 
		1797,618.5 1799.2,615.5 1796.1,617.6 	"/>
	<polygon style="fill:#FFFFFF;" points="1901.6,782.6 1902.5,786.2 1899.1,787.5 1902.8,787.7 1902.9,791.3 1904.4,787.8 
		1907.8,788.7 1904.8,786.5 1907,783.5 1903.9,785.6 	"/>
	<polygon style="fill:#FFFFFF;" points="1430.3,672.3 1430.8,674.4 1428.8,675.1 1431,675.2 1431,677.3 1431.9,675.3 1433.9,675.8 
		1432.1,674.6 1433.4,672.8 1431.6,674 	"/>
	<polygon style="fill:#FFFFFF;" points="1169.5,582 1170.1,584.1 1168.1,584.9 1170.2,585 1170.3,587 1171.1,585 1173.1,585.5 
		1171.4,584.3 1172.6,582.5 1170.8,583.7 	"/>
	<polygon style="fill:#FFFFFF;" points="1788.8,534.4 1789.4,536.4 1787.4,537.2 1789.6,537.3 1789.6,539.4 1790.5,537.4 
		1792.4,537.9 1790.7,536.6 1792,534.9 1790.2,536.1 	"/>
	<polygon style="fill:#FFFFFF;" points="1771.3,1066 1771.9,1068 1769.9,1068.8 1772,1068.9 1772.1,1071 1772.9,1069 1774.9,1069.5 
		1773.2,1068.2 1774.4,1066.5 1772.7,1067.7 	"/>
	<polygon style="fill:#FFFFFF;" points="968.9,328.8 969.5,330.8 967.5,331.6 969.6,331.7 969.7,333.8 970.5,331.7 972.5,332.3 
		970.8,331 972,329.3 970.2,330.5 	"/>
	<polygon style="fill:#FFFFFF;" points="1854,221 1854.6,223 1852.6,223.8 1854.7,223.9 1854.8,225.9 1855.7,223.9 1857.6,224.5 
		1855.9,223.2 1857.2,221.4 1855.4,222.6 	"/>
	<polygon style="fill:#FFFFFF;" points="1272.3,730 1272.9,732 1270.9,732.8 1273,732.9 1273.1,735 1273.9,732.9 1275.9,733.5 
		1274.2,732.2 1275.4,730.5 1273.7,731.7 	"/>
	<polygon style="fill:#FFFFFF;" points="1091.8,353.9 1092.3,355.9 1090.3,356.7 1092.5,356.8 1092.5,358.8 1093.4,356.8 
		1095.3,357.4 1093.6,356.1 1094.9,354.3 1093.1,355.5 	"/>
	<polygon style="fill:#FFFFFF;" points="1613.3,130.7 1613.9,132.7 1611.9,133.5 1614,133.6 1614.1,135.7 1614.9,133.6 
		1616.9,134.2 1615.2,132.9 1616.5,131.2 1614.7,132.4 	"/>
	<polygon style="fill:#FFFFFF;" points="1124.4,709.9 1124.9,712 1122.9,712.7 1125.1,712.8 1125.1,714.9 1126,712.9 1127.9,713.4 
		1126.2,712.2 1127.5,710.4 1125.7,711.6 	"/>
	<polygon style="fill:#FFFFFF;" points="1706.1,712.4 1706.7,714.5 1704.7,715.3 1706.8,715.4 1706.9,717.4 1707.7,715.4 
		1709.7,715.9 1708,714.7 1709.2,712.9 1707.5,714.1 	"/>
	<polygon style="fill:#FFFFFF;" points="1891.7,574.5 1892.2,576.6 1890.2,577.3 1892.4,577.4 1892.4,579.5 1893.3,577.5 
		1895.2,578 1893.5,576.8 1894.8,575 1893,576.2 	"/>
	<polygon style="fill:#FFFFFF;" points="1583.2,582 1583.8,584.1 1581.8,584.9 1583.9,585 1584,587 1584.9,585 1586.8,585.5 
		1585.1,584.3 1586.4,582.5 1584.6,583.7 	"/>
	<polygon style="fill:#FFFFFF;" points="1894.2,391.5 1894.7,393.5 1892.7,394.3 1894.9,394.4 1894.9,396.4 1895.8,394.4 
		1897.7,395 1896,393.7 1897.3,392 1895.5,393.2 	"/>
	<polygon style="fill:#FFFFFF;" points="1337.5,509.3 1338.1,511.4 1336.1,512.1 1338.2,512.2 1338.3,514.3 1339.1,512.3 
		1341.1,512.8 1339.4,511.6 1340.6,509.8 1338.9,511 	"/>
	<polygon style="fill:#FFFFFF;" points="1427.8,163.3 1428.3,165.3 1426.3,166.1 1428.5,166.2 1428.5,168.3 1429.4,166.2 
		1431.3,166.8 1429.6,165.5 1430.9,163.8 1429.1,165 	"/>
	<polygon style="fill:#FFFFFF;" points="1172,288.7 1172.6,290.7 1170.6,291.5 1172.7,291.6 1172.8,293.6 1173.6,291.6 
		1175.6,292.2 1173.9,290.9 1175.1,289.1 1173.4,290.3 	"/>
	<polygon style="fill:#FFFFFF;" points="1234.7,361.4 1235.2,363.4 1233.3,364.2 1235.4,364.3 1235.5,366.4 1236.3,364.3 
		1238.3,364.9 1236.6,363.6 1237.8,361.9 1236,363.1 	"/>
	<polygon style="fill:#FFFFFF;" points="1731.2,469.2 1731.7,471.3 1729.7,472 1731.9,472.1 1731.9,474.2 1732.8,472.2 
		1734.8,472.7 1733,471.4 1734.3,469.7 1732.5,470.9 	"/>
	<polygon style="fill:#FFFFFF;" points="1829,807.7 1829.5,809.8 1827.5,810.5 1829.7,810.6 1829.7,812.7 1830.6,810.7 
		1832.6,811.2 1830.8,810 1832.1,808.2 1830.3,809.4 	"/>
	<polygon style="fill:#FFFFFF;" points="1520.5,394 1521.1,396 1519.1,396.8 1521.2,396.9 1521.3,399 1522.2,396.9 1524.1,397.5 
		1522.4,396.2 1523.7,394.5 1521.9,395.7 	"/>
	<polygon style="fill:#FFFFFF;" points="1041.5,624.7 1042.5,628.2 1039,629.6 1042.7,629.7 1042.8,633.3 1044.3,629.8 
		1047.7,630.8 1044.7,628.6 1046.9,625.5 1043.8,627.6 	"/>
	<polygon style="fill:#FFFFFF;" points="858.4,288.7 859.4,292.2 856,293.6 859.7,293.7 859.8,297.3 861.3,293.8 864.6,294.7 
		861.7,292.6 863.9,289.5 860.8,291.6 	"/>
	<polygon style="fill:#FFFFFF;" points="1051.5,414 1052.5,417.6 1049,418.9 1052.7,419.1 1052.9,422.7 1054.3,419.2 1057.7,420.1 
		1054.8,417.9 1056.9,414.9 1053.9,417 	"/>
	<polygon style="fill:#FFFFFF;" points="1843.1,459.4 1844.4,464.3 1839.6,466.2 1844.8,466.5 1844.9,471.5 1847,466.6 
		1851.8,467.9 1847.6,464.8 1850.7,460.5 1846.4,463.5 	"/>
	<polygon style="fill:#FFFFFF;" points="1777,405.1 1779.1,412.8 1771.6,415.7 1779.6,416.1 1779.9,423.8 1783.1,416.2 
		1790.4,418.3 1784,413.6 1788.7,407 1782.1,411.5 	"/>
	<polygon style="fill:#FFFFFF;" points="1575.5,710.6 1576.8,715.3 1572.2,717 1577.1,717.2 1577.2,721.9 1579.2,717.3 
		1583.6,718.6 1579.7,715.7 1582.6,711.7 1578.6,714.4 	"/>
	<polygon style="fill:#FFFFFF;" points="1605.6,1056.6 1606.8,1061.3 1602.3,1063.1 1607.2,1063.3 1607.3,1067.9 1609.2,1063.4 
		1613.7,1064.6 1609.8,1061.8 1612.7,1057.8 1608.6,1060.5 	"/>
	<polygon style="fill:#FFFFFF;" points="1583,861.1 1584.3,865.7 1579.8,867.5 1584.6,867.7 1584.8,872.4 1586.7,867.8 1591.1,869 
		1587.2,866.2 1590.1,862.2 1586.1,864.9 	"/>
	<polygon style="fill:#FFFFFF;" points="1475.2,530.1 1476.4,534.7 1471.9,536.5 1476.8,536.7 1476.9,541.4 1478.9,536.8 
		1483.3,538 1479.4,535.2 1482.3,531.2 1478.3,533.9 	"/>
	<polygon style="fill:#FFFFFF;" points="1164.2,128.9 1165.5,133.5 1161,135.3 1165.8,135.5 1166,140.2 1167.9,135.6 1172.4,136.8 
		1168.5,134 1171.3,130 1167.3,132.7 	"/>
	<polygon style="fill:#FFFFFF;" points="1289.4,172.9 1291.5,165.2 1284,162.2 1292,161.9 1292.3,154.2 1295.5,161.7 1302.8,159.7 
		1296.4,164.4 1301.1,171 1294.5,166.5 	"/>
	<polygon style="fill:#FFFFFF;" points="854.9,216.6 855.5,214.6 853.5,213.8 855.6,213.7 855.7,211.6 856.5,213.6 858.5,213.1 
		856.8,214.4 858.1,216.1 856.3,214.9 	"/>
	<polygon style="fill:#FFFFFF;" points="253.1,224.1 253.7,222.1 251.7,221.3 253.8,221.2 253.9,219.2 254.7,221.2 256.7,220.6 
		255,221.9 256.3,223.6 254.5,222.4 	"/>
	<polygon style="fill:#FFFFFF;" points="1055.5,186.5 1056.1,184.5 1054.1,183.7 1056.2,183.6 1056.3,181.5 1057.2,183.6 
		1059.1,183 1057.4,184.3 1058.7,186 1056.9,184.8 	"/>
	<polygon style="fill:#FFFFFF;" points="1519.4,214.1 1520,212 1518,211.3 1520.1,211.2 1520.2,209.1 1521,211.1 1523,210.6 
		1521.3,211.8 1522.6,213.6 1520.8,212.4 	"/>
	<polygon style="fill:#FFFFFF;" points="625.2,195.4 623.1,187.7 630.6,184.8 622.6,184.4 622.3,176.7 619.1,184.3 611.8,182.2 
		618.2,187 613.5,193.6 620.1,189.1 	"/>
	<polygon style="fill:#FFFFFF;" points="896.7,161.4 896.1,159.4 898.1,158.6 896,158.5 895.9,156.5 895.1,158.5 893.1,157.9 
		894.8,159.2 893.6,161 895.3,159.8 	"/>
	<polygon style="fill:#FFFFFF;" points="803.9,133.9 803.4,131.8 805.4,131 803.2,130.9 803.1,128.9 802.3,130.9 800.3,130.3 
		802.1,131.6 800.8,133.4 802.6,132.2 	"/>
	<polygon style="fill:#FFFFFF;" points="157,156.4 156.4,154.4 158.4,153.6 156.3,153.5 156.2,151.4 155.4,153.5 153.4,152.9 
		155.1,154.2 153.8,155.9 155.6,154.7 	"/>
	<polygon style="fill:#FFFFFF;" points="718.7,131.4 718.1,129.3 720.1,128.5 718,128.4 717.9,126.4 717,128.4 715.1,127.8 
		716.8,129.1 715.5,130.9 717.3,129.7 	"/>
	<polygon style="fill:#FFFFFF;" points="979.6,219.1 978.6,215.6 982,214.2 978.3,214 978.2,210.5 976.8,214 973.4,213 976.3,215.2 
		974.1,218.3 977.2,216.2 	"/>
	<polygon style="fill:#FFFFFF;" points="726.4,268.6 725.1,263.9 729.7,262.2 724.8,261.9 724.7,257.3 722.7,261.9 718.3,260.6 
		722.2,263.5 719.3,267.5 723.3,264.7 	"/>
	<polygon style="fill:#FFFFFF;" points="491.6,444.1 491,446.2 493,446.9 490.9,447.1 490.8,449.1 490,447.1 488,447.6 489.7,446.4 
		488.5,444.6 490.2,445.8 	"/>
	<polygon style="fill:#FFFFFF;" points="308.6,526.9 308,528.9 310,529.7 307.9,529.8 307.8,531.9 306.9,529.8 305,530.4 
		306.7,529.1 305.4,527.4 307.2,528.6 	"/>
	<polygon style="fill:#FFFFFF;" points="228.3,461.7 227.8,463.7 229.7,464.5 227.6,464.6 227.5,466.7 226.7,464.6 224.7,465.2 
		226.4,463.9 225.2,462.2 227,463.4 	"/>
	<polygon style="fill:#FFFFFF;" points="449.1,619.6 448.1,623.2 451.6,624.5 447.9,624.7 447.8,628.3 446.3,624.8 442.9,625.7 
		445.9,623.5 443.7,620.5 446.7,622.6 	"/>
	<polygon style="fill:#FFFFFF;" points="348.8,587.1 347.8,590.6 351.3,592 347.6,592.1 347.5,595.7 346,592.2 342.6,593.1 
		345.6,591 343.4,587.9 346.4,590 	"/>
	<polygon style="fill:#FFFFFF;" points="195.8,564.5 194.9,568 198.3,569.4 194.6,569.6 194.5,573.1 193,569.6 189.6,570.6 
		192.6,568.4 190.4,565.3 193.5,567.4 	"/>
	<polygon style="fill:#FFFFFF;" points="419.7,501.8 420.3,503.8 418.3,504.6 420.4,504.7 420.5,506.8 421.4,504.8 423.3,505.3 
		421.6,504 422.9,502.3 421.1,503.5 	"/>
	<polygon style="fill:#FFFFFF;" points="542.6,526.9 543.2,528.9 541.2,529.7 543.3,529.8 543.4,531.9 544.2,529.8 546.2,530.4 
		544.5,529.1 545.7,527.4 544,528.6 	"/>
	<polygon style="fill:#FFFFFF;" points="309.3,461.7 310.3,465.2 306.8,466.6 310.5,466.7 310.6,470.3 312.1,466.8 315.5,467.8 
		312.5,465.6 314.7,462.5 311.6,464.6 	"/>
	<polygon style="fill:#FFFFFF;" points="502.4,587.1 503.3,590.6 499.9,592 503.6,592.1 503.7,595.7 505.2,592.2 508.6,593.1 
		505.6,591 507.8,587.9 504.7,590 	"/>
	<polygon style="fill:#FFFFFF;" points="305.8,389.6 306.3,387.6 304.3,386.8 306.5,386.7 306.6,384.6 307.4,386.7 309.4,386.1 
		307.6,387.4 308.9,389.1 307.1,387.9 	"/>
	<polygon style="fill:#FFFFFF;" points="430.4,392.1 429.4,388.6 432.9,387.2 429.2,387.1 429.1,383.5 427.6,387 424.2,386 
		427.2,388.2 425,391.3 428.1,389.2 	"/>
	<polygon style="fill:#FFFFFF;" points="177.3,441.6 176,436.9 180.5,435.2 175.7,435 175.5,430.3 173.6,434.9 169.1,433.6 
		173,436.5 170.2,440.5 174.2,437.8 	"/>
	<polygon style="fill:#FFFFFF;" points="1733.5,171.5 1734.7,176.2 1730.2,177.9 1735.1,178.1 1735.2,182.8 1737.1,178.2 
		1741.6,179.5 1737.7,176.6 1740.6,172.6 1736.5,175.3 	"/>
	<polygon style="fill:#FFFFFF;" points="1325.6,610.7 1327.7,618.4 1320.2,621.4 1328.3,621.7 1328.5,629.4 1331.7,621.9 
		1339.1,623.9 1332.6,619.2 1337.4,612.6 1330.7,617.1 	"/>
	<polygon style="fill:#FFFFFF;" points="1676.7,954.3 1678.8,962 1671.3,964.9 1679.3,965.3 1679.6,973 1682.8,965.4 1690.1,967.5 
		1683.7,962.7 1688.4,956.1 1681.8,960.6 	"/>
	<polygon style="fill:#FFFFFF;" points="1614,650.9 1616.1,658.6 1608.6,661.5 1616.6,661.8 1616.9,669.6 1620.1,662 1627.4,664 
		1621,659.3 1625.7,652.7 1619.1,657.2 	"/>
	<polygon style="fill:#FFFFFF;" points="1888.2,1012.5 1889.6,1007.5 1884.7,1005.6 1889.9,1005.4 1890.1,1000.4 1892.1,1005.3 
		1896.9,1003.9 1892.7,1007 1895.8,1011.3 1891.5,1008.4 	"/>
	<polygon style="fill:#FFFFFF;" points="1340,358.2 1340.6,356.1 1338.6,355.4 1340.7,355.3 1340.8,353.2 1341.6,355.2 
		1343.6,354.7 1341.9,355.9 1343.1,357.7 1341.4,356.5 	"/>
	<polygon style="fill:#FFFFFF;" points="1114.3,215.3 1114.9,213.2 1112.9,212.4 1115,212.3 1115.1,210.3 1115.9,212.3 
		1117.9,211.8 1116.2,213 1117.5,214.8 1115.7,213.6 	"/>
	<line style="fill:#FFFFFF;" x1="1506.1" y1="1068.2" x2="1506.1" y2="1068.2"/>
	<path style="fill:#FFFFFF;" d="M1506.1,870.1"/>
</g>
</svg>
