<?xml version="1.0" encoding="utf-8"?>
<!-- Generator: Adobe Illustrator 20.0.0, SVG Export Plug-In . SVG Version: 6.00 Build 0)  -->
<svg version="1.1" id="Layer_1" xmlns="http://www.w3.org/2000/svg" xmlns:xlink="http://www.w3.org/1999/xlink" x="0px" y="0px"
	 viewBox="0 0 139.1 139.1" enable-background="new 0 0 139.1 139.1" xml:space="preserve">
<circle fill="#F8F7F2" cx="-833.5" cy="1752.8" r="70"/>
<g>
	<path fill="#333333" d="M-783.8,1786.3c0,1.4-1.1,2.5-2.5,2.5h-95c-1.4,0-2.5-1.1-2.5-2.5v-62c0-1.4,1.1-2.5,2.5-2.5h95
		c1.4,0,2.5,1.1,2.5,2.5V1786.3z"/>
	<rect x="-877.8" y="1726.8" fill="#F9F9FA" width="87" height="55"/>
</g>
<g>
	<line fill="none" stroke="#C9C9C9" stroke-miterlimit="10" x1="-801.3" y1="1771.8" x2="-801.3" y2="1732.8"/>
	<rect x="-804.1" y="1722.6" fill="#F68938" width="5.1" height="58.3"/>
	<rect x="-804.1" y="1719.2" fill="#F8F6F2" width="5.1" height="3.5"/>
	<path fill="#5C5C5C" d="M-798.9,1709.4h-4.1c-0.6,0-1.2,0.7-1.2,1.5v8.2h5.2V1709.4z"/>
	<rect x="-799" y="1722.6" fill="#A91E23" width="5.1" height="58.3"/>
	<rect x="-799" y="1719.2" fill="#C2C1BF" width="5.1" height="3.5"/>
	<path fill="#111111" d="M-798.9,1709.4h3.9c0.6,0,1.1,0.7,1.1,1.5v8.2h-5.1V1709.4z"/>
	<polyline fill="#F4B26D" points="-798.9,1780.9 -804.1,1780.9 -801.3,1790.6 -799.1,1790.6 	"/>
	<polyline fill="#F5A657" points="-799.1,1790.6 -796.9,1790.6 -793.9,1780.9 -799,1780.9 	"/>
	<g>
		
			<linearGradient id="SVGID_1_" gradientUnits="userSpaceOnUse" x1="-3708.6799" y1="1379.8541" x2="-3708.6799" y2="1375.4537" gradientTransform="matrix(0 -1 1 0 -2176.7236 -1916.0703)">
			<stop  offset="0.5" style="stop-color:#37474F"/>
			<stop  offset="0.5" style="stop-color:#445B65"/>
		</linearGradient>
		<path fill="url(#SVGID_1_)" d="M-801.3,1790.6c0,0,0.5,1.3,1.1,2.9c0.6,1.6,1.6,1.6,2.2,0c0.6-1.6,1.1-2.9,1.1-2.9"/>
	</g>
</g>
<rect x="-823.8" y="1756.8" fill="#090705" width="7" height="3"/>
<rect x="-815.8" y="1756.8" fill="#090705" width="8" height="3"/>
<rect x="-832.8" y="1756.8" fill="#090705" width="8" height="3"/>
<rect x="-840.8" y="1731.8" fill="#3A3B3A" width="11" height="1"/>
<rect x="-843.8" y="1735.8" fill="#3A3B3A" width="11" height="2"/>
<rect x="-830.8" y="1735.8" fill="#3A3B3A" width="11" height="2"/>
<rect x="-817.8" y="1735.8" fill="#3A3B3A" width="11" height="2"/>
<path fill="#3A3B3A" d="M-841.4,1733.7c0.1,0.1,0.2,0.1,0.2,0.3c0,0.1-0.1,0.3-0.3,0.3c-0.1,0-0.2,0-0.2-0.1l-2-1.3
	c-0.1-0.1-0.2-0.1-0.2-0.3c0-0.1,0.1-0.2,0.2-0.3l2-1.3c0.1,0,0.1-0.1,0.2-0.1c0.1,0,0.3,0.1,0.3,0.3c0,0.1-0.1,0.2-0.2,0.3
	l-1.7,1.2L-841.4,1733.7z"/>
<path fill="#3A3B3A" d="M-826.3,1732.7l-1.7-1.2c-0.1-0.1-0.2-0.1-0.2-0.3c0-0.1,0.1-0.3,0.3-0.3c0.1,0,0.1,0,0.2,0.1l2,1.3
	c0.1,0.1,0.2,0.1,0.2,0.3c0,0.1-0.1,0.2-0.2,0.3l-2,1.3c-0.1,0-0.1,0.1-0.2,0.1c-0.1,0-0.3-0.1-0.3-0.3c0-0.1,0.1-0.2,0.2-0.3
	L-826.3,1732.7z"/>
<rect x="-840.8" y="1739.8" fill="#3A3B3A" width="11" height="2"/>
<path fill="#3A3B3A" d="M-841.4,1742.4c0.1,0.1,0.2,0.1,0.2,0.3c0,0.1-0.1,0.3-0.3,0.3c-0.1,0-0.2,0-0.2-0.1l-2-1.3
	c-0.1-0.1-0.2-0.1-0.2-0.3c0-0.1,0.1-0.2,0.2-0.3l2-1.3c0.1,0,0.1-0.1,0.2-0.1c0.1,0,0.3,0.1,0.3,0.3c0,0.1-0.1,0.2-0.2,0.3
	l-1.7,1.2L-841.4,1742.4z"/>
<path fill="#3A3B3A" d="M-826.3,1741.4l-1.7-1.2c-0.1-0.1-0.2-0.1-0.2-0.3c0-0.1,0.1-0.3,0.3-0.3c0.1,0,0.1,0,0.2,0.1l2,1.3
	c0.1,0.1,0.2,0.1,0.2,0.3c0,0.1-0.1,0.2-0.2,0.3l-2,1.3c-0.1,0-0.1,0.1-0.2,0.1c-0.1,0-0.3-0.1-0.3-0.3c0-0.1,0.1-0.2,0.2-0.3
	L-826.3,1741.4z"/>
<line fill="none" stroke="#010101" stroke-miterlimit="10" x1="-833.8" y1="1764.3" x2="-807.8" y2="1764.3"/>
<line fill="none" stroke="#010101" stroke-miterlimit="10" x1="-833.8" y1="1767.3" x2="-807.8" y2="1767.3"/>
<line fill="none" stroke="#010101" stroke-miterlimit="10" x1="-833.8" y1="1770.3" x2="-807.8" y2="1770.3"/>
<line fill="none" stroke="#010101" stroke-miterlimit="10" x1="-840.8" y1="1773.3" x2="-807.8" y2="1773.3"/>
<g>
	<rect x="-876.5" y="1760" fill="#333333" width="38.4" height="2.3"/>
	<rect x="-876.5" y="1758.3" fill="#333333" width="4.4" height="5.1"/>
	<g>
		<rect x="-861.2" y="1707.8" fill="#676766" width="6.6" height="11.4"/>
		<rect x="-860" y="1719.2" fill="#333333" width="4.1" height="3.4"/>
		<path fill="#8F8F8F" d="M-857.9,1722c-6.1,0-11,4.9-11,11c0,6.1,4.9,11,11,11c6.1,0,11-4.9,11-11
			C-846.9,1726.9-851.9,1722-857.9,1722z M-857.9,1741.9c-4.9,0-8.9-4-8.9-8.9c0-4.9,4-8.9,8.9-8.9c4.9,0,8.9,4,8.9,8.9
			C-849,1737.9-853,1741.9-857.9,1741.9z"/>
		
			<rect x="-889.7" y="1761.1" transform="matrix(0.2938 -0.9559 0.9559 0.2938 -2298.5837 415.691)" fill="#8F8F8F" width="43.4" height="4.5"/>
		
			<rect x="-849.5" y="1741.5" transform="matrix(0.9608 -0.2772 0.2772 0.9608 -521.9999 -165.7743)" fill="#8F8F8F" width="4.5" height="43.4"/>
		<polygon fill="#FDFEFF" points="-876.6,1794.7 -876.6,1794.7 -875.7,1783.1 -873.2,1783.9 		"/>
		<polygon fill="#FDFEFF" points="-839.1,1795 -839.1,1795 -840,1783.4 -842.5,1784.2 		"/>
		<rect x="-842.2" y="1758.7" fill="#333333" width="4.4" height="5.1"/>
		<path fill="#333333" d="M-854.9,1767.1c0,1.1-0.9,2.1-2.1,2.1l0,0c-1.1,0-2.1-0.9-2.1-2.1v-12.2c0-1.1,0.9-2.1,2.1-2.1l0,0
			c1.1,0,2.1,0.9,2.1,2.1V1767.1z"/>
	</g>
</g>
<circle fill="#F8F7F2" cx="69.9" cy="69.8" r="69.6"/>
<path fill="#333333" d="M123.2,101.3c0,1.4-1.1,2.5-2.5,2.5h-95c-1.4,0-2.5-1.1-2.5-2.5v-62c0-1.4,1.1-2.5,2.5-2.5h95
	c1.4,0,2.5,1.1,2.5,2.5V101.3z"/>
<linearGradient id="SVGID_2_" gradientUnits="userSpaceOnUse" x1="72.6943" y1="40.8086" x2="72.6943" y2="95.8086">
	<stop  offset="0.3309" style="stop-color:#2BAA4A"/>
	<stop  offset="0.3409" style="stop-color:#FDE9E9"/>
</linearGradient>
<rect x="29.2" y="40.8" fill="url(#SVGID_2_)" width="87" height="55"/>
<rect x="6.2" y="74.8" fill="#475059" width="127" height="14"/>
<line opacity="0.5" fill="none" stroke="#A3A1A1" stroke-miterlimit="10" x1="9.7" y1="74.8" x2="9.7" y2="76.8"/>
<line opacity="0.5" fill="none" stroke="#A3A1A1" stroke-miterlimit="10" x1="7.7" y1="74.8" x2="7.7" y2="76.8"/>
<line opacity="0.5" fill="none" stroke="#A3A1A1" stroke-miterlimit="10" x1="11.7" y1="74.8" x2="11.7" y2="76.8"/>
<line opacity="0.5" fill="none" stroke="#A3A1A1" stroke-miterlimit="10" x1="13.7" y1="74.8" x2="13.7" y2="76.8"/>
<line opacity="0.5" fill="none" stroke="#A3A1A1" stroke-miterlimit="10" x1="15.7" y1="74.8" x2="15.7" y2="77.8"/>
<line opacity="0.5" fill="none" stroke="#A3A1A1" stroke-miterlimit="10" x1="17.7" y1="74.8" x2="17.7" y2="76.8"/>
<line opacity="0.5" fill="none" stroke="#A3A1A1" stroke-miterlimit="10" x1="19.7" y1="74.8" x2="19.7" y2="76.8"/>
<line opacity="0.5" fill="none" stroke="#A3A1A1" stroke-miterlimit="10" x1="21.7" y1="74.8" x2="21.7" y2="77.8"/>
<line opacity="0.5" fill="none" stroke="#A3A1A1" stroke-miterlimit="10" x1="23.7" y1="74.8" x2="23.7" y2="76.8"/>
<line opacity="0.5" fill="none" stroke="#A3A1A1" stroke-miterlimit="10" x1="25.7" y1="74.8" x2="25.7" y2="76.8"/>
<line opacity="0.5" fill="none" stroke="#A3A1A1" stroke-miterlimit="10" x1="27.7" y1="74.8" x2="27.7" y2="76.8"/>
<line opacity="0.5" fill="none" stroke="#A3A1A1" stroke-miterlimit="10" x1="29.7" y1="74.8" x2="29.7" y2="77.8"/>
<line opacity="0.5" fill="none" stroke="#A3A1A1" stroke-miterlimit="10" x1="31.7" y1="74.8" x2="31.7" y2="76.8"/>
<line opacity="0.5" fill="none" stroke="#A3A1A1" stroke-miterlimit="10" x1="33.7" y1="74.8" x2="33.7" y2="76.8"/>
<line opacity="0.5" fill="none" stroke="#A3A1A1" stroke-miterlimit="10" x1="35.7" y1="74.8" x2="35.7" y2="76.8"/>
<line opacity="0.5" fill="none" stroke="#A3A1A1" stroke-miterlimit="10" x1="37.7" y1="74.8" x2="37.7" y2="77.8"/>
<line opacity="0.5" fill="none" stroke="#A3A1A1" stroke-miterlimit="10" x1="39.7" y1="74.8" x2="39.7" y2="76.8"/>
<line opacity="0.5" fill="none" stroke="#A3A1A1" stroke-miterlimit="10" x1="41.7" y1="74.8" x2="41.7" y2="76.8"/>
<line opacity="0.5" fill="none" stroke="#A3A1A1" stroke-miterlimit="10" x1="43.7" y1="74.8" x2="43.7" y2="76.8"/>
<line opacity="0.5" fill="none" stroke="#A3A1A1" stroke-miterlimit="10" x1="45.7" y1="74.8" x2="45.7" y2="76.8"/>
<line opacity="0.5" fill="none" stroke="#A3A1A1" stroke-miterlimit="10" x1="47.7" y1="74.8" x2="47.7" y2="76.8"/>
<line opacity="0.5" fill="none" stroke="#A3A1A1" stroke-miterlimit="10" x1="49.7" y1="74.8" x2="49.7" y2="76.8"/>
<line opacity="0.5" fill="none" stroke="#A3A1A1" stroke-miterlimit="10" x1="51.7" y1="74.8" x2="51.7" y2="76.8"/>
<line opacity="0.5" fill="none" stroke="#A3A1A1" stroke-miterlimit="10" x1="52.7" y1="74.8" x2="52.7" y2="77.8"/>
<line opacity="0.5" fill="none" stroke="#A3A1A1" stroke-miterlimit="10" x1="54.7" y1="74.8" x2="54.7" y2="76.8"/>
<line opacity="0.5" fill="none" stroke="#A3A1A1" stroke-miterlimit="10" x1="55.7" y1="74.8" x2="55.7" y2="76.8"/>
<line opacity="0.5" fill="none" stroke="#A3A1A1" stroke-miterlimit="10" x1="57.7" y1="74.8" x2="57.7" y2="76.8"/>
<line opacity="0.5" fill="none" stroke="#A3A1A1" stroke-miterlimit="10" x1="58.7" y1="74.8" x2="58.7" y2="76.8"/>
<line opacity="0.5" fill="none" stroke="#A3A1A1" stroke-miterlimit="10" x1="60.7" y1="74.8" x2="60.7" y2="77.8"/>
<line opacity="0.5" fill="none" stroke="#A3A1A1" stroke-miterlimit="10" x1="61.7" y1="74.8" x2="61.7" y2="76.8"/>
<line opacity="0.5" fill="none" stroke="#A3A1A1" stroke-miterlimit="10" x1="63.7" y1="74.8" x2="63.7" y2="76.8"/>
<line opacity="0.5" fill="none" stroke="#A3A1A1" stroke-miterlimit="10" x1="64.7" y1="74.8" x2="64.7" y2="76.8"/>
<line opacity="0.5" fill="none" stroke="#A3A1A1" stroke-miterlimit="10" x1="66.7" y1="74.8" x2="66.7" y2="76.8"/>
<line opacity="0.5" fill="none" stroke="#A3A1A1" stroke-miterlimit="10" x1="67.7" y1="74.8" x2="67.7" y2="77.8"/>
<line opacity="0.5" fill="none" stroke="#A3A1A1" stroke-miterlimit="10" x1="69.7" y1="74.8" x2="69.7" y2="76.8"/>
<line opacity="0.5" fill="none" stroke="#A3A1A1" stroke-miterlimit="10" x1="70.7" y1="74.8" x2="70.7" y2="76.8"/>
<line opacity="0.5" fill="none" stroke="#A3A1A1" stroke-miterlimit="10" x1="72.7" y1="74.8" x2="72.7" y2="76.8"/>
<line opacity="0.5" fill="none" stroke="#A3A1A1" stroke-miterlimit="10" x1="73.7" y1="74.8" x2="73.7" y2="76.8"/>
<line opacity="0.5" fill="none" stroke="#A3A1A1" stroke-miterlimit="10" x1="75.7" y1="74.8" x2="75.7" y2="77.8"/>
<line opacity="0.5" fill="none" stroke="#A3A1A1" stroke-miterlimit="10" x1="76.7" y1="74.8" x2="76.7" y2="76.8"/>
<line opacity="0.5" fill="none" stroke="#A3A1A1" stroke-miterlimit="10" x1="78.7" y1="74.8" x2="78.7" y2="76.8"/>
<line opacity="0.5" fill="none" stroke="#A3A1A1" stroke-miterlimit="10" x1="79.7" y1="74.8" x2="79.7" y2="76.8"/>
<line opacity="0.5" fill="none" stroke="#A3A1A1" stroke-miterlimit="10" x1="81.7" y1="74.8" x2="81.7" y2="76.8"/>
<line opacity="0.5" fill="none" stroke="#A3A1A1" stroke-miterlimit="10" x1="82.7" y1="74.8" x2="82.7" y2="77.8"/>
<line opacity="0.5" fill="none" stroke="#A3A1A1" stroke-miterlimit="10" x1="84.7" y1="74.8" x2="84.7" y2="76.8"/>
<line opacity="0.5" fill="none" stroke="#A3A1A1" stroke-miterlimit="10" x1="85.7" y1="74.8" x2="85.7" y2="76.8"/>
<line opacity="0.5" fill="none" stroke="#A3A1A1" stroke-miterlimit="10" x1="87.7" y1="74.8" x2="87.7" y2="76.8"/>
<line opacity="0.5" fill="none" stroke="#A3A1A1" stroke-miterlimit="10" x1="88.7" y1="74.8" x2="88.7" y2="76.8"/>
<line opacity="0.5" fill="none" stroke="#A3A1A1" stroke-miterlimit="10" x1="90.7" y1="74.8" x2="90.7" y2="77.8"/>
<line opacity="0.5" fill="none" stroke="#A3A1A1" stroke-miterlimit="10" x1="91.7" y1="74.8" x2="91.7" y2="76.8"/>
<line opacity="0.5" fill="none" stroke="#A3A1A1" stroke-miterlimit="10" x1="93.7" y1="74.8" x2="93.7" y2="76.8"/>
<line opacity="0.5" fill="none" stroke="#A3A1A1" stroke-miterlimit="10" x1="94.7" y1="74.8" x2="94.7" y2="76.8"/>
<line opacity="0.5" fill="none" stroke="#A3A1A1" stroke-miterlimit="10" x1="96.7" y1="74.8" x2="96.7" y2="76.8"/>
<line opacity="0.5" fill="none" stroke="#A3A1A1" stroke-miterlimit="10" x1="97.7" y1="74.8" x2="97.7" y2="77.8"/>
<line opacity="0.5" fill="none" stroke="#A3A1A1" stroke-miterlimit="10" x1="99.7" y1="74.8" x2="99.7" y2="76.8"/>
<line opacity="0.5" fill="none" stroke="#A3A1A1" stroke-miterlimit="10" x1="100.7" y1="74.8" x2="100.7" y2="76.8"/>
<line opacity="0.5" fill="none" stroke="#A3A1A1" stroke-miterlimit="10" x1="102.7" y1="74.8" x2="102.7" y2="76.8"/>
<line opacity="0.5" fill="none" stroke="#A3A1A1" stroke-miterlimit="10" x1="103.7" y1="74.8" x2="103.7" y2="76.8"/>
<line opacity="0.5" fill="none" stroke="#A3A1A1" stroke-miterlimit="10" x1="105.7" y1="74.8" x2="105.7" y2="77.8"/>
<line opacity="0.5" fill="none" stroke="#A3A1A1" stroke-miterlimit="10" x1="106.7" y1="74.8" x2="106.7" y2="76.8"/>
<line opacity="0.5" fill="none" stroke="#A3A1A1" stroke-miterlimit="10" x1="108.7" y1="74.8" x2="108.7" y2="76.8"/>
<line opacity="0.5" fill="none" stroke="#A3A1A1" stroke-miterlimit="10" x1="109.7" y1="74.8" x2="109.7" y2="76.8"/>
<line opacity="0.5" fill="none" stroke="#A3A1A1" stroke-miterlimit="10" x1="111.7" y1="74.8" x2="111.7" y2="76.8"/>
<line opacity="0.5" fill="none" stroke="#A3A1A1" stroke-miterlimit="10" x1="112.7" y1="74.8" x2="112.7" y2="77.8"/>
<line opacity="0.5" fill="none" stroke="#A3A1A1" stroke-miterlimit="10" x1="114.7" y1="74.8" x2="114.7" y2="76.8"/>
<line opacity="0.5" fill="none" stroke="#A3A1A1" stroke-miterlimit="10" x1="115.7" y1="74.8" x2="115.7" y2="76.8"/>
<line opacity="0.5" fill="none" stroke="#A3A1A1" stroke-miterlimit="10" x1="117.7" y1="74.8" x2="117.7" y2="76.8"/>
<line opacity="0.5" fill="none" stroke="#A3A1A1" stroke-miterlimit="10" x1="118.7" y1="74.8" x2="118.7" y2="76.8"/>
<line opacity="0.5" fill="none" stroke="#A3A1A1" stroke-miterlimit="10" x1="120.7" y1="74.8" x2="120.7" y2="77.8"/>
<line opacity="0.5" fill="none" stroke="#A3A1A1" stroke-miterlimit="10" x1="121.7" y1="74.8" x2="121.7" y2="76.8"/>
<line opacity="0.5" fill="none" stroke="#A3A1A1" stroke-miterlimit="10" x1="123.7" y1="74.8" x2="123.7" y2="76.8"/>
<line opacity="0.5" fill="none" stroke="#A3A1A1" stroke-miterlimit="10" x1="124.7" y1="74.8" x2="124.7" y2="76.8"/>
<line opacity="0.5" fill="none" stroke="#A3A1A1" stroke-miterlimit="10" x1="126.7" y1="74.8" x2="126.7" y2="76.8"/>
<line opacity="0.5" fill="none" stroke="#A3A1A1" stroke-miterlimit="10" x1="127.7" y1="74.8" x2="127.7" y2="77.8"/>
<line opacity="0.5" fill="none" stroke="#A3A1A1" stroke-miterlimit="10" x1="129.7" y1="74.8" x2="129.7" y2="76.8"/>
<line opacity="0.5" fill="none" stroke="#A3A1A1" stroke-miterlimit="10" x1="130.7" y1="74.8" x2="130.7" y2="76.8"/>
<line opacity="0.5" fill="none" stroke="#A3A1A1" stroke-miterlimit="10" x1="132.7" y1="74.8" x2="132.7" y2="76.8"/>
<line opacity="0.5" fill="none" stroke="#A3A1A1" stroke-miterlimit="10" x1="120.7" y1="88.8" x2="120.7" y2="82.8"/>
<line opacity="0.5" fill="none" stroke="#A3A1A1" stroke-miterlimit="10" x1="126.7" y1="88.8" x2="126.7" y2="82.8"/>
<line opacity="0.5" fill="none" stroke="#A3A1A1" stroke-miterlimit="10" x1="132.7" y1="88.8" x2="132.7" y2="82.8"/>
<line opacity="0.5" fill="none" stroke="#A3A1A1" stroke-miterlimit="10" x1="112.7" y1="88.8" x2="112.7" y2="82.8"/>
<line opacity="0.5" fill="none" stroke="#A3A1A1" stroke-miterlimit="10" x1="105.7" y1="88.8" x2="105.7" y2="82.8"/>
<line opacity="0.5" fill="none" stroke="#A3A1A1" stroke-miterlimit="10" x1="97.7" y1="88.8" x2="97.7" y2="82.8"/>
<line opacity="0.5" fill="none" stroke="#A3A1A1" stroke-miterlimit="10" x1="90.7" y1="88.8" x2="90.7" y2="82.8"/>
<line opacity="0.5" fill="none" stroke="#A3A1A1" stroke-miterlimit="10" x1="82.7" y1="88.8" x2="82.7" y2="82.8"/>
<line opacity="0.5" fill="none" stroke="#A3A1A1" stroke-miterlimit="10" x1="75.7" y1="88.8" x2="75.7" y2="82.8"/>
<line opacity="0.5" fill="none" stroke="#A3A1A1" stroke-miterlimit="10" x1="67.7" y1="88.8" x2="67.7" y2="82.8"/>
<line opacity="0.5" fill="none" stroke="#A3A1A1" stroke-miterlimit="10" x1="60.7" y1="88.8" x2="60.7" y2="82.8"/>
<line opacity="0.5" fill="none" stroke="#A3A1A1" stroke-miterlimit="10" x1="52.7" y1="88.8" x2="52.7" y2="82.8"/>
<line opacity="0.5" fill="none" stroke="#A3A1A1" stroke-miterlimit="10" x1="45.7" y1="88.8" x2="45.7" y2="82.8"/>
<line opacity="0.5" fill="none" stroke="#A3A1A1" stroke-miterlimit="10" x1="37.7" y1="88.8" x2="37.7" y2="82.8"/>
<line opacity="0.5" fill="none" stroke="#A3A1A1" stroke-miterlimit="10" x1="30.7" y1="88.8" x2="30.7" y2="82.8"/>
<line opacity="0.5" fill="none" stroke="#A3A1A1" stroke-miterlimit="10" x1="16.7" y1="88.8" x2="16.7" y2="82.8"/>
<line opacity="0.5" fill="none" stroke="#A3A1A1" stroke-miterlimit="10" x1="7.7" y1="88.8" x2="7.7" y2="84.8"/>
<line opacity="0.5" fill="none" stroke="#A3A1A1" stroke-miterlimit="10" x1="11.7" y1="88.8" x2="11.7" y2="84.8"/>
<line opacity="0.5" fill="none" stroke="#A3A1A1" stroke-miterlimit="10" x1="20.7" y1="88.8" x2="20.7" y2="84.8"/>
<line opacity="0.5" fill="none" stroke="#A3A1A1" stroke-miterlimit="10" x1="24.7" y1="88.8" x2="24.7" y2="84.8"/>
<rect x="23.5" y="45.6" fill="#FBD737" width="91.6" height="5.8"/>
<rect x="115.2" y="45.8" fill="#F8F6F2" width="4.2" height="5.8"/>
<path fill="#D64527" d="M131.4,51.6v-4.6c0-0.7-0.8-1.3-1.9-1.3h-10.1v5.9H131.4z"/>
<rect x="23.4" y="51.5" fill="#F8BF2B" width="91.6" height="5.8"/>
<rect x="115.2" y="51.6" fill="#F8F6F2" width="4.2" height="5.8"/>
<path fill="#BC3A26" d="M131.4,51.6v4.6c0,0.7-0.8,1.3-1.9,1.3h-10.1v-5.9H131.4z"/>
<polyline fill="#F4B26D" points="23.5,51.5 23.5,45.6 11.6,48.9 11.6,51.4 "/>
<polyline fill="#F5A657" points="11.6,51.3 11.6,53.8 23.5,57.2 23.5,51.5 "/>
<linearGradient id="SVGID_3_" gradientUnits="userSpaceOnUse" x1="8410.4619" y1="12016.3281" x2="8410.4619" y2="12011.3516" gradientTransform="matrix(1 0 0 1 -8401.3203 -11962.584)">
	<stop  offset="0.5" style="stop-color:#37474F"/>
	<stop  offset="0.5" style="stop-color:#445B65"/>
</linearGradient>
<path fill="url(#SVGID_3_)" d="M11.6,48.8c0,0-1.6,0.6-3.5,1.2c-1.9,0.7-1.9,1.8,0,2.5c1.9,0.7,3.5,1.2,3.5,1.2"/>
<rect x="51.2" y="26.8" fill="#E6E4E4" width="63" height="89"/>
<rect x="54.2" y="35.8" fill="#FFFFFF" width="57" height="78"/>
<rect x="51.2" y="30.8" fill="#FBD737" width="63" height="5"/>
<rect x="51.2" y="28.8" fill="#E6E4E4" width="63" height="2"/>
<rect x="57.2" y="29.8" fill="#FFFFFF" width="51" height="1"/>
<rect x="109.2" y="29.8" fill="#FFFFFF" width="3" height="1"/>
<rect x="111.8" y="29.7" fill="#FFFFFF" width="2" height="1"/>
<rect x="52.3" y="29.7" fill="#FFFFFF" width="1.5" height="1"/>
<rect x="54.3" y="29.7" fill="#FFFFFF" width="1.5" height="1"/>
<rect x="51.2" y="26.8" fill="#F5835F" width="6" height="1"/>
<rect x="57.2" y="26.8" fill="#475059" width="12" height="1"/>
<rect x="69.2" y="26.8" fill="#CCCAC9" width="14" height="1"/>
<rect x="57.2" y="38.8" fill="#D64527" width="51" height="3"/>
<rect x="102.2" y="38.8" fill="#475059" width="6" height="3"/>
<rect x="86.2" y="38.8" fill="#FFFFFF" width="15" height="3"/>
<rect x="58.2" y="39.8" fill="#FFFFFF" width="5" height="1"/>
<rect x="64.2" y="39.8" fill="#FFFFFF" width="4" height="1"/>
<rect x="69.2" y="39.8" fill="#FFFFFF" width="4" height="1"/>
<rect x="74.2" y="39.8" fill="#FFFFFF" width="4" height="1"/>
<rect x="54.2" y="32.8" fill="#FFFFFF" width="14" height="1"/>
<rect x="74.2" y="32.8" fill="#FFFFFF" width="3" height="1"/>
<rect x="79.2" y="32.8" fill="#FFFFFF" width="4" height="1"/>
<rect x="94.2" y="32.8" fill="#FFFFFF" width="6" height="1"/>
<rect x="102.2" y="32.8" fill="#FFFFFF" width="6" height="1"/>
<rect x="109.2" y="32.8" fill="#475059" width="4" height="1"/>
<rect x="66.2" y="43.8" fill="#D64527" width="5" height="4"/>
<rect x="76.2" y="43.8" fill="#D64527" width="4" height="4"/>
<rect x="85.2" y="43.8" fill="#D64527" width="5" height="4"/>
<rect x="94.2" y="43.8" fill="#D64527" width="5" height="4"/>
<line fill="none" stroke="#010101" stroke-miterlimit="10" x1="75.2" y1="49.3" x2="81.2" y2="49.3"/>
<line fill="#FFFFFF" stroke="#010101" stroke-miterlimit="10" x1="75.2" y1="49.3" x2="81.2" y2="49.3"/>
<line fill="#FFFFFF" stroke="#010101" stroke-miterlimit="10" x1="77.2" y1="50.3" x2="80.2" y2="50.3"/>
<line fill="none" stroke="#010101" stroke-miterlimit="10" x1="66.2" y1="49.3" x2="71.2" y2="49.3"/>
<line fill="#FFFFFF" stroke="#010101" stroke-miterlimit="10" x1="66.2" y1="49.3" x2="71.2" y2="49.3"/>
<line fill="#FFFFFF" stroke="#010101" stroke-miterlimit="10" x1="68.2" y1="50.3" x2="71.2" y2="50.3"/>
<line fill="#FFFFFF" stroke="#010101" stroke-miterlimit="10" x1="85.2" y1="49.3" x2="91.2" y2="49.3"/>
<line fill="#FFFFFF" stroke="#010101" stroke-miterlimit="10" x1="85.2" y1="49.3" x2="91.2" y2="49.3"/>
<line fill="#FFFFFF" stroke="#010101" stroke-miterlimit="10" x1="86.2" y1="50.3" x2="88.2" y2="50.3"/>
<line fill="#FFFFFF" stroke="#010101" stroke-miterlimit="10" x1="94.2" y1="49.3" x2="100.2" y2="49.3"/>
<line fill="#FFFFFF" stroke="#010101" stroke-miterlimit="10" x1="94.2" y1="49.3" x2="100.2" y2="49.3"/>
<line fill="#FFFFFF" stroke="#010101" stroke-miterlimit="10" x1="95.2" y1="50.3" x2="98.2" y2="50.3"/>
<rect x="54.2" y="53.8" fill="#FEC76E" width="57" height="22"/>
<rect x="63.2" y="58.8" fill="#FFFFFF" width="13" height="12"/>
<line fill="none" stroke="#010101" stroke-miterlimit="10" x1="77.2" y1="61.3" x2="102.2" y2="61.3"/>
<line fill="none" stroke="#010101" stroke-miterlimit="10" x1="77.8" y1="62.7" x2="102.9" y2="62.9"/>
<line fill="none" stroke="#010101" stroke-miterlimit="10" x1="77.2" y1="63.3" x2="102.2" y2="63.3"/>
<line fill="none" stroke="#010101" stroke-miterlimit="10" x1="77.2" y1="65.3" x2="99.2" y2="65.3"/>
<rect x="77.2" y="58.8" fill="#F5835F" width="16" height="1"/>
<polygon fill="#FFFFFF" points="106.2,64.5 106.2,63.4 106.9,63.9 107.5,64.5 106.9,65 106.2,65.6 "/>
<polygon fill="#FFFFFF" points="59.2,64.2 59.2,65.3 58.8,64.8 58.3,64.2 58.8,63.7 59.2,63.1 "/>
<rect x="57.2" y="78.8" fill="#FEC76E" width="14" height="9"/>
<rect x="75.2" y="79.8" fill="#475059" width="15" height="9"/>
<rect x="94.2" y="78.8" fill="#F5835F" width="14" height="9"/>
<rect x="57.2" y="89.8" fill="#475059" width="14" height="2"/>
<rect x="75.2" y="89.8" fill="#475059" width="15" height="2"/>
<rect x="94.2" y="89.8" fill="#475059" width="14" height="2"/>
<line fill="none" stroke="#010101" stroke-miterlimit="10" x1="57.2" y1="93.3" x2="71.2" y2="93.3"/>
<line fill="none" stroke="#010101" stroke-miterlimit="10" x1="57.2" y1="94.3" x2="71.2" y2="94.3"/>
<line fill="none" stroke="#010101" stroke-miterlimit="10" x1="60.2" y1="96.3" x2="66.2" y2="96.3"/>
<line fill="none" stroke="#010101" stroke-miterlimit="10" x1="75.2" y1="93.3" x2="90.2" y2="93.3"/>
<line fill="none" stroke="#010101" stroke-miterlimit="10" x1="75.2" y1="94.3" x2="90.2" y2="94.3"/>
<line fill="none" stroke="#010101" stroke-miterlimit="10" x1="80.2" y1="96.3" x2="86.2" y2="96.3"/>
<line fill="none" stroke="#010101" stroke-miterlimit="10" x1="94.2" y1="93.3" x2="108.2" y2="93.3"/>
<line fill="none" stroke="#010101" stroke-miterlimit="10" x1="94.2" y1="94.3" x2="108.2" y2="94.3"/>
<line fill="none" stroke="#010101" stroke-miterlimit="10" x1="98.2" y1="97.3" x2="105.2" y2="97.3"/>
<rect x="57.2" y="99.8" fill="#475059" width="6" height="5"/>
<line fill="none" stroke="#010101" stroke-miterlimit="10" x1="65.2" y1="99.3" x2="71.2" y2="99.3"/>
<line fill="none" stroke="#010101" stroke-miterlimit="10" x1="65.2" y1="101.3" x2="71.2" y2="101.3"/>
<line fill="none" stroke="#010101" stroke-miterlimit="10" x1="65.2" y1="103.3" x2="69.2" y2="103.3"/>
<line fill="none" stroke="#190B0C" stroke-miterlimit="10" x1="57.2" y1="106.3" x2="71.2" y2="106.3"/>
<line fill="none" stroke="#190B0C" stroke-miterlimit="10" x1="57.2" y1="107.3" x2="71.2" y2="107.3"/>
<line fill="none" stroke="#190B0C" stroke-miterlimit="10" x1="57.2" y1="109.3" x2="71.2" y2="109.3"/>
<line fill="none" stroke="#190B0C" stroke-miterlimit="10" x1="57.2" y1="111.3" x2="66.2" y2="111.3"/>
<rect x="75.2" y="99.8" fill="#FEC76E" width="15" height="10"/>
<line fill="none" stroke="#010101" stroke-miterlimit="10" x1="94.2" y1="99.3" x2="101.2" y2="99.3"/>
<line fill="none" stroke="#010101" stroke-miterlimit="10" x1="94.2" y1="101.3" x2="108.2" y2="101.3"/>
<line fill="none" stroke="#010101" stroke-miterlimit="10" x1="94.2" y1="102.3" x2="108.2" y2="102.3"/>
<line fill="none" stroke="#010101" stroke-miterlimit="10" x1="94.2" y1="103.3" x2="108.2" y2="103.3"/>
<line fill="none" stroke="#010101" stroke-miterlimit="10" x1="94.2" y1="105.3" x2="108.2" y2="105.3"/>
<line fill="none" stroke="#010101" stroke-miterlimit="10" x1="97.2" y1="107.3" x2="105.2" y2="107.3"/>
<rect x="94.2" y="108.8" fill="#475059" width="10" height="1"/>
<rect x="104.2" y="108.8" fill="#FEC76E" width="4" height="1"/>
<rect x="26.2" y="76.8" fill="#333333" width="24" height="42"/>
<linearGradient id="SVGID_4_" gradientUnits="userSpaceOnUse" x1="37.6943" y1="78.8086" x2="37.6943" y2="114.8086">
	<stop  offset="0.3309" style="stop-color:#2BAA4A"/>
	<stop  offset="0.3409" style="stop-color:#FDE9E9"/>
</linearGradient>
<rect x="26.2" y="78.8" fill="url(#SVGID_4_)" width="23" height="36"/>
<circle fill="#FFFFFF" cx="38.1" cy="117.1" r="1.3"/>
<rect x="26.2" y="77.8" fill="#E6E4E4" width="23" height="37"/>
<rect x="27.2" y="81.8" fill="#FFFFFF" width="21" height="33"/>
<rect x="26.2" y="79.8" fill="#FBD737" width="23" height="2"/>
<rect x="26.2" y="78.8" fill="#E6E4E4" width="23" height="1"/>
<rect x="28.2" y="78.8" fill="#FFFFFF" width="19" height="1"/>
<rect x="47.6" y="79.5" fill="#FFFFFF" width="0.7" height="0.4"/>
<rect x="48.3" y="79.5" fill="#FFFFFF" width="0.7" height="0.4"/>
<rect x="26.7" y="79.4" fill="#FFFFFF" width="0.5" height="0.4"/>
<rect x="27.4" y="79.4" fill="#FFFFFF" width="0.5" height="0.4"/>
<rect x="26.3" y="78.2" fill="#F5835F" width="2" height="0.5"/>
<rect x="28.2" y="77.8" fill="#475059" width="5" height="1"/>
<rect x="33.2" y="77.8" fill="#CCCAC9" width="5" height="1"/>
<rect x="28.2" y="82.8" fill="#D64527" width="19" height="1"/>
<rect x="45.3" y="83.2" fill="#475059" width="1.5" height="1"/>
<rect x="39.2" y="82.8" fill="#FFFFFF" width="6" height="1"/>
<rect x="28.8" y="83.2" fill="#FFFFFF" width="1.5" height="1"/>
<rect x="30.3" y="83.2" fill="#FFFFFF" width="2" height="1"/>
<rect x="32.8" y="83.2" fill="#FFFFFF" width="1.5" height="1"/>
<rect x="34.8" y="83.2" fill="#FFFFFF" width="1.5" height="1"/>
<polygon fill="#FFFFFF" points="31.9,80.8 26.9,80.8 26.9,80.8 31.9,80.8 "/>
<rect x="34.3" y="80.7" fill="#FFFFFF" width="1.5" height="0.5"/>
<rect x="36.6" y="80.8" fill="#FFFFFF" width="0.9" height="0.6"/>
<polygon fill="#FFFFFF" points="43.9,81 41.9,81 41.9,81 43.9,81 "/>
<rect x="45.3" y="80.7" fill="#FFFFFF" width="2" height="0.5"/>
<rect x="47.3" y="80.7" fill="#475059" width="1.5" height="0.5"/>
<rect x="31.9" y="85" fill="#D64527" width="2" height="2"/>
<rect x="34.9" y="85" fill="#D64527" width="2" height="2"/>
<rect x="38.9" y="85" fill="#D64527" width="1" height="2"/>
<rect x="41.9" y="85" fill="#D64527" width="2" height="2"/>
<line fill="none" stroke="#010101" stroke-miterlimit="10" x1="35.2" y1="87.3" x2="37.2" y2="87.3"/>
<line fill="#FFFFFF" stroke="#010101" stroke-miterlimit="10" x1="35.2" y1="87.3" x2="37.2" y2="87.3"/>
<line fill="#FFFFFF" stroke="#010101" stroke-miterlimit="10" x1="36.2" y1="88.3" x2="37.2" y2="88.3"/>
<line fill="none" stroke="#010101" stroke-miterlimit="10" x1="32.2" y1="87.3" x2="34.2" y2="87.3"/>
<line fill="#FFFFFF" stroke="#010101" stroke-miterlimit="10" x1="32.2" y1="88.3" x2="33.2" y2="88.3"/>
<line fill="#FFFFFF" stroke="#010101" stroke-miterlimit="10" x1="39.2" y1="87.3" x2="41.2" y2="87.3"/>
<line fill="#FFFFFF" stroke="#010101" stroke-miterlimit="10" x1="39.2" y1="87.3" x2="41.2" y2="87.3"/>
<line fill="#FFFFFF" stroke="#010101" stroke-miterlimit="10" x1="39.2" y1="88.3" x2="40.2" y2="88.3"/>
<line fill="#FFFFFF" stroke="#010101" stroke-miterlimit="10" x1="42.2" y1="87.3" x2="44.2" y2="87.3"/>
<line fill="#FFFFFF" stroke="#010101" stroke-miterlimit="10" x1="42.2" y1="87.3" x2="44.2" y2="87.3"/>
<line fill="#FFFFFF" stroke="#010101" stroke-miterlimit="10" x1="42.2" y1="88.3" x2="44.2" y2="88.3"/>
<rect x="27.2" y="88.8" fill="#FEC76E" width="21" height="9"/>
<rect x="30.2" y="91.8" fill="#FFFFFF" width="5" height="4"/>
<line fill="none" stroke="#010101" stroke-miterlimit="10" x1="36.2" y1="92.3" x2="45.2" y2="92.3"/>
<line fill="none" stroke="#010101" stroke-miterlimit="10" x1="36" y1="93.1" x2="45.2" y2="93.1"/>
<line fill="none" stroke="#010101" stroke-miterlimit="10" x1="36.2" y1="93.3" x2="45.2" y2="93.3"/>
<line fill="none" stroke="#010101" stroke-miterlimit="10" x1="36.2" y1="94.3" x2="44.2" y2="94.3"/>
<polygon fill="#F5835F" points="40.9,91.8 35.9,91.8 35.9,91.8 40.9,91.8 "/>
<polygon fill="#FFFFFF" points="46.3,93.8 46.3,93.3 46.6,93.6 46.8,93.8 46.5,94 46.3,94.3 "/>
<polygon fill="#FFFFFF" points="29.4,93.7 29.4,94.2 29.1,93.9 28.9,93.7 29.1,93.5 29.4,93.2 "/>
<rect x="28.2" y="99.8" fill="#FEC76E" width="6" height="4"/>
<rect x="35.2" y="99.8" fill="#475059" width="5" height="4"/>
<rect x="42.2" y="99.8" fill="#F5835F" width="5" height="4"/>
<rect x="28.2" y="103.8" fill="#475059" width="6" height="1"/>
<rect x="35.2" y="103.8" fill="#475059" width="5" height="1"/>
<rect x="42.2" y="103.8" fill="#475059" width="5" height="1"/>
<line fill="none" stroke="#010101" stroke-miterlimit="10" x1="28.2" y1="105.3" x2="34.2" y2="105.3"/>
<line fill="none" stroke="#010101" stroke-miterlimit="10" x1="28.2" y1="106.3" x2="34.2" y2="106.3"/>
<line fill="none" stroke="#010101" stroke-miterlimit="10" x1="30.2" y1="106.3" x2="32.2" y2="106.3"/>
<line fill="none" stroke="#010101" stroke-miterlimit="10" x1="35.2" y1="105.3" x2="40.2" y2="105.3"/>
<line fill="none" stroke="#010101" stroke-miterlimit="10" x1="35.2" y1="106.3" x2="40.2" y2="106.3"/>
<line fill="none" stroke="#010101" stroke-miterlimit="10" x1="37.2" y1="106.3" x2="39.2" y2="106.3"/>
<line fill="none" stroke="#010101" stroke-miterlimit="10" x1="42.2" y1="105.3" x2="47.2" y2="105.3"/>
<line fill="none" stroke="#010101" stroke-miterlimit="10" x1="42.2" y1="106.3" x2="47.2" y2="106.3"/>
<line fill="none" stroke="#010101" stroke-miterlimit="10" x1="43.2" y1="106.3" x2="45.2" y2="106.3"/>
<rect x="28.3" y="108.7" fill="#475059" width="2" height="1.5"/>
<line fill="none" stroke="#010101" stroke-miterlimit="10" x1="31.2" y1="108.3" x2="34.2" y2="108.3"/>
<line fill="none" stroke="#010101" stroke-miterlimit="10" x1="31.2" y1="109.3" x2="34.2" y2="109.3"/>
<line fill="none" stroke="#010101" stroke-miterlimit="10" x1="31.2" y1="109.3" x2="33.2" y2="109.3"/>
<line fill="none" stroke="#190B0C" stroke-miterlimit="10" x1="28.2" y1="111.3" x2="34.2" y2="111.3"/>
<line fill="none" stroke="#190B0C" stroke-miterlimit="10" x1="28.2" y1="111.3" x2="34.2" y2="111.3"/>
<line fill="none" stroke="#190B0C" stroke-miterlimit="10" x1="28.2" y1="111.3" x2="34.2" y2="111.3"/>
<line fill="none" stroke="#190B0C" stroke-miterlimit="10" x1="28.2" y1="112.3" x2="32.2" y2="112.3"/>
<rect x="35.2" y="108.8" fill="#FEC76E" width="5" height="4"/>
<line fill="none" stroke="#010101" stroke-miterlimit="10" x1="42.2" y1="108.3" x2="45.2" y2="108.3"/>
<line fill="none" stroke="#010101" stroke-miterlimit="10" x1="42.2" y1="109.3" x2="47.2" y2="109.3"/>
<line fill="none" stroke="#010101" stroke-miterlimit="10" x1="42.2" y1="109.3" x2="47.2" y2="109.3"/>
<line fill="none" stroke="#010101" stroke-miterlimit="10" x1="42.2" y1="109.3" x2="47.2" y2="109.3"/>
<line fill="none" stroke="#010101" stroke-miterlimit="10" x1="42.2" y1="110.3" x2="47.2" y2="110.3"/>
<line fill="none" stroke="#010101" stroke-miterlimit="10" x1="43.2" y1="111.3" x2="46.2" y2="111.3"/>
<polygon fill="#475059" points="45.6,112.8 41.8,112.8 41.8,112.8 45.6,112.8 "/>
<polygon fill="#FEC76E" points="47,112.7 45.6,112.7 45.6,112.7 47,112.7 "/>
</svg>
